<svg width="141" height="157" viewBox="0 0 141 157" fill="none" xmlns="http://www.w3.org/2000/svg">
<circle cx="60" cy="97" r="60" fill="#ECF0F7"/>
<circle cx="101" cy="63" r="40" fill="#F7F1F6"/>
<g clip-path="url(#clip0)">
<path d="M74.9424 6.90053C72.9369 6.54448 70.8711 6.83279 69.0396 7.72429C66.6763 6.25158 63.6183 6.54631 61.5799 8.44372L55.0273 14.5789V14.0444C55.0273 8.52335 50.5515 4.04755 45.0295 4.04755C41.7171 4.04755 39.0316 6.73303 39.0316 10.0455V29.6292L34.1366 34.9379C32.7462 36.439 31.9893 38.4188 32.0213 40.4644C31.982 47.4344 32.4964 54.398 33.5609 61.2865C33.6039 61.444 33.667 61.595 33.7485 61.7369L30.4855 70.9164C29.2443 74.3332 30.4937 78.1563 33.5124 80.1819L34.6546 80.9581C33.4886 84.3566 34.7279 88.1157 37.6852 90.1559L70.0592 112.35C70.6048 112.723 70.9297 113.341 70.9297 114.001C70.9297 117.315 73.6152 120 76.9276 120H105.986C107.811 120.005 109.537 119.173 110.669 117.743C111.824 116.289 112.243 114.384 111.805 112.58L108.886 101.783C107.859 97.0645 107.557 92.2171 107.99 87.4082C109.638 66.512 95.629 51.4169 92.0758 48.7936C85.5397 43.9755 80.6648 38.9524 78.6969 35.0111C75.7478 29.0974 77.7358 25.0518 79.657 21.1407C81.2689 17.8594 82.9366 14.4682 80.5705 10.9114C79.3202 8.86292 77.2873 7.41401 74.9424 6.90053ZM45.0295 8.04648C48.3429 8.04648 51.0284 10.732 51.0284 14.0444V18.3234L43.0305 25.8096V10.0455C43.0305 9.51553 43.241 9.00662 43.6163 8.63227C43.9907 8.25699 44.4996 8.04648 45.0295 8.04648ZM36.0203 40.4104C36.0038 39.3881 36.3827 38.3986 37.0774 37.649L42.3541 31.9165C42.4026 31.8753 42.4475 31.8323 42.4905 31.7865L54.2319 20.7993C54.3454 20.7133 54.4489 20.6153 54.5413 20.5073L64.3634 11.3095C65.1459 10.548 66.3935 10.548 67.1761 11.3095L67.3124 11.1731C67.3609 11.2299 67.4131 11.282 67.468 11.3315L67.3417 11.4935C69.5137 13.8467 69.4533 17.4905 67.2063 19.7714L59.342 27.3217L48.2688 37.2948C47.5493 38.0609 47.1713 39.0851 47.2189 40.134C43.4982 40.6182 40.3615 43.1453 39.0975 46.6784L36.5877 53.7372C36.1859 48.822 36.0578 43.257 36.0203 40.4104ZM51.2005 40.0379L56.9787 34.839C56.9028 36.5744 56.9659 38.3135 57.1691 40.0379H51.2005ZM34.2464 72.2801L42.8685 48.0184C43.7316 45.6203 46.0116 44.0249 48.5607 44.0368H65.7189C66.1335 44.0396 66.5381 44.1696 66.8758 44.4094L77.226 51.7436C77.6306 52.0237 77.8759 52.4823 77.8832 52.9747C77.8869 53.2557 77.8136 53.5321 77.6718 53.7747C77.6013 53.8909 77.5098 54.0063 77.4256 54.1207L74.1781 51.7976C72.4884 50.584 70.4601 49.9323 68.3797 49.9341H52.6439C48.4106 49.9405 44.6405 52.6132 43.2319 56.6057L36.034 77.0607L35.7741 76.885C34.262 75.8873 33.6304 73.9835 34.2464 72.2801ZM76.0764 19.4035C74.0563 23.5104 71.2931 29.1367 75.1282 36.8234C78.1935 42.9678 85.5799 48.9941 89.7107 52.0347C92.3659 53.9889 105.522 67.9453 104.011 87.118C103.544 92.3572 103.881 97.6375 105.011 102.774L107.93 113.572C108.066 114.164 107.925 114.787 107.547 115.263C107.169 115.739 106.594 116.018 105.986 116.019H76.9176C75.8137 116.019 74.9186 115.123 74.9186 114.02C74.9213 112.042 73.9483 110.19 72.3191 109.069L39.9469 86.8745C38.455 85.8476 37.8362 83.9483 38.4376 82.2395L47.0011 57.9256C47.8468 55.5348 50.1039 53.9339 52.6402 53.9266H68.376C69.6236 53.9257 70.84 54.3165 71.8532 55.0442L81.0849 61.6526C81.7339 62.1249 81.9151 63.0128 81.505 63.702C80.6666 65.1079 79.2882 66.1065 77.6928 66.4671C76.0965 66.8268 74.4225 66.5156 73.0623 65.6058L69.0634 62.9368C68.0804 62.275 66.9216 61.9227 65.7363 61.9245H59.5782C56.9751 61.9089 54.6639 63.5885 53.8759 66.0699C53.7578 66.4433 53.5894 66.9074 53.3999 67.4291C51.9602 71.4079 48.601 80.7183 56.2227 83.7754C56.8918 84.0728 57.6698 83.9804 58.251 83.5355C58.8322 83.0907 59.1233 82.364 59.0107 81.6409C58.8981 80.9169 58.3993 80.3137 57.711 80.0657C54.3573 78.7202 55.0648 74.583 57.1609 68.791C57.3723 68.2071 57.5609 67.6936 57.689 67.2771C57.9554 66.4616 58.7205 65.9133 59.5782 65.9234H65.7345C66.1271 65.9234 66.5106 66.0406 66.8365 66.2593L70.8354 68.9311C73.1072 70.4477 75.9016 70.9667 78.566 70.3663C81.2304 69.7658 83.5324 68.0982 84.9337 65.7541C86.4 63.2755 85.7374 60.0875 83.4043 58.3997L80.6712 56.4336C80.8167 56.2341 80.9751 56.0346 81.0986 55.8341C82.5833 53.3573 81.9041 50.1556 79.5435 48.4943L69.1961 41.1482C68.1792 40.4287 66.9646 40.0407 65.7189 40.0379H61.1973C60.7818 36.9415 60.8825 33.7965 61.4939 30.7321L70.0135 22.6308C73.0935 19.5362 73.8092 14.8004 71.7809 10.9333C73.9007 10.2661 76.1945 11.1978 77.2498 13.1529C78.2411 14.6448 77.6855 16.1285 76.0764 19.4035Z" fill="#3476A4"/>
<path d="M67.5756 84.0268C66.8974 83.8007 66.1496 83.9536 65.6141 84.4277C65.0787 84.9018 64.837 85.6258 64.9798 86.327C65.1235 87.0281 65.6297 87.5992 66.3079 87.8262C70.9228 89.3731 82.9041 94.9225 82.9041 101.925C82.9041 103.028 83.7992 103.924 84.9031 103.924C86.0078 103.924 86.903 103.028 86.903 101.925C86.8966 90.6051 68.3655 84.2849 67.5756 84.0268Z" fill="#49A08A"/>
<path d="M81.0829 76.7092C80.65 76.1399 79.9471 75.8452 79.2386 75.9358C78.5293 76.0264 77.9224 76.4877 77.6469 77.1467C77.3705 77.8057 77.4666 78.5618 77.8995 79.1302C80.9502 83.1291 86.0255 87.9161 92.8774 87.9161C93.9822 87.9161 94.8774 87.0209 94.8774 85.9161C94.8774 84.8123 93.9822 83.9171 92.8774 83.9171C87.663 83.9171 83.5918 79.996 81.0829 76.7092Z" fill="#49A08A"/>
<path d="M82.9531 3.15179L87.6575 4.44579e-05L89.7447 3.11548L85.0404 6.26723L82.9531 3.15179Z" fill="#EFC579"/>
<path d="M88.2891 9.30371L93.5872 7.3051L94.9108 10.8138L89.6126 12.8124L88.2891 9.30371Z" fill="#EFC579"/>
<path d="M88.1934 16.9307L93.8472 16.6169L94.055 20.3611L88.4012 20.675L88.1934 16.9307Z" fill="#EFC579"/>
</g>
<defs>
<clipPath id="clip0">
<rect width="120" height="120" fill="white" transform="translate(11)"/>
</clipPath>
</defs>
</svg>
