<svg width="1011" height="578" viewBox="0 0 1011 578" fill="none" xmlns="http://www.w3.org/2000/svg">
<path opacity="0.2" d="M910.033 345.905C902.507 324.291 904.576 300.556 908.554 278.022C912.532 255.477 918.349 233.032 918.049 210.138C917.549 172.757 899.638 135.926 870.392 112.651C841.145 89.3768 801.104 80.209 764.701 88.677C741.682 94.0357 720.042 106.013 696.423 106.983C672.175 107.982 649.135 97.265 625.267 92.886C568.593 82.4785 507.852 111.002 476.136 159.12C444.421 207.239 441.413 271.783 464.622 324.531C487.831 377.278 535.409 417.738 589.903 436.484C644.388 455.219 705.029 453.05 759.693 434.824C786.501 425.886 812.019 413.239 839.196 405.531C866.373 397.823 896.399 395.414 922.237 406.851L959.76 387.026C936.89 386.406 917.569 367.51 910.033 345.905Z" fill="url(#paint0_linear)"/>
<path opacity="0.2" d="M460.604 474.355C453.067 452.74 455.146 429.006 459.125 406.471C463.103 383.926 468.92 361.482 468.62 338.587C468.12 301.206 450.209 264.375 420.962 241.101C391.716 217.826 351.675 208.658 315.272 217.126C292.253 222.485 270.613 234.462 246.994 235.432C222.745 236.432 199.706 225.714 175.837 221.335C119.164 210.928 58.4225 239.451 26.7074 287.569C-4.99772 335.688 -8.00631 400.232 15.2028 452.98C38.4119 505.727 85.9896 546.188 140.484 564.933C194.968 583.669 255.61 581.499 310.274 563.273C337.082 554.336 362.6 541.689 389.777 533.98C416.964 526.272 446.98 523.863 472.818 535.3L510.341 515.475C487.461 514.865 468.14 495.97 460.604 474.355Z" fill="url(#paint1_linear)"/>
<path d="M331.205 197.171C331.205 200.4 328.586 203.02 325.358 203.02C322.129 203.02 319.51 200.4 319.51 197.171C319.51 193.942 322.129 191.322 325.358 191.322C328.586 191.322 331.205 193.942 331.205 197.171Z" fill="#F8E6CB"/>
<path d="M533.74 373.139C526.863 348.045 521.855 320.702 531.461 296.527C544.055 264.855 578.989 247.109 612.823 243.05C646.657 238.981 680.731 245.699 714.715 248.289C748.699 250.878 785.092 248.639 813.109 229.213C851.951 202.28 864.705 149.792 899.758 118.07C928.984 91.6263 973.104 82.8984 1010.2 96.2452" stroke="#D8D8D8" stroke-miterlimit="10"/>
<path d="M559.478 373.139C552.971 349.405 548.233 323.531 557.319 300.666C569.233 270.703 602.277 253.917 634.282 250.078C666.297 246.229 698.522 252.588 730.667 255.037C762.812 257.487 797.246 255.367 823.744 236.992C860.496 211.508 872.551 161.859 905.715 131.857C933.362 106.843 975.102 98.5846 1010.19 111.212" stroke="#D8D8D8" stroke-miterlimit="10"/>
<path d="M585.216 373.139C579.088 350.754 574.611 326.37 583.187 304.805C594.421 276.552 625.577 260.726 655.762 257.107C685.948 253.478 716.334 259.476 746.65 261.776C776.966 264.085 809.43 262.085 834.409 244.76C869.062 220.735 880.427 173.917 911.692 145.623C937.76 122.029 977.112 114.251 1010.2 126.158" stroke="#D8D8D8" stroke-miterlimit="10"/>
<path d="M610.954 373.139C605.196 352.114 600.988 329.199 609.045 308.944C619.6 282.401 648.866 267.534 677.223 264.135C705.579 260.726 734.126 266.354 762.603 268.524C791.079 270.693 821.575 268.814 845.044 252.538C877.599 229.963 888.274 185.984 917.65 159.41C942.138 137.245 979.111 129.937 1010.19 141.124" stroke="#D8D8D8" stroke-miterlimit="10"/>
<path d="M636.692 373.139C631.304 353.464 627.376 332.029 634.902 313.083C644.768 288.249 672.155 274.343 698.682 271.163C725.21 267.974 751.917 273.243 778.555 275.272C805.192 277.302 833.729 275.542 855.689 260.316C886.145 239.201 896.14 198.051 923.617 173.187C946.526 152.452 981.12 145.613 1010.19 156.081" stroke="#D8D8D8" stroke-miterlimit="10"/>
<path d="M220.447 0.318115C215.429 17.7939 224.365 36.6894 237.319 49.4464C250.273 62.2033 266.855 70.4614 282.098 80.379C297.341 90.2966 312.074 102.944 317.841 120.189C328.096 150.872 307.156 182.105 297.171 212.877C282.058 259.436 293.832 313.723 326.877 349.835" stroke="#D8D8D8" stroke-miterlimit="10"/>
<path d="M208.592 3.9281C203.575 21.4039 212.51 40.2994 225.464 53.0563C238.418 65.8133 255 74.0713 270.243 83.989C285.486 93.9066 300.219 106.554 305.986 123.799C316.242 154.482 295.302 185.715 285.316 216.487C270.203 263.046 281.978 317.333 315.022 353.445" stroke="#D8D8D8" stroke-miterlimit="10"/>
<path d="M196.738 7.53632C191.72 25.0121 200.656 43.9076 213.61 56.6646C226.564 69.4215 243.146 77.6795 258.389 87.5972C273.632 97.5148 288.365 110.162 294.132 127.408C304.387 158.09 283.447 189.323 273.462 220.096C258.349 266.654 270.123 320.941 303.168 357.053" stroke="#D8D8D8" stroke-miterlimit="10"/>
<path d="M184.873 11.1455C179.856 28.6213 188.792 47.5168 201.746 60.2738C214.699 73.0307 231.282 81.2888 246.525 91.2064C261.767 101.124 276.5 113.771 282.268 131.017C292.523 161.699 271.583 192.932 261.597 223.705C246.485 270.264 258.259 324.551 291.304 360.662" stroke="#D8D8D8" stroke-miterlimit="10"/>
<defs>
<linearGradient id="paint0_linear" x1="449.432" y1="267.554" x2="959.77" y2="267.554" gradientUnits="userSpaceOnUse">
<stop stop-color="#D1D5DE"/>
<stop offset="1" stop-color="#DBDBDB"/>
</linearGradient>
<linearGradient id="paint1_linear" x1="-6.49122e-05" y1="396.012" x2="510.338" y2="396.012" gradientUnits="userSpaceOnUse">
<stop stop-color="#D1D5DE"/>
<stop offset="1" stop-color="#DBDBDB"/>
</linearGradient>
</defs>
</svg>
