<svg width="1011" height="578" viewBox="0 0 1011 578" fill="none" xmlns="http://www.w3.org/2000/svg">
<path opacity="0.2" d="M100.967 345.906C108.493 324.291 106.424 300.556 102.446 278.022C98.4682 255.477 92.6509 233.033 92.9508 210.138C93.4506 172.757 111.362 135.926 140.608 112.651C169.855 89.3769 209.896 80.2091 246.299 88.6771C269.318 94.0358 290.958 106.013 314.577 106.983C338.825 107.982 361.865 97.265 385.733 92.8861C442.407 82.4786 503.148 111.002 534.864 159.12C566.579 207.239 569.587 271.783 546.378 324.531C523.169 377.278 475.591 417.738 421.097 436.484C366.612 455.219 305.971 453.05 251.307 434.824C224.499 425.886 198.981 413.239 171.804 405.531C144.627 397.823 114.601 395.414 88.7628 406.851L51.2403 387.026C74.1096 386.406 93.4305 367.51 100.967 345.906Z" fill="url(#paint0_linear)"/>
<path opacity="0.2" d="M550.396 474.355C557.933 452.74 555.854 429.006 551.875 406.471C547.897 383.926 542.08 361.482 542.38 338.587C542.88 301.206 560.791 264.375 590.038 241.101C619.284 217.826 659.325 208.658 695.728 217.126C718.747 222.485 740.387 234.462 764.006 235.432C788.255 236.432 811.294 225.714 835.163 221.335C891.836 210.928 952.577 239.451 984.293 287.569C1016 335.688 1019.01 400.233 995.797 452.98C972.588 505.727 925.01 546.188 870.516 564.933C816.032 583.669 755.39 581.499 700.726 563.274C673.918 554.336 648.4 541.689 621.223 533.98C594.036 526.272 564.02 523.863 538.182 535.3L500.659 515.475C523.539 514.865 542.86 495.97 550.396 474.355Z" fill="url(#paint1_linear)"/>
<path d="M178.11 68.4756C173.273 64.1945 172.821 56.8019 177.102 51.9638C181.382 47.1258 188.773 46.6744 193.61 50.9555C198.447 55.2367 198.898 62.6293 194.618 67.4673C190.338 72.3053 182.947 72.7568 178.11 68.4756Z" fill="#F8E6CB"/>
<path d="M679.795 197.171C679.795 200.4 682.414 203.019 685.642 203.019C688.871 203.019 691.49 200.4 691.49 197.171C691.49 193.942 688.871 191.322 685.642 191.322C682.414 191.322 679.795 193.942 679.795 197.171Z" fill="#F8E6CB"/>
<path d="M477.26 373.139C484.137 348.045 489.145 320.701 479.539 296.527C466.945 264.855 432.011 247.109 398.177 243.05C364.343 238.981 330.269 245.699 296.285 248.289C262.301 250.878 225.908 248.639 197.891 229.213C159.049 202.28 146.295 149.792 111.242 118.07C82.0156 91.6262 37.8963 82.8983 0.80372 96.2451" stroke="#D8D8D8" stroke-miterlimit="10"/>
<path d="M451.522 373.139C458.029 349.405 462.767 323.531 453.681 300.666C441.767 270.703 408.723 253.917 376.718 250.078C344.703 246.229 312.478 252.588 280.333 255.037C248.188 257.487 213.754 255.367 187.256 236.991C150.504 211.508 138.449 161.859 105.285 131.857C77.6379 106.843 35.8975 98.5845 0.813966 111.211" stroke="#D8D8D8" stroke-miterlimit="10"/>
<path d="M425.784 373.139C431.912 350.754 436.389 326.37 427.813 304.805C416.579 276.552 385.423 260.726 355.238 257.107C325.052 253.478 294.666 259.476 264.35 261.776C234.034 264.085 201.57 262.085 176.591 244.76C141.938 220.735 130.573 173.917 99.3076 145.623C73.2398 122.029 33.8882 114.251 0.803764 126.158" stroke="#D8D8D8" stroke-miterlimit="10"/>
<path d="M400.046 373.139C405.804 352.114 410.012 329.199 401.955 308.944C391.4 282.401 362.134 267.534 333.777 264.135C305.421 260.726 276.874 266.354 248.397 268.524C219.921 270.693 189.425 268.814 165.956 252.538C133.401 229.963 122.726 185.984 93.3501 159.41C68.8616 137.245 31.889 129.937 0.813543 141.124" stroke="#D8D8D8" stroke-miterlimit="10"/>
<path d="M374.308 373.139C379.696 353.464 383.624 332.029 376.098 313.083C366.232 288.249 338.845 274.343 312.318 271.163C285.79 267.974 259.083 273.243 232.445 275.272C205.808 277.302 177.271 275.542 155.311 260.316C124.855 239.201 114.86 198.051 87.3831 173.187C64.4738 152.452 29.8801 145.613 0.813718 156.081" stroke="#D8D8D8" stroke-miterlimit="10"/>
<path d="M790.553 0.318115C795.571 17.7939 786.635 36.6894 773.681 49.4464C760.727 62.2033 744.145 70.4614 728.902 80.379C713.659 90.2966 698.926 102.944 693.159 120.189C682.904 150.872 703.844 182.105 713.829 212.877C728.942 259.436 717.168 313.723 684.123 349.835" stroke="#D8D8D8" stroke-miterlimit="10"/>
<path d="M802.408 3.92813C807.425 21.404 798.49 40.2994 785.536 53.0564C772.582 65.8133 756 74.0714 740.757 83.989C725.514 93.9066 710.781 106.554 705.014 123.799C694.758 154.482 715.698 185.715 725.684 216.487C740.797 263.046 729.022 317.333 695.978 353.445" stroke="#D8D8D8" stroke-miterlimit="10"/>
<path d="M814.262 7.53635C819.28 25.0122 810.344 43.9076 797.39 56.6646C784.436 69.4215 767.854 77.6796 752.611 87.5972C737.368 97.5148 722.635 110.162 716.868 127.408C706.613 158.09 727.553 189.323 737.538 220.096C752.651 266.654 740.877 320.941 707.832 357.053" stroke="#D8D8D8" stroke-miterlimit="10"/>
<path d="M826.127 11.1455C831.144 28.6214 822.208 47.5169 809.254 60.2738C796.301 73.0308 779.718 81.2888 764.475 91.2064C749.233 101.124 734.5 113.771 728.732 131.017C718.477 161.7 739.417 192.932 749.403 223.705C764.515 270.264 752.741 324.551 719.696 360.662" stroke="#D8D8D8" stroke-miterlimit="10"/>
<defs>
<linearGradient id="paint0_linear" x1="561.568" y1="267.554" x2="51.2304" y2="267.554" gradientUnits="userSpaceOnUse">
<stop stop-color="#D1D5DE"/>
<stop offset="1" stop-color="#DBDBDB"/>
</linearGradient>
<linearGradient id="paint1_linear" x1="1011" y1="396.012" x2="500.662" y2="396.012" gradientUnits="userSpaceOnUse">
<stop stop-color="#D1D5DE"/>
<stop offset="1" stop-color="#DBDBDB"/>
</linearGradient>
</defs>
</svg>
