<svg width="1440" height="4669" viewBox="0 0 1440 4669" fill="none" xmlns="http://www.w3.org/2000/svg">
<g opacity="0.5" clip-path="url(#clip0)">
<path opacity="0.2" d="M1220.03 813.905C1212.51 792.29 1214.58 768.556 1218.55 746.021C1222.53 723.476 1228.35 701.032 1228.05 678.137C1227.55 640.756 1209.64 603.925 1180.39 580.651C1151.15 557.376 1111.1 548.208 1074.7 556.676C1051.68 562.035 1030.04 574.012 1006.42 574.982C982.175 575.982 959.135 565.264 935.267 560.885C878.593 550.478 817.852 579.001 786.136 627.12C754.421 675.238 751.413 739.783 774.622 792.53C797.831 845.277 845.409 885.738 899.903 904.483C954.388 923.219 1015.03 921.049 1069.69 902.824C1096.5 893.886 1122.02 881.239 1149.2 873.531C1176.37 865.822 1206.4 863.413 1232.24 874.85L1269.76 855.025C1246.89 854.405 1227.57 835.51 1220.03 813.905Z" fill="url(#paint0_linear)"/>
<path opacity="0.2" d="M770.604 942.354C763.067 920.739 765.146 897.005 769.125 874.47C773.103 851.926 778.92 829.481 778.62 806.587C778.12 769.205 760.209 732.374 730.962 709.1C701.716 685.825 661.675 676.658 625.272 685.126C602.253 690.484 580.613 702.461 556.994 703.431C532.745 704.431 509.706 693.714 485.837 689.335C429.164 678.927 368.423 707.45 336.707 755.569C305.002 803.687 301.994 868.232 325.203 920.979C348.412 973.727 395.99 1014.19 450.484 1032.93C504.968 1051.67 565.61 1049.5 620.274 1031.27C647.082 1022.33 672.6 1009.69 699.777 1001.98C726.964 994.272 756.98 991.862 782.818 1003.3L820.341 983.474C797.461 982.864 778.14 963.969 770.604 942.354Z" fill="url(#paint1_linear)"/>
<path opacity="0.2" d="M1390.26 260.338C1382.73 238.723 1384.81 214.988 1388.78 192.454C1392.76 169.909 1398.58 147.465 1398.28 124.57C1397.78 87.1889 1379.87 50.3577 1350.62 27.0833C1321.38 3.79887 1281.33 -5.36894 1244.93 3.09904C1221.91 8.45776 1200.27 20.4349 1176.65 21.4047C1152.4 22.4044 1129.37 11.687 1105.5 7.30803C1048.83 -3.09948 988.082 25.4237 956.377 73.5422C924.662 121.661 921.653 186.205 944.862 238.963C968.071 291.71 1015.65 332.17 1070.14 350.916C1124.63 369.651 1185.27 367.482 1239.93 349.256C1266.74 340.318 1292.26 327.671 1319.44 319.963C1346.62 312.255 1376.64 309.846 1402.48 321.283L1440 301.458C1417.12 300.838 1397.8 281.942 1390.26 260.338Z" fill="url(#paint2_linear)"/>
<path d="M766.445 432.027C770.595 413.673 759.084 395.428 740.734 391.277C722.383 387.126 704.143 398.64 699.993 416.995C695.843 435.349 707.354 453.594 725.705 457.745C744.055 461.896 762.295 450.382 766.445 432.027Z" fill="#F8E6CB"/>
<path d="M1142.89 536.475C1147.73 532.194 1148.18 524.802 1143.9 519.964C1139.62 515.126 1132.23 514.674 1127.39 518.955C1122.55 523.236 1122.1 530.629 1126.38 535.467C1130.66 540.305 1138.05 540.757 1142.89 536.475Z" fill="#F8E6CB"/>
<path d="M641.204 665.171C641.204 668.4 638.586 671.019 635.357 671.019C632.129 671.019 629.51 668.4 629.51 665.171C629.51 661.942 632.129 659.322 635.357 659.322C638.586 659.322 641.204 661.942 641.204 665.171Z" fill="#F8E6CB"/>
<path d="M1196.52 482.274C1196.52 485.504 1193.91 488.123 1190.68 488.123C1187.45 488.123 1184.83 485.504 1184.83 482.274C1184.83 479.045 1187.45 476.426 1190.68 476.426C1193.91 476.426 1196.52 479.045 1196.52 482.274Z" fill="#F8E6CB"/>
<path d="M626.531 256.578C668.072 256.528 709.252 275.664 736.01 307.456C759.209 335.03 771.163 370.241 791.064 400.274C810.965 430.317 844.579 456.661 880.002 450.062C904.321 445.533 923.652 426.128 935.087 404.193C946.521 382.258 951.479 357.634 957.596 333.66C963.723 309.686 971.499 285.351 987.342 266.346C1007.43 242.262 1040.05 229.265 1071.19 232.924" stroke="#D8D8D8" stroke-miterlimit="10"/>
<path d="M640.444 255.058C679.386 255.008 717.988 272.954 743.076 302.747C764.826 328.591 776.031 361.603 794.682 389.756C813.343 417.919 844.848 442.613 878.053 436.425C900.852 432.176 918.974 413.99 929.689 393.425C940.414 372.86 945.051 349.776 950.789 327.301C956.526 304.826 963.823 282.012 978.676 264.206C997.507 241.631 1028.08 229.444 1057.28 232.883" stroke="#D8D8D8" stroke-miterlimit="10"/>
<path d="M654.358 253.539C690.701 253.499 726.734 270.235 750.133 298.048C770.434 322.163 780.889 352.975 798.301 379.249C815.713 405.533 845.119 428.577 876.104 422.799C897.384 418.839 914.287 401.864 924.292 382.668C934.297 363.473 938.625 341.938 943.983 320.963C949.34 299.988 956.147 278.703 970.01 262.077C987.582 241.012 1016.12 229.635 1043.37 232.844" stroke="#D8D8D8" stroke-miterlimit="10"/>
<path d="M668.271 252.029C702.016 251.989 735.47 267.535 757.2 293.349C776.041 315.744 785.756 344.347 801.919 368.741C818.081 393.135 845.388 414.54 874.155 409.181C893.906 405.502 909.608 389.746 918.894 371.92C928.18 354.104 932.208 334.099 937.175 314.634C942.153 295.159 948.47 275.393 961.334 259.957C977.646 240.392 1004.14 229.834 1029.44 232.813" stroke="#D8D8D8" stroke-miterlimit="10"/>
<path d="M682.186 250.51C713.331 250.47 744.206 264.816 764.257 288.65C781.649 309.316 790.605 335.719 805.528 358.234C820.451 380.748 845.649 400.504 872.196 395.555C890.428 392.156 904.921 377.619 913.487 361.163C922.063 344.717 925.771 326.261 930.359 308.286C934.947 290.31 940.784 272.064 952.659 257.828C967.722 239.772 992.17 230.024 1015.52 232.774" stroke="#D8D8D8" stroke-miterlimit="10"/>
<path d="M843.74 841.139C836.863 816.045 831.855 788.701 841.461 764.527C854.055 732.855 888.989 715.109 922.823 711.05C956.657 706.981 990.731 713.699 1024.71 716.289C1058.7 718.878 1095.09 716.638 1123.11 697.213C1161.95 670.28 1174.7 617.792 1209.76 586.07C1238.98 559.626 1283.1 550.898 1320.2 564.245" stroke="#D8D8D8" stroke-miterlimit="10"/>
<path d="M869.478 841.139C862.971 817.405 858.233 791.531 867.319 768.666C879.233 738.703 912.277 721.917 944.282 718.078C976.297 714.229 1008.52 720.588 1040.67 723.037C1072.81 725.486 1107.25 723.367 1133.74 704.991C1170.5 679.507 1182.55 629.859 1215.72 599.856C1243.36 574.842 1285.1 566.584 1320.19 579.211" stroke="#D8D8D8" stroke-miterlimit="10"/>
<path d="M895.216 841.138C889.089 818.754 884.611 794.37 893.187 772.805C904.422 744.551 935.577 728.725 965.763 725.106C995.949 721.477 1026.33 727.476 1056.65 729.775C1086.97 732.084 1119.43 730.085 1144.41 712.759C1179.06 688.735 1190.43 641.916 1221.69 613.623C1247.76 590.028 1287.11 582.25 1320.2 594.157" stroke="#D8D8D8" stroke-miterlimit="10"/>
<path d="M920.954 841.138C915.196 820.114 910.988 797.199 919.045 776.944C929.6 750.4 958.866 735.534 987.223 732.135C1015.58 728.725 1044.13 734.354 1072.6 736.523C1101.08 738.693 1131.57 736.813 1155.04 720.537C1187.6 697.963 1198.27 653.983 1227.65 627.41C1252.14 605.245 1289.11 597.937 1320.19 609.124" stroke="#D8D8D8" stroke-miterlimit="10"/>
<path d="M946.691 841.139C941.304 821.464 937.375 800.029 944.902 781.083C954.767 756.249 982.154 742.342 1008.68 739.163C1035.21 735.974 1061.92 741.243 1088.55 743.272C1115.19 745.302 1143.73 743.542 1165.69 728.316C1196.14 707.201 1206.14 666.051 1233.62 641.187C1256.53 620.452 1291.12 613.613 1320.19 624.081" stroke="#D8D8D8" stroke-miterlimit="10"/>
<path d="M530.447 468.318C525.429 485.794 534.365 504.69 547.319 517.447C560.273 530.204 576.855 538.462 592.098 548.379C607.341 558.297 622.074 570.944 627.841 588.19C638.096 618.872 617.156 650.105 607.171 680.878C592.058 727.436 603.832 781.724 636.877 817.835" stroke="#D8D8D8" stroke-miterlimit="10"/>
<path d="M518.592 471.929C513.575 489.405 522.51 508.3 535.464 521.057C548.418 533.814 565 542.072 580.243 551.99C595.486 561.907 610.219 574.554 615.986 591.8C626.242 622.483 605.302 653.715 595.316 684.488C580.203 731.047 591.978 785.334 625.022 821.445" stroke="#D8D8D8" stroke-miterlimit="10"/>
<path d="M506.738 475.536C501.72 493.012 510.656 511.907 523.61 524.664C536.564 537.421 553.146 545.679 568.389 555.597C583.632 565.515 598.365 578.162 604.132 595.407C614.387 626.09 593.447 657.323 583.462 688.095C568.349 734.654 580.123 788.941 613.168 825.053" stroke="#D8D8D8" stroke-miterlimit="10"/>
<path d="M494.873 479.146C489.856 496.621 498.792 515.517 511.746 528.274C524.699 541.031 541.282 549.289 556.525 559.206C571.767 569.124 586.5 581.771 592.268 599.017C602.523 629.699 581.583 660.932 571.597 691.705C556.485 738.264 568.259 792.551 601.304 828.662" stroke="#D8D8D8" stroke-miterlimit="10"/>
<path d="M1113.44 81.9199C1115.98 99.9256 1131.83 113.542 1148.87 119.911C1165.9 126.279 1184.4 127.069 1202.36 129.908C1220.32 132.758 1238.92 138.306 1251.22 151.703C1273.09 175.548 1266.68 212.599 1270.09 244.771C1275.26 293.449 1308.12 338.229 1353 357.744" stroke="#D8D8D8" stroke-miterlimit="10"/>
<path d="M1104.08 90.0479C1106.62 108.054 1122.47 121.67 1139.5 128.039C1156.53 134.407 1175.03 135.197 1193 138.036C1210.96 140.886 1229.56 146.434 1241.85 159.831C1263.72 183.675 1257.32 220.727 1260.72 252.899C1265.89 301.577 1298.76 346.357 1343.64 365.872" stroke="#D8D8D8" stroke-miterlimit="10"/>
<path d="M1094.72 98.1758C1097.26 116.181 1113.11 129.798 1130.15 136.167C1147.18 142.535 1165.68 143.325 1183.64 146.164C1201.6 149.014 1220.2 154.562 1232.5 167.959C1254.37 191.803 1247.96 228.855 1251.37 261.027C1256.54 309.705 1289.4 354.485 1334.28 374" stroke="#D8D8D8" stroke-miterlimit="10"/>
<path d="M1085.36 106.304C1087.9 124.309 1103.75 137.926 1120.78 144.295C1137.81 150.663 1156.31 151.453 1174.27 154.292C1192.24 157.142 1210.84 162.69 1223.13 176.087C1245 199.931 1238.59 236.982 1242 269.155C1247.17 317.833 1280.04 362.612 1324.91 382.128" stroke="#D8D8D8" stroke-miterlimit="10"/>
</g>
<g opacity="0.5" clip-path="url(#clip1)">
<path opacity="0.2" d="M1220.03 3262.91C1212.51 3241.29 1214.58 3217.56 1218.55 3195.02C1222.53 3172.48 1228.35 3150.03 1228.05 3127.14C1227.55 3089.76 1209.64 3052.93 1180.39 3029.65C1151.15 3006.38 1111.1 2997.21 1074.7 3005.68C1051.68 3011.04 1030.04 3023.01 1006.42 3023.98C982.175 3024.98 959.135 3014.27 935.267 3009.89C878.593 2999.48 817.852 3028 786.136 3076.12C754.421 3124.24 751.413 3188.78 774.622 3241.53C797.831 3294.28 845.409 3334.74 899.903 3353.48C954.388 3372.22 1015.03 3370.05 1069.69 3351.83C1096.5 3342.89 1122.02 3330.24 1149.2 3322.53C1176.37 3314.82 1206.4 3312.41 1232.24 3323.85L1269.76 3304.03C1246.89 3303.41 1227.57 3284.51 1220.03 3262.91Z" fill="url(#paint3_linear)"/>
<path opacity="0.2" d="M770.604 3391.36C763.067 3369.74 765.146 3346.01 769.125 3323.47C773.103 3300.93 778.92 3278.48 778.62 3255.59C778.12 3218.21 760.209 3181.38 730.962 3158.1C701.716 3134.83 661.675 3125.66 625.272 3134.13C602.253 3139.49 580.613 3151.46 556.994 3152.43C532.745 3153.43 509.706 3142.71 485.837 3138.34C429.164 3127.93 368.423 3156.45 336.707 3204.57C305.002 3252.69 301.994 3317.23 325.203 3369.98C348.412 3422.73 395.99 3463.19 450.484 3481.93C504.968 3500.67 565.61 3498.5 620.274 3480.27C647.082 3471.34 672.6 3458.69 699.777 3450.98C726.964 3443.27 756.98 3440.86 782.818 3452.3L820.341 3432.48C797.461 3431.87 778.14 3412.97 770.604 3391.36Z" fill="url(#paint4_linear)"/>
<path opacity="0.2" d="M1390.26 2709.34C1382.73 2687.72 1384.81 2663.99 1388.78 2641.45C1392.76 2618.91 1398.58 2596.47 1398.28 2573.57C1397.78 2536.19 1379.87 2499.36 1350.62 2476.08C1321.38 2452.8 1281.33 2443.63 1244.93 2452.1C1221.91 2457.46 1200.27 2469.44 1176.65 2470.41C1152.4 2471.41 1129.37 2460.69 1105.5 2456.31C1048.83 2445.9 988.082 2474.42 956.377 2522.54C924.662 2570.66 921.653 2635.21 944.862 2687.96C968.071 2740.71 1015.65 2781.17 1070.14 2799.92C1124.63 2818.65 1185.27 2816.48 1239.93 2798.26C1266.74 2789.32 1292.26 2776.67 1319.44 2768.96C1346.62 2761.26 1376.64 2758.85 1402.48 2770.28L1440 2750.46C1417.12 2749.84 1397.8 2730.94 1390.26 2709.34Z" fill="url(#paint5_linear)"/>
<path d="M766.445 2881.03C770.595 2862.67 759.084 2844.43 740.734 2840.28C722.383 2836.13 704.143 2847.64 699.993 2866C695.843 2884.35 707.354 2902.59 725.705 2906.75C744.055 2910.9 762.295 2899.38 766.445 2881.03Z" fill="#F8E6CB"/>
<path d="M1142.89 2985.48C1147.73 2981.2 1148.18 2973.8 1143.9 2968.96C1139.62 2964.13 1132.23 2963.68 1127.39 2967.96C1122.55 2972.24 1122.1 2979.63 1126.38 2984.47C1130.66 2989.31 1138.05 2989.76 1142.89 2985.48Z" fill="#F8E6CB"/>
<path d="M641.204 3114.17C641.204 3117.4 638.586 3120.02 635.357 3120.02C632.129 3120.02 629.51 3117.4 629.51 3114.17C629.51 3110.94 632.129 3108.32 635.357 3108.32C638.586 3108.32 641.204 3110.94 641.204 3114.17Z" fill="#F8E6CB"/>
<path d="M1196.52 2931.28C1196.52 2934.5 1193.91 2937.12 1190.68 2937.12C1187.45 2937.12 1184.83 2934.5 1184.83 2931.28C1184.83 2928.05 1187.45 2925.43 1190.68 2925.43C1193.91 2925.43 1196.52 2928.05 1196.52 2931.28Z" fill="#F8E6CB"/>
<path d="M626.531 2705.58C668.072 2705.53 709.252 2724.66 736.01 2756.46C759.209 2784.03 771.163 2819.24 791.064 2849.27C810.965 2879.32 844.579 2905.66 880.002 2899.06C904.321 2894.53 923.652 2875.13 935.087 2853.19C946.521 2831.26 951.479 2806.64 957.596 2782.66C963.723 2758.69 971.499 2734.35 987.342 2715.35C1007.43 2691.26 1040.05 2678.27 1071.19 2681.92" stroke="#D8D8D8" stroke-miterlimit="10"/>
<path d="M640.444 2704.06C679.386 2704.01 717.988 2721.96 743.076 2751.75C764.826 2777.59 776.031 2810.6 794.682 2838.76C813.343 2866.92 844.848 2891.61 878.053 2885.43C900.852 2881.18 918.974 2862.99 929.689 2842.43C940.414 2821.86 945.051 2798.78 950.789 2776.3C956.526 2753.83 963.823 2731.01 978.676 2713.21C997.507 2690.63 1028.08 2678.45 1057.28 2681.88" stroke="#D8D8D8" stroke-miterlimit="10"/>
<path d="M654.358 2702.54C690.701 2702.5 726.734 2719.24 750.133 2747.05C770.434 2771.16 780.889 2801.98 798.301 2828.25C815.713 2854.53 845.119 2877.58 876.104 2871.8C897.384 2867.84 914.287 2850.86 924.292 2831.67C934.297 2812.47 938.625 2790.94 943.983 2769.96C949.34 2748.99 956.147 2727.7 970.01 2711.08C987.582 2690.01 1016.12 2678.64 1043.37 2681.84" stroke="#D8D8D8" stroke-miterlimit="10"/>
<path d="M668.271 2701.03C702.016 2700.99 735.47 2716.54 757.2 2742.35C776.041 2764.75 785.756 2793.35 801.919 2817.74C818.081 2842.14 845.388 2863.54 874.155 2858.18C893.906 2854.5 909.608 2838.75 918.894 2820.92C928.18 2803.11 932.208 2783.1 937.175 2763.64C942.153 2744.16 948.47 2724.39 961.334 2708.96C977.646 2689.39 1004.14 2678.84 1029.44 2681.81" stroke="#D8D8D8" stroke-miterlimit="10"/>
<path d="M682.186 2699.51C713.331 2699.47 744.206 2713.82 764.257 2737.65C781.649 2758.32 790.605 2784.72 805.528 2807.23C820.451 2829.75 845.649 2849.5 872.196 2844.56C890.428 2841.16 904.921 2826.62 913.487 2810.16C922.063 2793.72 925.771 2775.26 930.359 2757.29C934.947 2739.31 940.784 2721.07 952.659 2706.83C967.722 2688.77 992.17 2679.03 1015.52 2681.77" stroke="#D8D8D8" stroke-miterlimit="10"/>
<path d="M843.74 3290.14C836.863 3265.05 831.855 3237.7 841.461 3213.53C854.055 3181.86 888.989 3164.11 922.823 3160.05C956.657 3155.98 990.731 3162.7 1024.71 3165.29C1058.7 3167.88 1095.09 3165.64 1123.11 3146.21C1161.95 3119.28 1174.7 3066.79 1209.76 3035.07C1238.98 3008.63 1283.1 2999.9 1320.2 3013.25" stroke="#D8D8D8" stroke-miterlimit="10"/>
<path d="M869.478 3290.14C862.971 3266.41 858.233 3240.53 867.319 3217.67C879.233 3187.7 912.277 3170.92 944.282 3167.08C976.297 3163.23 1008.52 3169.59 1040.67 3172.04C1072.81 3174.49 1107.25 3172.37 1133.74 3153.99C1170.5 3128.51 1182.55 3078.86 1215.72 3048.86C1243.36 3023.84 1285.1 3015.59 1320.19 3028.21" stroke="#D8D8D8" stroke-miterlimit="10"/>
<path d="M895.216 3290.14C889.089 3267.76 884.611 3243.37 893.187 3221.81C904.422 3193.55 935.577 3177.73 965.763 3174.11C995.949 3170.48 1026.33 3176.48 1056.65 3178.78C1086.97 3181.09 1119.43 3179.09 1144.41 3161.76C1179.06 3137.74 1190.43 3090.92 1221.69 3062.62C1247.76 3039.03 1287.11 3031.25 1320.2 3043.16" stroke="#D8D8D8" stroke-miterlimit="10"/>
<path d="M920.954 3290.14C915.196 3269.11 910.988 3246.2 919.045 3225.94C929.6 3199.4 958.866 3184.53 987.223 3181.14C1015.58 3177.73 1044.13 3183.35 1072.6 3185.52C1101.08 3187.69 1131.57 3185.81 1155.04 3169.54C1187.6 3146.96 1198.27 3102.98 1227.65 3076.41C1252.14 3054.25 1289.11 3046.94 1320.19 3058.12" stroke="#D8D8D8" stroke-miterlimit="10"/>
<path d="M946.691 3290.14C941.304 3270.46 937.375 3249.03 944.902 3230.08C954.767 3205.25 982.154 3191.34 1008.68 3188.16C1035.21 3184.97 1061.92 3190.24 1088.55 3192.27C1115.19 3194.3 1143.73 3192.54 1165.69 3177.32C1196.14 3156.2 1206.14 3115.05 1233.62 3090.19C1256.53 3069.45 1291.12 3062.61 1320.19 3073.08" stroke="#D8D8D8" stroke-miterlimit="10"/>
<path d="M530.447 2917.32C525.429 2934.79 534.365 2953.69 547.319 2966.45C560.273 2979.2 576.855 2987.46 592.098 2997.38C607.341 3007.3 622.074 3019.94 627.841 3037.19C638.096 3067.87 617.156 3099.11 607.171 3129.88C592.058 3176.44 603.832 3230.72 636.877 3266.84" stroke="#D8D8D8" stroke-miterlimit="10"/>
<path d="M518.592 2920.93C513.575 2938.4 522.51 2957.3 535.464 2970.06C548.418 2982.81 565 2991.07 580.243 3000.99C595.486 3010.91 610.219 3023.55 615.986 3040.8C626.242 3071.48 605.302 3102.72 595.316 3133.49C580.203 3180.05 591.978 3234.33 625.022 3270.45" stroke="#D8D8D8" stroke-miterlimit="10"/>
<path d="M506.738 2924.54C501.72 2942.01 510.656 2960.91 523.61 2973.67C536.564 2986.42 553.146 2994.68 568.389 3004.6C583.632 3014.52 598.365 3027.16 604.132 3044.41C614.387 3075.09 593.447 3106.32 583.462 3137.1C568.349 3183.66 580.123 3237.94 613.168 3274.05" stroke="#D8D8D8" stroke-miterlimit="10"/>
<path d="M494.873 2928.15C489.856 2945.62 498.792 2964.52 511.746 2977.27C524.699 2990.03 541.282 2998.29 556.525 3008.21C571.767 3018.12 586.5 3030.77 592.268 3048.02C602.523 3078.7 581.583 3109.93 571.597 3140.71C556.485 3187.26 568.259 3241.55 601.304 3277.66" stroke="#D8D8D8" stroke-miterlimit="10"/>
<path d="M1113.44 2530.92C1115.98 2548.93 1131.83 2562.54 1148.87 2568.91C1165.9 2575.28 1184.4 2576.07 1202.36 2578.91C1220.32 2581.76 1238.92 2587.31 1251.22 2600.7C1273.09 2624.55 1266.68 2661.6 1270.09 2693.77C1275.26 2742.45 1308.12 2787.23 1353 2806.75" stroke="#D8D8D8" stroke-miterlimit="10"/>
<path d="M1104.08 2539.05C1106.62 2557.06 1122.47 2570.67 1139.5 2577.04C1156.53 2583.41 1175.03 2584.2 1193 2587.04C1210.96 2589.89 1229.56 2595.44 1241.85 2608.83C1263.72 2632.68 1257.32 2669.73 1260.72 2701.9C1265.89 2750.58 1298.76 2795.36 1343.64 2814.87" stroke="#D8D8D8" stroke-miterlimit="10"/>
<path d="M1094.72 2547.18C1097.26 2565.18 1113.11 2578.8 1130.15 2585.17C1147.18 2591.54 1165.68 2592.33 1183.64 2595.17C1201.6 2598.02 1220.2 2603.56 1232.5 2616.96C1254.37 2640.81 1247.96 2677.86 1251.37 2710.03C1256.54 2758.71 1289.4 2803.49 1334.28 2823" stroke="#D8D8D8" stroke-miterlimit="10"/>
<path d="M1085.36 2555.31C1087.9 2573.31 1103.75 2586.93 1120.78 2593.3C1137.81 2599.67 1156.31 2600.45 1174.27 2603.29C1192.24 2606.14 1210.84 2611.69 1223.13 2625.09C1245 2648.93 1238.59 2685.98 1242 2718.16C1247.17 2766.84 1280.04 2811.61 1324.91 2831.13" stroke="#D8D8D8" stroke-miterlimit="10"/>
</g>
<g opacity="0.5" clip-path="url(#clip2)">
<path opacity="0.2" d="M219.967 2066.91C227.493 2045.29 225.424 2021.56 221.446 1999.02C217.468 1976.48 211.651 1954.03 211.951 1931.14C212.451 1893.76 230.362 1856.93 259.608 1833.65C288.855 1810.38 328.896 1801.21 365.299 1809.68C388.318 1815.04 409.958 1827.01 433.577 1827.98C457.825 1828.98 480.865 1818.26 504.733 1813.89C561.407 1803.48 622.148 1832 653.864 1880.12C685.579 1928.24 688.587 1992.78 665.378 2045.53C642.169 2098.28 594.591 2138.74 540.097 2157.48C485.612 2176.22 424.971 2174.05 370.307 2155.82C343.499 2146.89 317.981 2134.24 290.804 2126.53C263.627 2118.82 233.601 2116.41 207.763 2127.85L170.24 2108.03C193.11 2107.41 212.431 2088.51 219.967 2066.91Z" fill="url(#paint6_linear)"/>
<path opacity="0.2" d="M669.396 2195.35C676.933 2173.74 674.854 2150.01 670.875 2127.47C666.897 2104.93 661.08 2082.48 661.38 2059.59C661.88 2022.21 679.791 1985.37 709.038 1962.1C738.284 1938.83 778.325 1929.66 814.728 1938.13C837.747 1943.48 859.387 1955.46 883.006 1956.43C907.255 1957.43 930.294 1946.71 954.163 1942.34C1010.84 1931.93 1071.58 1960.45 1103.29 2008.57C1135 2056.69 1138.01 2121.23 1114.8 2173.98C1091.59 2226.73 1044.01 2267.19 989.516 2285.93C935.032 2304.67 874.39 2302.5 819.726 2284.27C792.918 2275.34 767.4 2262.69 740.223 2254.98C713.036 2247.27 683.02 2244.86 657.182 2256.3L619.659 2236.47C642.539 2235.86 661.86 2216.97 669.396 2195.35Z" fill="url(#paint7_linear)"/>
<path opacity="0.2" d="M49.7368 1513.34C57.2732 1491.72 55.1942 1467.99 51.216 1445.45C47.2379 1422.91 41.4206 1400.46 41.7205 1377.57C42.2202 1340.19 60.1319 1303.36 89.3782 1280.08C118.624 1256.8 158.666 1247.63 195.069 1256.1C218.088 1261.46 239.728 1273.43 263.347 1274.4C287.595 1275.4 310.634 1264.69 334.503 1260.31C391.167 1249.9 451.918 1278.42 483.623 1326.54C515.338 1374.66 518.347 1439.21 495.138 1491.96C471.929 1544.71 424.351 1585.17 369.857 1603.92C315.372 1622.65 254.731 1620.48 200.066 1602.26C173.259 1593.32 147.741 1580.67 120.564 1572.96C93.3763 1565.26 63.3604 1562.85 37.5225 1574.28L6.10352e-05 1554.46C22.8793 1553.84 42.2003 1534.94 49.7368 1513.34Z" fill="url(#paint8_linear)"/>
<path d="M673.555 1685.03C669.405 1666.67 680.916 1648.43 699.266 1644.28C717.617 1640.13 735.857 1651.64 740.007 1669.99C744.157 1688.35 732.646 1706.59 714.295 1710.74C695.945 1714.9 677.705 1703.38 673.555 1685.03Z" fill="#F8E6CB"/>
<path d="M297.109 1789.48C292.272 1785.19 291.821 1777.8 296.101 1772.96C300.381 1768.13 307.772 1767.67 312.609 1771.96C317.446 1776.24 317.897 1783.63 313.617 1788.47C309.337 1793.31 301.946 1793.76 297.109 1789.48Z" fill="#F8E6CB"/>
<path d="M798.796 1918.17C798.796 1921.4 801.414 1924.02 804.643 1924.02C807.871 1924.02 810.49 1921.4 810.49 1918.17C810.49 1914.94 807.871 1912.32 804.643 1912.32C801.414 1912.32 798.796 1914.94 798.796 1918.17Z" fill="#F8E6CB"/>
<path d="M243.475 1735.27C243.475 1738.5 246.094 1741.12 249.323 1741.12C252.551 1741.12 255.17 1738.5 255.17 1735.27C255.17 1732.05 252.551 1729.43 249.323 1729.43C246.094 1729.43 243.475 1732.05 243.475 1735.27Z" fill="#F8E6CB"/>
<path d="M813.469 1509.58C771.928 1509.53 730.748 1528.66 703.99 1560.46C680.791 1588.03 668.837 1623.24 648.936 1653.27C629.035 1683.32 595.421 1709.66 559.998 1703.06C535.679 1698.53 516.348 1679.13 504.913 1657.19C493.479 1635.26 488.521 1610.63 482.404 1586.66C476.277 1562.69 468.501 1538.35 452.658 1519.35C432.567 1495.26 399.953 1482.26 368.807 1485.92" stroke="#D8D8D8" stroke-miterlimit="10"/>
<path d="M799.556 1508.06C760.614 1508.01 722.012 1525.95 696.924 1555.75C675.174 1581.59 663.969 1614.6 645.318 1642.76C626.657 1670.92 595.152 1695.61 561.947 1689.43C539.148 1685.18 521.026 1666.99 510.311 1646.43C499.586 1625.86 494.949 1602.78 489.211 1580.3C483.474 1557.83 476.177 1535.01 461.324 1517.21C442.493 1494.63 411.917 1482.44 382.721 1485.88" stroke="#D8D8D8" stroke-miterlimit="10"/>
<path d="M785.642 1506.54C749.299 1506.5 713.266 1523.23 689.867 1551.05C669.566 1575.16 659.111 1605.98 641.699 1632.25C624.287 1658.53 594.881 1681.58 563.896 1675.8C542.616 1671.84 525.713 1654.86 515.708 1635.67C505.703 1616.47 501.375 1594.94 496.017 1573.96C490.66 1552.99 483.853 1531.7 469.99 1515.08C452.418 1494.01 423.881 1482.63 396.634 1485.84" stroke="#D8D8D8" stroke-miterlimit="10"/>
<path d="M771.729 1505.03C737.984 1504.99 704.53 1520.54 682.8 1546.35C663.959 1568.74 654.244 1597.35 638.081 1621.74C621.919 1646.14 594.612 1667.54 565.845 1662.18C546.094 1658.5 530.392 1642.75 521.106 1624.92C511.82 1607.1 507.792 1587.1 502.825 1567.63C497.847 1548.16 491.53 1528.39 478.666 1512.96C462.354 1493.39 435.856 1482.83 410.558 1485.81" stroke="#D8D8D8" stroke-miterlimit="10"/>
<path d="M757.814 1503.51C726.669 1503.47 695.794 1517.82 675.743 1541.65C658.351 1562.32 649.395 1588.72 634.472 1611.23C619.549 1633.75 594.351 1653.5 567.804 1648.55C549.572 1645.16 535.079 1630.62 526.513 1614.16C517.937 1597.72 514.229 1579.26 509.641 1561.29C505.053 1543.31 499.216 1525.06 487.341 1510.83C472.278 1492.77 447.83 1483.02 424.481 1485.77" stroke="#D8D8D8" stroke-miterlimit="10"/>
<path d="M596.26 2094.14C603.137 2069.04 608.145 2041.7 598.539 2017.53C585.945 1985.85 551.011 1968.11 517.177 1964.05C483.343 1959.98 449.269 1966.7 415.285 1969.29C381.301 1971.88 344.908 1969.64 316.891 1950.21C278.049 1923.28 265.295 1870.79 230.242 1839.07C201.016 1812.63 156.896 1803.9 119.804 1817.24" stroke="#D8D8D8" stroke-miterlimit="10"/>
<path d="M570.522 2094.14C577.029 2070.4 581.767 2044.53 572.681 2021.67C560.767 1991.7 527.723 1974.92 495.718 1971.08C463.703 1967.23 431.478 1973.59 399.333 1976.04C367.188 1978.49 332.754 1976.37 306.256 1957.99C269.504 1932.51 257.449 1882.86 224.285 1852.86C196.638 1827.84 154.898 1819.58 119.814 1832.21" stroke="#D8D8D8" stroke-miterlimit="10"/>
<path d="M544.784 2094.14C550.911 2071.75 555.389 2047.37 546.813 2025.81C535.578 1997.55 504.423 1981.73 474.237 1978.11C444.051 1974.48 413.665 1980.48 383.35 1982.78C353.034 1985.08 320.569 1983.09 295.591 1965.76C260.937 1941.74 249.572 1894.92 218.307 1866.62C192.239 1843.03 152.888 1835.25 119.803 1847.16" stroke="#D8D8D8" stroke-miterlimit="10"/>
<path d="M519.046 2094.14C524.804 2073.11 529.012 2050.2 520.955 2029.94C510.4 2003.4 481.134 1988.53 452.777 1985.13C424.421 1981.73 395.874 1987.35 367.397 1989.52C338.921 1991.69 308.425 1989.81 284.956 1973.54C252.401 1950.96 241.726 1906.98 212.35 1880.41C187.862 1858.24 150.889 1850.94 119.814 1862.12" stroke="#D8D8D8" stroke-miterlimit="10"/>
<path d="M493.309 2094.14C498.696 2074.46 502.625 2053.03 495.098 2034.08C485.233 2009.25 457.846 1995.34 431.318 1992.16C404.79 1988.97 378.083 1994.24 351.446 1996.27C324.808 1998.3 296.271 1996.54 274.312 1981.32C243.856 1960.2 233.861 1919.05 206.384 1894.19C183.474 1873.45 148.881 1866.61 119.814 1877.08" stroke="#D8D8D8" stroke-miterlimit="10"/>
<path d="M909.553 1721.32C914.571 1738.79 905.635 1757.69 892.681 1770.45C879.727 1783.2 863.145 1791.46 847.902 1801.38C832.659 1811.3 817.926 1823.94 812.159 1841.19C801.904 1871.87 822.844 1903.1 832.829 1933.88C847.942 1980.44 836.168 2034.72 803.123 2070.83" stroke="#D8D8D8" stroke-miterlimit="10"/>
<path d="M921.408 1724.93C926.425 1742.4 917.49 1761.3 904.536 1774.06C891.582 1786.81 875 1795.07 859.757 1804.99C844.514 1814.91 829.781 1827.55 824.014 1844.8C813.758 1875.48 834.698 1906.71 844.684 1937.49C859.797 1984.05 848.022 2038.33 814.978 2074.44" stroke="#D8D8D8" stroke-miterlimit="10"/>
<path d="M933.262 1728.54C938.28 1746.01 929.344 1764.91 916.39 1777.66C903.436 1790.42 886.854 1798.68 871.611 1808.6C856.368 1818.51 841.635 1831.16 835.868 1848.41C825.613 1879.09 846.553 1910.32 856.538 1941.1C871.651 1987.65 859.877 2041.94 826.832 2078.05" stroke="#D8D8D8" stroke-miterlimit="10"/>
<path d="M945.127 1732.15C950.144 1749.62 941.208 1768.52 928.254 1781.27C915.301 1794.03 898.718 1802.29 883.475 1812.21C868.233 1822.12 853.5 1834.77 847.732 1852.02C837.477 1882.7 858.417 1913.93 868.403 1944.7C883.515 1991.26 871.741 2045.55 838.696 2081.66" stroke="#D8D8D8" stroke-miterlimit="10"/>
<path d="M326.557 1334.92C324.018 1352.93 308.165 1366.54 291.133 1372.91C274.101 1379.28 255.6 1380.07 237.638 1382.91C219.677 1385.76 201.076 1391.31 188.781 1404.7C166.912 1428.55 173.319 1465.6 169.91 1497.77C164.743 1546.45 131.878 1591.23 86.9991 1610.74" stroke="#D8D8D8" stroke-miterlimit="10"/>
<path d="M335.922 1343.05C333.383 1361.05 317.531 1374.67 300.498 1381.04C283.466 1387.41 264.965 1388.2 247.004 1391.04C229.042 1393.89 210.441 1399.43 198.147 1412.83C176.277 1436.68 182.684 1473.73 179.275 1505.9C174.108 1554.58 141.243 1599.36 96.3643 1618.87" stroke="#D8D8D8" stroke-miterlimit="10"/>
<path d="M345.278 1351.18C342.74 1369.18 326.887 1382.8 309.855 1389.17C292.823 1395.54 274.322 1396.32 256.36 1399.16C238.398 1402.01 219.797 1407.56 207.503 1420.96C185.633 1444.8 192.04 1481.85 188.632 1514.03C183.464 1562.71 150.6 1607.48 105.721 1627" stroke="#D8D8D8" stroke-miterlimit="10"/>
<path d="M354.644 1359.3C352.105 1377.31 336.252 1390.93 319.22 1397.29C302.188 1403.66 283.687 1404.45 265.725 1407.29C247.764 1410.14 229.162 1415.69 216.868 1429.09C194.998 1452.93 201.405 1489.98 197.997 1522.15C192.829 1570.83 159.965 1615.61 115.086 1635.13" stroke="#D8D8D8" stroke-miterlimit="10"/>
</g>
<g opacity="0.5" clip-path="url(#clip3)">
<path opacity="0.2" d="M219.967 4436.91C227.493 4415.29 225.424 4391.56 221.446 4369.02C217.468 4346.48 211.651 4324.03 211.951 4301.14C212.451 4263.76 230.362 4226.93 259.608 4203.65C288.855 4180.38 328.896 4171.21 365.299 4179.68C388.318 4185.04 409.958 4197.01 433.577 4197.98C457.825 4198.98 480.865 4188.27 504.733 4183.89C561.407 4173.48 622.148 4202 653.864 4250.12C685.579 4298.24 688.587 4362.78 665.378 4415.53C642.169 4468.28 594.591 4508.74 540.097 4527.48C485.612 4546.22 424.971 4544.05 370.307 4525.83C343.499 4516.89 317.981 4504.24 290.804 4496.53C263.627 4488.82 233.601 4486.41 207.763 4497.85L170.24 4478.03C193.11 4477.41 212.431 4458.51 219.967 4436.91Z" fill="url(#paint9_linear)"/>
<path opacity="0.2" d="M669.396 4565.36C676.933 4543.74 674.854 4520.01 670.875 4497.47C666.897 4474.93 661.08 4452.48 661.38 4429.59C661.88 4392.21 679.791 4355.38 709.038 4332.1C738.284 4308.83 778.325 4299.66 814.728 4308.13C837.747 4313.49 859.387 4325.46 883.006 4326.43C907.255 4327.43 930.294 4316.71 954.163 4312.34C1010.84 4301.93 1071.58 4330.45 1103.29 4378.57C1135 4426.69 1138.01 4491.23 1114.8 4543.98C1091.59 4596.73 1044.01 4637.19 989.516 4655.93C935.032 4674.67 874.39 4672.5 819.726 4654.27C792.918 4645.34 767.4 4632.69 740.223 4624.98C713.036 4617.27 683.02 4614.86 657.182 4626.3L619.659 4606.48C642.539 4605.87 661.86 4586.97 669.396 4565.36Z" fill="url(#paint10_linear)"/>
<path opacity="0.2" d="M49.7368 3883.34C57.2732 3861.72 55.1942 3837.99 51.216 3815.45C47.2379 3792.91 41.4206 3770.47 41.7205 3747.57C42.2202 3710.19 60.1319 3673.36 89.3782 3650.08C118.624 3626.8 158.666 3617.63 195.069 3626.1C218.088 3631.46 239.728 3643.44 263.347 3644.41C287.595 3645.41 310.634 3634.69 334.503 3630.31C391.167 3619.9 451.918 3648.42 483.623 3696.54C515.338 3744.66 518.347 3809.21 495.138 3861.96C471.929 3914.71 424.351 3955.17 369.857 3973.92C315.372 3992.65 254.731 3990.48 200.066 3972.26C173.259 3963.32 147.741 3950.67 120.564 3942.96C93.3763 3935.26 63.3604 3932.85 37.5225 3944.28L6.10352e-05 3924.46C22.8793 3923.84 42.2003 3904.94 49.7368 3883.34Z" fill="url(#paint11_linear)"/>
<path d="M673.555 4055.03C669.405 4036.67 680.916 4018.43 699.266 4014.28C717.617 4010.13 735.857 4021.64 740.007 4040C744.157 4058.35 732.646 4076.59 714.295 4080.75C695.945 4084.9 677.705 4073.38 673.555 4055.03Z" fill="#F8E6CB"/>
<path d="M297.109 4159.48C292.272 4155.2 291.821 4147.8 296.101 4142.96C300.381 4138.13 307.772 4137.68 312.609 4141.96C317.446 4146.24 317.897 4153.63 313.617 4158.47C309.337 4163.31 301.946 4163.76 297.109 4159.48Z" fill="#F8E6CB"/>
<path d="M798.796 4288.17C798.796 4291.4 801.414 4294.02 804.643 4294.02C807.871 4294.02 810.49 4291.4 810.49 4288.17C810.49 4284.94 807.871 4282.32 804.643 4282.32C801.414 4282.32 798.796 4284.94 798.796 4288.17Z" fill="#F8E6CB"/>
<path d="M243.475 4105.28C243.475 4108.5 246.094 4111.12 249.323 4111.12C252.551 4111.12 255.17 4108.5 255.17 4105.28C255.17 4102.05 252.551 4099.43 249.323 4099.43C246.094 4099.43 243.475 4102.05 243.475 4105.28Z" fill="#F8E6CB"/>
<path d="M813.469 3879.58C771.928 3879.53 730.748 3898.66 703.99 3930.46C680.791 3958.03 668.837 3993.24 648.936 4023.27C629.035 4053.32 595.421 4079.66 559.998 4073.06C535.679 4068.53 516.348 4049.13 504.913 4027.19C493.479 4005.26 488.521 3980.64 482.404 3956.66C476.277 3932.69 468.501 3908.35 452.658 3889.35C432.567 3865.26 399.953 3852.27 368.807 3855.92" stroke="#D8D8D8" stroke-miterlimit="10"/>
<path d="M799.556 3878.06C760.614 3878.01 722.012 3895.96 696.924 3925.75C675.174 3951.59 663.969 3984.6 645.318 4012.76C626.657 4040.92 595.152 4065.61 561.947 4059.43C539.148 4055.18 521.026 4036.99 510.311 4016.43C499.586 3995.86 494.949 3972.78 489.211 3950.3C483.474 3927.83 476.177 3905.01 461.324 3887.21C442.493 3864.63 411.917 3852.45 382.721 3855.88" stroke="#D8D8D8" stroke-miterlimit="10"/>
<path d="M785.642 3876.54C749.299 3876.5 713.266 3893.24 689.867 3921.05C669.566 3945.16 659.111 3975.98 641.699 4002.25C624.287 4028.53 594.881 4051.58 563.896 4045.8C542.616 4041.84 525.713 4024.86 515.708 4005.67C505.703 3986.47 501.375 3964.94 496.017 3943.96C490.66 3922.99 483.853 3901.7 469.99 3885.08C452.418 3864.01 423.881 3852.64 396.634 3855.84" stroke="#D8D8D8" stroke-miterlimit="10"/>
<path d="M771.729 3875.03C737.984 3874.99 704.53 3890.54 682.8 3916.35C663.959 3938.75 654.244 3967.35 638.081 3991.74C621.919 4016.14 594.612 4037.54 565.845 4032.18C546.094 4028.5 530.392 4012.75 521.106 3994.92C511.82 3977.11 507.792 3957.1 502.825 3937.64C497.847 3918.16 491.53 3898.39 478.666 3882.96C462.354 3863.39 435.856 3852.84 410.558 3855.81" stroke="#D8D8D8" stroke-miterlimit="10"/>
<path d="M757.814 3873.51C726.669 3873.47 695.794 3887.82 675.743 3911.65C658.351 3932.32 649.395 3958.72 634.472 3981.23C619.549 4003.75 594.351 4023.5 567.804 4018.56C549.572 4015.16 535.079 4000.62 526.513 3984.16C517.937 3967.72 514.229 3949.26 509.641 3931.29C505.053 3913.31 499.216 3895.07 487.341 3880.83C472.278 3862.77 447.83 3853.03 424.481 3855.77" stroke="#D8D8D8" stroke-miterlimit="10"/>
<path d="M596.26 4464.14C603.137 4439.05 608.145 4411.7 598.539 4387.53C585.945 4355.86 551.011 4338.11 517.177 4334.05C483.343 4329.98 449.269 4336.7 415.285 4339.29C381.301 4341.88 344.908 4339.64 316.891 4320.21C278.049 4293.28 265.295 4240.79 230.242 4209.07C201.016 4182.63 156.896 4173.9 119.804 4187.25" stroke="#D8D8D8" stroke-miterlimit="10"/>
<path d="M570.522 4464.14C577.029 4440.41 581.767 4414.53 572.681 4391.67C560.767 4361.7 527.723 4344.92 495.718 4341.08C463.703 4337.23 431.478 4343.59 399.333 4346.04C367.188 4348.49 332.754 4346.37 306.256 4327.99C269.504 4302.51 257.449 4252.86 224.285 4222.86C196.638 4197.84 154.898 4189.59 119.814 4202.21" stroke="#D8D8D8" stroke-miterlimit="10"/>
<path d="M544.784 4464.14C550.911 4441.76 555.389 4417.37 546.813 4395.81C535.578 4367.55 504.423 4351.73 474.237 4348.11C444.051 4344.48 413.665 4350.48 383.35 4352.78C353.034 4355.09 320.569 4353.09 295.591 4335.76C260.937 4311.74 249.572 4264.92 218.307 4236.62C192.239 4213.03 152.888 4205.25 119.803 4217.16" stroke="#D8D8D8" stroke-miterlimit="10"/>
<path d="M519.046 4464.14C524.804 4443.11 529.012 4420.2 520.955 4399.94C510.4 4373.4 481.134 4358.53 452.777 4355.14C424.421 4351.73 395.874 4357.35 367.397 4359.52C338.921 4361.69 308.425 4359.81 284.956 4343.54C252.401 4320.96 241.726 4276.98 212.35 4250.41C187.862 4228.25 150.889 4220.94 119.814 4232.12" stroke="#D8D8D8" stroke-miterlimit="10"/>
<path d="M493.309 4464.14C498.696 4444.46 502.625 4423.03 495.098 4404.08C485.233 4379.25 457.846 4365.34 431.318 4362.16C404.79 4358.97 378.083 4364.24 351.446 4366.27C324.808 4368.3 296.271 4366.54 274.312 4351.32C243.856 4330.2 233.861 4289.05 206.384 4264.19C183.474 4243.45 148.881 4236.61 119.814 4247.08" stroke="#D8D8D8" stroke-miterlimit="10"/>
<path d="M909.553 4091.32C914.571 4108.79 905.635 4127.69 892.681 4140.45C879.727 4153.2 863.145 4161.46 847.902 4171.38C832.659 4181.3 817.926 4193.94 812.159 4211.19C801.904 4241.87 822.844 4273.11 832.829 4303.88C847.942 4350.44 836.168 4404.72 803.123 4440.84" stroke="#D8D8D8" stroke-miterlimit="10"/>
<path d="M921.408 4094.93C926.425 4112.4 917.49 4131.3 904.536 4144.06C891.582 4156.81 875 4165.07 859.757 4174.99C844.514 4184.91 829.781 4197.55 824.014 4214.8C813.758 4245.48 834.698 4276.72 844.684 4307.49C859.797 4354.05 848.022 4408.33 814.978 4444.45" stroke="#D8D8D8" stroke-miterlimit="10"/>
<path d="M933.262 4098.54C938.28 4116.01 929.344 4134.91 916.39 4147.67C903.436 4160.42 886.854 4168.68 871.611 4178.6C856.368 4188.52 841.635 4201.16 835.868 4218.41C825.613 4249.09 846.553 4280.32 856.538 4311.1C871.651 4357.66 859.877 4411.94 826.832 4448.05" stroke="#D8D8D8" stroke-miterlimit="10"/>
<path d="M945.127 4102.15C950.144 4119.62 941.208 4138.52 928.254 4151.27C915.301 4164.03 898.718 4172.29 883.475 4182.21C868.233 4192.12 853.5 4204.77 847.732 4222.02C837.477 4252.7 858.417 4283.93 868.403 4314.71C883.515 4361.26 871.741 4415.55 838.696 4451.66" stroke="#D8D8D8" stroke-miterlimit="10"/>
<path d="M326.557 3704.92C324.018 3722.93 308.165 3736.54 291.133 3742.91C274.101 3749.28 255.6 3750.07 237.638 3752.91C219.677 3755.76 201.076 3761.31 188.781 3774.7C166.912 3798.55 173.319 3835.6 169.91 3867.77C164.743 3916.45 131.878 3961.23 86.9991 3980.75" stroke="#D8D8D8" stroke-miterlimit="10"/>
<path d="M335.922 3713.05C333.383 3731.06 317.531 3744.67 300.498 3751.04C283.466 3757.41 264.965 3758.2 247.004 3761.04C229.042 3763.89 210.441 3769.44 198.147 3782.83C176.277 3806.68 182.684 3843.73 179.275 3875.9C174.108 3924.58 141.243 3969.36 96.3643 3988.87" stroke="#D8D8D8" stroke-miterlimit="10"/>
<path d="M345.278 3721.18C342.74 3739.18 326.887 3752.8 309.855 3759.17C292.823 3765.54 274.322 3766.33 256.36 3769.17C238.398 3772.02 219.797 3777.56 207.503 3790.96C185.633 3814.81 192.04 3851.86 188.632 3884.03C183.464 3932.71 150.6 3977.49 105.721 3997" stroke="#D8D8D8" stroke-miterlimit="10"/>
<path d="M354.644 3729.31C352.105 3747.31 336.252 3760.93 319.22 3767.3C302.188 3773.67 283.687 3774.45 265.725 3777.29C247.764 3780.14 229.162 3785.69 216.868 3799.09C194.998 3822.93 201.405 3859.98 197.997 3892.16C192.829 3940.84 159.965 3985.61 115.086 4005.13" stroke="#D8D8D8" stroke-miterlimit="10"/>
</g>
<defs>
<linearGradient id="paint0_linear" x1="759.432" y1="735.553" x2="1269.77" y2="735.553" gradientUnits="userSpaceOnUse">
<stop stop-color="#D1D5DE"/>
<stop offset="1" stop-color="#DBDBDB"/>
</linearGradient>
<linearGradient id="paint1_linear" x1="310" y1="864.012" x2="820.338" y2="864.012" gradientUnits="userSpaceOnUse">
<stop stop-color="#D1D5DE"/>
<stop offset="1" stop-color="#DBDBDB"/>
</linearGradient>
<linearGradient id="paint2_linear" x1="929.662" y1="181.986" x2="1440" y2="181.986" gradientUnits="userSpaceOnUse">
<stop stop-color="#D1D5DE"/>
<stop offset="1" stop-color="#DBDBDB"/>
</linearGradient>
<linearGradient id="paint3_linear" x1="759.432" y1="3184.55" x2="1269.77" y2="3184.55" gradientUnits="userSpaceOnUse">
<stop stop-color="#D1D5DE"/>
<stop offset="1" stop-color="#DBDBDB"/>
</linearGradient>
<linearGradient id="paint4_linear" x1="310" y1="3313.01" x2="820.338" y2="3313.01" gradientUnits="userSpaceOnUse">
<stop stop-color="#D1D5DE"/>
<stop offset="1" stop-color="#DBDBDB"/>
</linearGradient>
<linearGradient id="paint5_linear" x1="929.662" y1="2630.99" x2="1440" y2="2630.99" gradientUnits="userSpaceOnUse">
<stop stop-color="#D1D5DE"/>
<stop offset="1" stop-color="#DBDBDB"/>
</linearGradient>
<linearGradient id="paint6_linear" x1="680.568" y1="1988.55" x2="170.23" y2="1988.55" gradientUnits="userSpaceOnUse">
<stop stop-color="#D1D5DE"/>
<stop offset="1" stop-color="#DBDBDB"/>
</linearGradient>
<linearGradient id="paint7_linear" x1="1130" y1="2117.01" x2="619.662" y2="2117.01" gradientUnits="userSpaceOnUse">
<stop stop-color="#D1D5DE"/>
<stop offset="1" stop-color="#DBDBDB"/>
</linearGradient>
<linearGradient id="paint8_linear" x1="510.338" y1="1434.99" x2="3.93325e-05" y2="1434.99" gradientUnits="userSpaceOnUse">
<stop stop-color="#D1D5DE"/>
<stop offset="1" stop-color="#DBDBDB"/>
</linearGradient>
<linearGradient id="paint9_linear" x1="680.568" y1="4358.55" x2="170.23" y2="4358.55" gradientUnits="userSpaceOnUse">
<stop stop-color="#D1D5DE"/>
<stop offset="1" stop-color="#DBDBDB"/>
</linearGradient>
<linearGradient id="paint10_linear" x1="1130" y1="4487.01" x2="619.662" y2="4487.01" gradientUnits="userSpaceOnUse">
<stop stop-color="#D1D5DE"/>
<stop offset="1" stop-color="#DBDBDB"/>
</linearGradient>
<linearGradient id="paint11_linear" x1="510.338" y1="3804.99" x2="3.93325e-05" y2="3804.99" gradientUnits="userSpaceOnUse">
<stop stop-color="#D1D5DE"/>
<stop offset="1" stop-color="#DBDBDB"/>
</linearGradient>
<clipPath id="clip0">
<rect width="1130" height="1046" fill="white" transform="translate(310)"/>
</clipPath>
<clipPath id="clip1">
<rect width="1130" height="1046" fill="white" transform="translate(310 2449)"/>
</clipPath>
<clipPath id="clip2">
<rect width="1130" height="1046" fill="white" transform="matrix(-1 0 0 1 1130 1253)"/>
</clipPath>
<clipPath id="clip3">
<rect width="1130" height="1046" fill="white" transform="matrix(-1 0 0 1 1130 3623)"/>
</clipPath>
</defs>
</svg>
