<svg width="814" height="466" viewBox="0 0 814 466" fill="none" xmlns="http://www.w3.org/2000/svg">
<path opacity="0.2" d="M764.263 260.338C756.727 238.723 758.806 214.989 762.784 192.454C766.762 169.909 772.579 147.465 772.28 124.57C771.78 87.1892 753.868 50.358 724.622 27.0836C695.376 3.79912 655.334 -5.36869 618.931 3.09928C595.912 8.458 574.272 20.4351 550.653 21.4049C526.405 22.4047 503.366 11.6872 479.497 7.30828C422.833 -3.09924 362.082 25.4239 330.377 73.5424C298.662 121.661 295.653 186.206 318.862 238.963C342.071 291.71 389.649 332.171 444.143 350.916C498.628 369.652 559.269 367.482 613.934 349.257C640.741 340.319 666.259 327.672 693.436 319.964C720.624 312.255 750.64 309.846 776.478 321.283L814 301.458C791.121 300.838 771.8 281.943 764.263 260.338Z" fill="url(#paint0_linear)"/>
<path d="M140.445 432.027C144.595 413.673 133.084 395.428 114.734 391.277C96.3834 387.126 78.1432 398.64 73.993 416.995C69.8429 435.349 81.3543 453.594 99.7046 457.745C118.055 461.896 136.295 450.382 140.445 432.027Z" fill="#F8E6CB"/>
<path d="M0.53125 256.579C42.0718 256.529 83.2525 275.664 110.01 307.457C133.209 335.03 145.163 370.242 165.064 400.274C184.965 430.317 218.579 456.661 254.002 450.062C278.321 445.534 297.652 426.128 309.087 404.193C320.521 382.259 325.479 357.635 331.596 333.66C337.723 309.686 345.499 285.352 361.342 266.346C381.433 242.262 414.047 229.265 445.193 232.924" stroke="#D8D8D8" stroke-miterlimit="10"/>
<path d="M14.4448 255.059C53.3866 255.009 91.9884 272.955 117.077 302.748C138.826 328.592 150.031 361.604 168.682 389.757C187.344 417.92 218.849 442.614 252.053 436.426C274.853 432.177 292.974 413.991 303.689 393.426C314.414 372.861 319.052 349.776 324.789 327.302C330.527 304.827 337.823 282.013 352.676 264.207C371.507 241.632 402.083 229.445 431.279 232.884" stroke="#D8D8D8" stroke-miterlimit="10"/>
<path d="M28.3584 253.539C64.7014 253.499 100.734 270.235 124.133 298.049C144.434 322.163 154.889 352.976 172.301 379.249C189.713 405.533 219.119 428.578 250.104 422.799C271.384 418.84 288.287 401.864 298.292 382.669C308.297 363.473 312.625 341.938 317.983 320.963C323.34 299.988 330.147 278.703 344.01 262.077C361.582 241.012 390.119 229.635 417.366 232.844" stroke="#D8D8D8" stroke-miterlimit="10"/>
<path d="M42.2715 252.03C76.0157 251.99 109.47 267.536 131.2 293.35C150.041 315.745 159.756 344.348 175.919 368.742C192.081 393.136 219.388 414.541 248.155 409.182C267.906 405.503 283.608 389.747 292.894 371.921C302.18 354.105 306.208 334.1 311.175 314.635C316.153 295.159 322.47 275.394 335.334 259.958C351.646 240.393 378.144 229.835 403.442 232.814" stroke="#D8D8D8" stroke-miterlimit="10"/>
<path d="M56.1851 250.51C87.3305 250.47 118.206 264.817 138.257 288.651C155.648 309.316 164.604 335.72 179.527 358.234C194.45 380.749 219.648 400.504 246.196 395.555C264.427 392.156 278.921 377.62 287.487 361.164C296.063 344.718 299.771 326.262 304.359 308.286C308.947 290.311 314.784 272.065 326.658 257.828C341.721 239.773 366.17 230.025 389.519 232.774" stroke="#D8D8D8" stroke-miterlimit="10"/>
<path d="M487.443 81.9204C489.982 99.9261 505.835 113.543 522.867 119.911C539.899 126.28 558.4 127.07 576.362 129.909C594.323 132.758 612.924 138.307 625.219 151.704C647.088 175.548 640.681 212.599 644.09 244.771C649.257 293.45 682.122 338.229 727.001 357.744" stroke="#D8D8D8" stroke-miterlimit="10"/>
<path d="M478.078 90.0485C480.616 108.054 496.469 121.671 513.501 128.039C530.533 134.408 549.034 135.198 566.996 138.037C584.957 140.886 603.559 146.435 615.853 159.832C637.723 183.676 631.316 220.727 634.724 252.9C639.892 301.578 672.756 346.357 717.635 365.873" stroke="#D8D8D8" stroke-miterlimit="10"/>
<path d="M468.722 98.1765C471.261 116.182 487.114 129.799 504.146 136.167C521.178 142.536 539.679 143.326 557.64 146.165C575.602 149.014 594.203 154.563 606.498 167.96C628.367 191.804 621.96 228.855 625.369 261.028C630.536 309.706 663.401 354.485 708.28 374.001" stroke="#D8D8D8" stroke-miterlimit="10"/>
<path d="M459.356 106.305C461.895 124.31 477.748 137.927 494.78 144.295C511.812 150.664 530.313 151.454 548.275 154.293C566.236 157.142 584.838 162.691 597.132 176.088C619.002 199.932 612.595 236.983 616.003 269.156C621.171 317.834 654.035 362.613 698.914 382.129" stroke="#D8D8D8" stroke-miterlimit="10"/>
<defs>
<linearGradient id="paint0_linear" x1="303.662" y1="181.987" x2="814" y2="181.987" gradientUnits="userSpaceOnUse">
<stop stop-color="#D1D5DE"/>
<stop offset="1" stop-color="#DBDBDB"/>
</linearGradient>
</defs>
</svg>
