<svg width="814" height="466" viewBox="0 0 814 466" fill="none" xmlns="http://www.w3.org/2000/svg">
<path opacity="0.2" d="M49.7368 260.338C57.2732 238.723 55.1942 214.989 51.216 192.454C47.2379 169.909 41.4206 147.465 41.7205 124.57C42.2202 87.1892 60.1319 50.358 89.3782 27.0836C118.624 3.79912 158.666 -5.36869 195.069 3.09928C218.088 8.458 239.728 20.4351 263.347 21.4049C287.595 22.4047 310.634 11.6872 334.503 7.30828C391.167 -3.09924 451.918 25.4239 483.623 73.5424C515.338 121.661 518.347 186.206 495.138 238.963C471.929 291.71 424.351 332.171 369.857 350.916C315.372 369.652 254.731 367.482 200.066 349.257C173.259 340.319 147.741 327.672 120.564 319.964C93.3763 312.255 63.3604 309.846 37.5225 321.283L6.10352e-05 301.458C22.8793 300.838 42.2003 281.943 49.7368 260.338Z" fill="url(#paint0_linear)"/>
<path d="M673.555 432.027C669.405 413.673 680.916 395.428 699.266 391.277C717.617 387.126 735.857 398.64 740.007 416.995C744.157 435.349 732.646 453.594 714.295 457.745C695.945 461.896 677.705 450.382 673.555 432.027Z" fill="#F8E6CB"/>
<path d="M813.469 256.579C771.928 256.529 730.748 275.664 703.99 307.457C680.791 335.03 668.837 370.242 648.936 400.274C629.035 430.317 595.421 456.661 559.998 450.062C535.679 445.534 516.348 426.128 504.913 404.193C493.479 382.259 488.521 357.635 482.404 333.66C476.277 309.686 468.501 285.352 452.658 266.346C432.567 242.262 399.953 229.265 368.807 232.924" stroke="#D8D8D8" stroke-miterlimit="10"/>
<path d="M799.555 255.059C760.613 255.009 722.012 272.955 696.923 302.748C675.174 328.591 663.969 361.604 645.318 389.757C626.656 417.92 595.151 442.614 561.947 436.426C539.147 432.177 521.026 413.991 510.311 393.426C499.586 372.861 494.948 349.776 489.211 327.302C483.473 304.827 476.177 282.013 461.324 264.207C442.493 241.632 411.917 229.445 382.721 232.884" stroke="#D8D8D8" stroke-miterlimit="10"/>
<path d="M785.642 253.539C749.299 253.499 713.266 270.235 689.867 298.049C669.566 322.163 659.111 352.976 641.699 379.249C624.287 405.533 594.881 428.578 563.896 422.799C542.616 418.84 525.713 401.864 515.708 382.669C505.703 363.473 501.375 341.938 496.017 320.963C490.66 299.988 483.853 278.703 469.99 262.077C452.418 241.012 423.881 229.635 396.634 232.844" stroke="#D8D8D8" stroke-miterlimit="10"/>
<path d="M771.729 252.03C737.984 251.99 704.53 267.536 682.8 293.35C663.959 315.745 654.244 344.348 638.081 368.742C621.919 393.136 594.612 414.541 565.845 409.182C546.094 405.503 530.392 389.747 521.106 371.921C511.82 354.105 507.792 334.1 502.825 314.635C497.847 295.159 491.53 275.394 478.666 259.958C462.354 240.393 435.856 229.835 410.558 232.814" stroke="#D8D8D8" stroke-miterlimit="10"/>
<path d="M757.815 250.51C726.67 250.47 695.794 264.817 675.743 288.651C658.352 309.316 649.396 335.72 634.473 358.234C619.55 380.749 594.352 400.504 567.804 395.556C549.573 392.156 535.079 377.62 526.513 361.164C517.937 344.718 514.229 326.262 509.641 308.286C505.053 290.311 499.216 272.065 487.342 257.828C472.279 239.773 447.83 230.025 424.481 232.774" stroke="#D8D8D8" stroke-miterlimit="10"/>
<path d="M326.557 81.9204C324.018 99.9261 308.165 113.543 291.133 119.911C274.101 126.28 255.6 127.07 237.638 129.909C219.677 132.758 201.076 138.307 188.781 151.704C166.912 175.548 173.319 212.599 169.91 244.772C164.743 293.45 131.878 338.229 86.9991 357.744" stroke="#D8D8D8" stroke-miterlimit="10"/>
<path d="M335.922 90.0485C333.384 108.054 317.531 121.671 300.499 128.039C283.467 134.408 264.966 135.198 247.004 138.037C229.043 140.886 210.441 146.435 198.147 159.832C176.277 183.676 182.684 220.727 179.276 252.9C174.108 301.578 141.244 346.357 96.3648 365.873" stroke="#D8D8D8" stroke-miterlimit="10"/>
<path d="M345.278 98.1766C342.739 116.182 326.886 129.799 309.854 136.167C292.822 142.536 274.321 143.326 256.36 146.165C238.398 149.014 219.797 154.563 207.502 167.96C185.633 191.804 192.04 228.855 188.631 261.028C183.464 309.706 150.599 354.485 105.72 374.001" stroke="#D8D8D8" stroke-miterlimit="10"/>
<path d="M354.644 106.305C352.105 124.31 336.252 137.927 319.22 144.296C302.188 150.664 283.687 151.454 265.725 154.293C247.764 157.142 229.162 162.691 216.868 176.088C194.998 199.932 201.405 236.983 197.997 269.156C192.829 317.834 159.965 362.613 115.086 382.129" stroke="#D8D8D8" stroke-miterlimit="10"/>
<defs>
<linearGradient id="paint0_linear" x1="510.338" y1="181.987" x2="3.93325e-05" y2="181.987" gradientUnits="userSpaceOnUse">
<stop stop-color="#D1D5DE"/>
<stop offset="1" stop-color="#DBDBDB"/>
</linearGradient>
</defs>
</svg>
