<svg width="141" height="157" fill="none" xmlns="http://www.w3.org/2000/svg"><circle cx="60" cy="97" r="60" fill="#ECF0F7"/><circle cx="101" cy="63" r="40" fill="#F7F1F6"/><g clip-path="url(#clip0)"><path d="M74.942 6.9a9.636 9.636 0 00-5.902.824 6.164 6.164 0 00-7.46.72l-6.553 6.135v-.535c0-5.52-4.476-9.996-9.998-9.996a5.998 5.998 0 00-5.997 5.998v19.583l-4.895 5.309a7.95 7.95 0 00-2.116 5.526c-.039 6.97.475 13.934 1.54 20.822.043.158.106.309.188.45l-3.264 9.18a7.907 7.907 0 003.027 9.266l1.143.776a8.015 8.015 0 003.03 9.198L70.06 112.35a2 2 0 01.87 1.651A5.998 5.998 0 0076.929 120h29.058a5.952 5.952 0 004.683-2.257 6.017 6.017 0 001.136-5.163l-2.919-10.797a47.544 47.544 0 01-.896-14.375c1.648-20.896-12.361-35.991-15.914-38.614-6.536-4.819-11.411-9.842-13.38-13.783-2.948-5.914-.96-9.96.961-13.87 1.612-3.282 3.28-6.673.913-10.23a8.798 8.798 0 00-5.628-4.01zM45.03 8.047a5.998 5.998 0 015.998 5.998v4.28l-7.997 7.486V10.046a1.996 1.996 0 011.998-2zM36.02 40.41a3.969 3.969 0 011.057-2.761l5.277-5.733c.049-.04.093-.084.136-.13L54.233 20.8a2.04 2.04 0 00.31-.292l9.821-9.198a2.017 2.017 0 012.813 0l.136-.136c.049.057.101.109.156.159l-.126.161a5.998 5.998 0 01-.136 8.278l-7.864 7.55-11.073 9.974a3.89 3.89 0 00-1.05 2.839 9.995 9.995 0 00-8.122 6.544l-2.51 7.06c-.401-4.916-.53-10.481-.567-13.328zm15.18-.372l5.779-5.199a32.351 32.351 0 00.19 5.199h-5.968zM34.246 72.28l8.622-24.262a6.02 6.02 0 015.693-3.981h17.158c.415.003.82.133 1.157.372l10.35 7.335a1.526 1.526 0 01.446 2.03c-.07.117-.162.232-.246.347l-3.248-2.323a9.925 9.925 0 00-5.798-1.864H52.644a9.997 9.997 0 00-9.412 6.672L36.034 77.06l-.26-.176a3.92 3.92 0 01-1.528-4.605zm41.83-52.877c-2.02 4.107-4.783 9.734-.948 17.42 3.066 6.145 10.452 12.171 14.583 15.212 2.655 1.954 15.811 15.91 14.3 35.083a51.563 51.563 0 001 15.656l2.919 10.798a2 2 0 01-1.944 2.447H76.918a2 2 0 01-2-1.999 6 6 0 00-2.599-4.951L39.947 86.874a4.01 4.01 0 01-1.51-4.634l8.564-24.314a6 6 0 015.64-4h15.735c1.248 0 2.464.39 3.477 1.118l9.232 6.609c.649.472.83 1.36.42 2.049a5.97 5.97 0 01-8.443 1.904l-3.999-2.67a5.941 5.941 0 00-3.327-1.011h-6.158a5.945 5.945 0 00-5.702 4.145c-.118.373-.287.837-.476 1.36-1.44 3.978-4.799 13.288 2.823 16.345a2 2 0 101.488-3.71c-3.354-1.345-2.646-5.482-.55-11.274.211-.584.4-1.097.528-1.514a1.963 1.963 0 011.89-1.354h6.155c.393 0 .777.118 1.103.336l3.998 2.672a9.975 9.975 0 0014.099-3.177 5.574 5.574 0 00-1.53-7.354l-2.733-1.966c.146-.2.304-.4.428-.6a5.51 5.51 0 00-1.556-7.34l-10.347-7.346a6.044 6.044 0 00-3.477-1.11h-4.522a28.317 28.317 0 01.297-9.306l8.52-8.101a9.999 9.999 0 001.767-11.698 4.634 4.634 0 015.469 2.22c.991 1.492.436 2.975-1.174 6.25z" fill="#3476A4"/><path d="M67.576 84.027a2.004 2.004 0 00-1.268 3.8c4.615 1.546 16.596 7.096 16.596 14.098a2 2 0 003.999 0c-.006-11.32-18.538-17.64-19.327-17.898zm13.507-7.317a1.998 1.998 0 00-3.436.437 1.998 1.998 0 00.252 1.983c3.051 4 8.126 8.786 14.978 8.786a2 2 0 100-3.999c-5.214 0-9.285-3.921-11.794-7.208z" fill="#49A08A"/><path d="M82.953 3.152L87.657 0l2.088 3.115-4.705 3.152-2.087-3.115zm5.337 6.152l5.297-1.999 1.324 3.509-5.298 1.998-1.324-3.508zm-.097 7.626l5.654-.313.208 3.744-5.654.314-.208-3.744z" fill="#EFC579"/></g><defs><clipPath id="clip0"><path fill="#fff" transform="translate(11)" d="M0 0h120v120H0z"/></clipPath></defs></svg>