<svg width="141" height="157" fill="none" xmlns="http://www.w3.org/2000/svg"><circle cx="60" cy="97" r="60" fill="#ECF0F7"/><circle cx="101" cy="63" r="40" fill="#F7F1F6"/><path d="M104.75 95.625H94.078c7.777-8.37 12.547-19.573 12.547-31.875a46.79 46.79 0 00-9.386-28.125h15.011c9.304 0 16.875-7.571 16.875-16.875S121.554 1.875 112.25 1.875H101c-9.304 0-16.875 7.571-16.875 16.875v4.956c-7.33-4.478-15.684-6.831-24.375-6.831-25.847 0-46.875 21.028-46.875 46.875a46.907 46.907 0 0012.517 31.875h-1.267v3.75H59.75c19.644 0 35.625-15.98 35.625-35.625 0-19.644-15.98-35.625-35.625-35.625-19.644 0-35.625 15.98-35.625 35.625 0 13.931 8.04 26.021 19.723 31.875H30.723A43.15 43.15 0 0116.625 63.75c0-23.779 19.346-43.125 43.125-43.125 8.782 0 17.18 2.633 24.375 7.577v7.423h8.28c6.742 7.822 10.47 17.767 10.47 28.125 0 23.779-19.346 43.125-43.125 43.125H27.875v3.75h76.875v7.061l24.27-14.561-24.27-14.561v7.061zM27.875 63.75c0-17.576 14.299-31.875 31.875-31.875S91.625 46.174 91.625 63.75 77.326 95.625 59.75 95.625 27.875 81.326 27.875 63.75zm60-45c0-7.238 5.888-13.125 13.125-13.125h11.25c7.238 0 13.125 5.887 13.125 13.125s-5.887 13.125-13.125 13.125H87.875V18.75zM108.5 95.186l13.23 7.939-13.23 7.939v-4.189H78.112a46.935 46.935 0 0012.052-7.5H108.5v-4.189z" fill="#3476A4"/><path d="M16.625 95.625h3.75v3.75h-3.75v-3.75zm-3.75 11.25h3.75v3.75h-3.75v-3.75zm7.5 0h3.75v3.75h-3.75v-3.75z" fill="#EFC579"/><path d="M87.875 63.75c0-15.508-12.617-28.125-28.125-28.125S31.625 48.242 31.625 63.75 44.242 91.875 59.75 91.875 87.875 79.258 87.875 63.75zM46.492 74.357l-5.233 5.233a24.24 24.24 0 01-5.79-13.963h7.406v-3.75h-7.404a24.236 24.236 0 015.79-13.963l5.233 5.233 2.651-2.651-5.233-5.233a24.241 24.241 0 0113.963-5.79v7.402h3.75v-7.404a24.236 24.236 0 0113.963 5.79l-5.233 5.233 2.651 2.651 5.233-5.233a24.241 24.241 0 015.79 13.963h-7.404v3.75h7.404a24.236 24.236 0 01-5.79 13.963l-5.233-5.233-2.651 2.651 5.233 5.233a24.241 24.241 0 01-13.963 5.79v-7.404h-3.75v7.404a24.236 24.236 0 01-13.963-5.79l5.233-5.233-2.653-2.65z" fill="#AD6FA1"/><path d="M59.75 69.375c.866 0 1.676-.212 2.41-.564l3.764 3.765 2.652-2.652-3.765-3.765a5.533 5.533 0 00.564-2.409c0-2.441-1.573-4.504-3.75-5.28v-7.845h-3.75v7.845c-2.177.776-3.75 2.839-3.75 5.28a5.632 5.632 0 005.625 5.625zm0-7.5c1.033 0 1.875.842 1.875 1.875a1.878 1.878 0 01-1.875 1.875 1.878 1.878 0 01-1.875-1.875c0-1.033.842-1.875 1.875-1.875z" fill="#49A08A"/><path d="M97.25 9.375H116v3.75H97.25v-3.75zm0 7.5H116v3.75H97.25v-3.75zm15 7.5H116v3.75h-3.75v-3.75zm-7.5 0h3.75v3.75h-3.75v-3.75zm-7.5 0H101v3.75h-3.75v-3.75z" fill="#EFC579"/></svg>