<svg width="141" height="157" fill="none" xmlns="http://www.w3.org/2000/svg"><circle cx="60" cy="97" r="60" fill="#ECF0F7"/><circle cx="101" cy="63" r="40" fill="#F7F1F6"/><path d="M126.594 26.944a1.886 1.886 0 00-1.444-.694h-1.65V5.625a1.878 1.878 0 00-1.875-1.875h-37.5a1.875 1.875 0 00-1.875 1.875V26.25H80.6a1.875 1.875 0 00-1.819 2.269l1.631 7.5A1.876 1.876 0 0082.25 37.5h41.25a1.873 1.873 0 001.837-1.481l1.632-7.5a1.863 1.863 0 00-.375-1.575zM86 7.5h33.75v18.75h-13.125a1.876 1.876 0 00-1.875 1.875H101a1.877 1.877 0 00-1.875-1.875H86V7.5zm36 26.25H83.75L82.944 30H97.25a1.875 1.875 0 001.875 1.875h7.5A1.876 1.876 0 00108.5 30h14.306L122 33.75zm-71.625 45h-30a5.642 5.642 0 00-5.625 5.625v18.75a5.644 5.644 0 005.625 5.625h7.106l-1.256 5.175a1.842 1.842 0 00.337 1.612 1.877 1.877 0 001.482.713h14.662a1.875 1.875 0 001.481-.713 1.839 1.839 0 00.338-1.612l-1.256-5.175h7.106A5.644 5.644 0 0056 103.125v-18.75a5.642 5.642 0 00-5.625-5.625zm-19.95 33.75l.919-3.75h8.062l.919 3.75h-9.9zm21.825-9.375A1.876 1.876 0 0150.375 105h-30a1.877 1.877 0 01-1.875-1.875v-1.875h33.75v1.875zm0-5.625H18.5V84.375a1.875 1.875 0 011.875-1.875h30a1.875 1.875 0 011.875 1.875V97.5zM121.625 75h-15A5.644 5.644 0 00101 80.625v30a5.645 5.645 0 001.652 3.973 5.645 5.645 0 003.973 1.652h15a5.645 5.645 0 003.973-1.652 5.645 5.645 0 001.652-3.973v-30A5.644 5.644 0 00121.625 75zm-3.75 3.75A1.877 1.877 0 01116 80.625h-3.75a1.876 1.876 0 01-1.875-1.875h7.5zm5.625 31.875c0 .497-.198.974-.549 1.326a1.879 1.879 0 01-1.326.549h-15c-.497 0-.974-.198-1.326-.549a1.879 1.879 0 01-.549-1.326v-30a1.877 1.877 0 011.875-1.875 5.644 5.644 0 005.625 5.625H116a5.644 5.644 0 005.625-5.625 1.876 1.876 0 011.875 1.875v30zM42.875 3.75h-22.5a5.642 5.642 0 00-5.625 5.625v30A5.642 5.642 0 0020.375 45h22.5a5.642 5.642 0 005.625-5.625v-30a5.642 5.642 0 00-5.625-5.625zm1.875 35.625a1.875 1.875 0 01-1.875 1.875h-22.5a1.875 1.875 0 01-1.875-1.875v-30A1.875 1.875 0 0120.375 7.5h22.5a1.875 1.875 0 011.875 1.875v30z" fill="#3476A4"/><path d="M33.5 33.75h-3.75v3.75h3.75v-3.75z" fill="#3476A4"/><path d="M89.975 54.563l-4.5-.563 2.794-3.581a1.863 1.863 0 00-.169-2.475L83.056 42.9a1.875 1.875 0 00-2.475-.169L77 45.525l-.563-4.5a1.899 1.899 0 00-1.874-1.65h-7.126a1.899 1.899 0 00-1.874 1.65l-.563 4.5-3.581-2.794a1.874 1.874 0 00-2.475.169L53.9 47.944a1.864 1.864 0 00-.169 2.475L56.525 54l-4.5.563a1.899 1.899 0 00-1.65 1.874v7.126a1.899 1.899 0 001.65 1.874l4.5.563-2.794 3.581a1.863 1.863 0 00.169 2.475l5.044 5.044a1.875 1.875 0 002.475.169L65 74.475l.563 4.5a1.899 1.899 0 001.874 1.65h7.126a1.899 1.899 0 001.874-1.65l.563-4.5 3.581 2.794a1.874 1.874 0 002.475-.169l5.044-5.044a1.864 1.864 0 00.169-2.475L85.475 66l4.5-.563a1.899 1.899 0 001.65-1.874v-7.126a1.899 1.899 0 00-1.65-1.874zm-2.1 7.35l-4.444.562a1.845 1.845 0 00-1.537 1.256c-.169.45-.357.9-.563 1.331a1.836 1.836 0 00.206 1.97l2.757 3.543-2.719 2.719-3.544-2.757a1.835 1.835 0 00-1.969-.206c-.44.21-.89.398-1.35.563a1.854 1.854 0 00-1.237 1.537l-.563 4.444h-3.825l-.562-4.444a1.855 1.855 0 00-1.238-1.537 14.61 14.61 0 01-1.35-.563 1.836 1.836 0 00-1.968.206l-3.544 2.757-2.719-2.719 2.756-3.544a1.835 1.835 0 00.207-1.969 16.638 16.638 0 01-.563-1.33 1.846 1.846 0 00-1.537-1.257l-4.444-.563v-3.825l4.444-.562a1.845 1.845 0 001.537-1.256c.169-.45.356-.9.563-1.331a1.835 1.835 0 00-.206-1.97l-2.757-3.543 2.719-2.719 3.544 2.756a1.835 1.835 0 001.968.207 16.64 16.64 0 011.332-.563 1.846 1.846 0 001.256-1.537l.563-4.444h3.825l.562 4.444a1.845 1.845 0 001.256 1.537c.45.169.9.356 1.332.563a1.835 1.835 0 001.968-.206l3.544-2.757 2.719 2.719-2.757 3.544a1.835 1.835 0 00-.206 1.968c.206.432.394.882.563 1.332a1.845 1.845 0 001.537 1.256l4.444.563v3.825z" fill="#AD6FA1"/><path d="M80.375 60A9.375 9.375 0 1071 69.375 9.386 9.386 0 0080.375 60zM71 65.625a5.625 5.625 0 110-11.25 5.625 5.625 0 010 11.25z" fill="#AD6FA1"/><path d="M95.375 56.25V60h7.5a1.877 1.877 0 001.875-1.875V47.863H101v8.387h-5.625zM31.625 60v9h3.75v-7.125h11.25v-3.75H33.5A1.875 1.875 0 0031.625 60zm37.5-24.375h3.75v-11.25A1.875 1.875 0 0071 22.5H58.114v3.75h11.01v9.375zm3.75 48.75h-3.75v15A1.876 1.876 0 0071 101.25h14.954V97.5H72.875V84.375zM31.625 70.03h3.752v4h-3.752zm61.31 27.466h4.315v3.754h-4.315zm-5.625 0h4.315v3.754H87.31zM101 40.997h3.75v4.504H101zM52.25 22.511h3.875v3.704H52.25z" fill="#EFC579"/></svg>