<svg width="141" height="157" fill="none" xmlns="http://www.w3.org/2000/svg"><circle cx="60" cy="97" r="60" fill="#ECF0F7"/><circle cx="101" cy="63" r="40" fill="#F7F1F6"/><path d="M61.625 20.625h3.75v3.75h-3.75v-3.75zm48.75 45h3.75v3.75h-3.75v-3.75zm-33.75 30h3.75v3.75h-3.75v-3.75zm-15 5.625h3.75V105h-3.75v-3.75zm-30-43.125h3.75v3.75h-3.75v-3.75zm45-37.5h3.75v3.75h-3.75v-3.75zm30 30h3.75v3.75h-3.75v-3.75zm-9.375-18.75H101v3.75h-3.75v-3.75zm-56.25 0h3.75v3.75H41v-3.75zm56.25 52.5H101v3.75h-3.75v-3.75zm-56.25 0h3.75v3.75H41v-3.75z" fill="#EFC579"/><path d="M70.779 58.125a5.614 5.614 0 00-1.654 10.916v4.084h3.75v-4.097a5.612 5.612 0 00-2.096-10.903zm2.096 5.552a1.874 1.874 0 01-3.148 1.45 1.875 1.875 0 011.198-3.252H71a1.876 1.876 0 011.875 1.8v.002z" fill="#AD6FA1"/><path d="M80.375 52.845v-2.22a9.375 9.375 0 10-18.75 0v2.22a5.625 5.625 0 00-3.75 5.28v15A5.625 5.625 0 0063.5 78.75h15a5.625 5.625 0 005.625-5.625v-15a5.625 5.625 0 00-3.75-5.28zm-15-2.22a5.625 5.625 0 1111.25 0V52.5h-11.25v-1.875zm15 22.5A1.875 1.875 0 0178.5 75h-15a1.875 1.875 0 01-1.875-1.875v-15A1.875 1.875 0 0163.5 56.25h15a1.875 1.875 0 011.875 1.875v15z" fill="#AD6FA1"/><path d="M121.625 76.875a5.53 5.53 0 00-2.409.563l-4.313-4.313H97.25v-3.75h9.375v-3.75H97.25v-3.75h9.818l10.663-5.333a5.61 5.61 0 007.079.561 5.612 5.612 0 001.964-6.824A5.615 5.615 0 00116 52.5c.009.228.032.455.069.68l-9.886 4.945H97.25v-3.75h5.625v-3.75H97.25v-3.75h8.276l6.188-6.188c.751.368 1.575.56 2.411.563a5.623 5.623 0 003.977-9.602 5.619 5.619 0 00-6.13-1.22 5.628 5.628 0 00-3.472 5.197 5.53 5.53 0 00.563 2.41l-5.089 5.09H97.25a9.386 9.386 0 00-9.375-9.375v-4.849l10.716-10.713c.75.367 1.574.559 2.409.562a5.623 5.623 0 003.977-9.602 5.619 5.619 0 00-6.13-1.22 5.625 5.625 0 00-3.472 5.197c.003.835.195 1.659.563 2.41L84.124 27.346v6.403h-3.75v-5.625h-3.75v5.625h-3.75V20.28a5.625 5.625 0 10-3.75 0v13.47h-3.75v-5.625h-3.75v5.625h-3.75V19.849l-8.063-8.063a5.52 5.52 0 00.563-2.411A5.625 5.625 0 1044.75 15a5.532 5.532 0 002.41-.563l6.965 6.964V33.75a9.386 9.386 0 00-9.375 9.375h-6.724l-5.089-5.09c.367-.751.56-1.575.563-2.41a5.625 5.625 0 10-5.625 5.625 5.532 5.532 0 002.41-.563l6.187 6.188h8.278v3.75H32.821L23 58.807a5.537 5.537 0 00-2.625-.682 5.625 5.625 0 105.18 3.435l8.624-7.185H44.75v3.75h-5.625v3.75h5.625v3.75H27.875v3.75H44.75v3.75H34.372l-7.556 11.332a5.565 5.565 0 00-.816-.082 5.677 5.677 0 104.144 1.853l6.234-9.353h8.372a9.386 9.386 0 009.375 9.375v12.349l-6.966 6.963A5.543 5.543 0 0044.75 105a5.626 5.626 0 105.625 5.625 5.53 5.53 0 00-.563-2.409l8.063-8.063V86.25h3.75V97.5h3.75V86.25h3.75v16.039l11.389 7.125a5.707 5.707 0 102.004-3.171l-9.643-6.032V86.25h3.75v5.625h3.75V86.25h3.75v15h13.47a5.628 5.628 0 006.255 3.669 5.626 5.626 0 10-6.255-7.419h-9.72V86.25a9.386 9.386 0 009.375-9.375h16.099l3.214 3.216A5.53 5.53 0 00116 82.5a5.626 5.626 0 105.625-5.625zm0-26.25a1.877 1.877 0 011.839 2.24 1.874 1.874 0 01-3.714-.365 1.877 1.877 0 011.875-1.875zm-7.5-16.875a1.877 1.877 0 011.839 2.24 1.874 1.874 0 01-3.714-.365 1.877 1.877 0 011.875-1.875zM101 11.25a1.877 1.877 0 011.839 2.24 1.874 1.874 0 01-3.714-.365A1.875 1.875 0 01101 11.25zm-30 1.875a1.875 1.875 0 110 3.75 1.875 1.875 0 010-3.75zm-28.125-3.75a1.875 1.875 0 113.75 0 1.875 1.875 0 01-3.75 0zM26 35.625a1.875 1.875 0 113.751 0 1.875 1.875 0 01-3.751 0zm-5.625 30a1.875 1.875 0 110-3.751 1.875 1.875 0 010 3.751zM26 91.875a1.875 1.875 0 110-3.751 1.875 1.875 0 010 3.751zM44.75 112.5a1.875 1.875 0 110-3.751 1.875 1.875 0 010 3.751zM86 108.75a1.875 1.875 0 110 3.75 1.875 1.875 0 010-3.75zm16.875-11.25a1.877 1.877 0 011.839 2.24 1.872 1.872 0 01-1.473 1.474 1.88 1.88 0 01-1.925-.797 1.878 1.878 0 01.233-2.368 1.875 1.875 0 011.326-.549zM93.5 76.875a5.625 5.625 0 01-5.625 5.625h-33.75a5.625 5.625 0 01-5.625-5.625v-33.75a5.625 5.625 0 015.625-5.625h33.75a5.625 5.625 0 015.625 5.625v33.75zm28.125 7.5a1.877 1.877 0 01-1.839-2.24 1.874 1.874 0 013.714.365 1.877 1.877 0 01-1.875 1.875z" fill="#3476A4"/></svg>