<svg width="141" height="157" viewBox="0 0 141 157" fill="none" xmlns="http://www.w3.org/2000/svg">
<circle cx="60" cy="97" r="60" fill="#ECF0F7"/>
<circle cx="101" cy="63" r="40" fill="#F7F1F6"/>
<path d="M104.75 95.625H94.0775C101.855 87.255 106.625 76.0519 106.625 63.75C106.625 53.55 103.31 43.71 97.2387 35.625H112.25C121.554 35.625 129.125 28.0537 129.125 18.75C129.125 9.44625 121.554 1.875 112.25 1.875H101C91.6963 1.875 84.125 9.44625 84.125 18.75V23.7056C76.7956 19.2281 68.4406 16.875 59.75 16.875C33.9031 16.875 12.875 37.9031 12.875 63.75C12.875 75.6188 17.3919 86.9962 25.3925 95.625H24.125V99.375H59.75C79.3944 99.375 95.375 83.3944 95.375 63.75C95.375 44.1056 79.3944 28.125 59.75 28.125C40.1056 28.125 24.125 44.1056 24.125 63.75C24.125 77.6813 32.165 89.7712 43.8481 95.625H30.7231C21.7606 87.4575 16.625 75.885 16.625 63.75C16.625 39.9713 35.9713 20.625 59.75 20.625C68.5325 20.625 76.9306 23.2575 84.125 28.2019V35.625H92.405C99.1475 43.4475 102.875 53.3925 102.875 63.75C102.875 87.5287 83.5287 106.875 59.75 106.875H27.875V110.625H59.75H104.75V117.686L129.02 103.125L104.75 88.5638V95.625ZM27.875 63.75C27.875 46.1738 42.1737 31.875 59.75 31.875C77.3262 31.875 91.625 46.1738 91.625 63.75C91.625 81.3262 77.3262 95.625 59.75 95.625C42.1737 95.625 27.875 81.3262 27.875 63.75ZM87.875 18.75C87.875 11.5125 93.7625 5.625 101 5.625H112.25C119.488 5.625 125.375 11.5125 125.375 18.75C125.375 25.9875 119.488 31.875 112.25 31.875H87.875V18.75ZM108.5 95.1862L121.73 103.125L108.5 111.064V106.875H78.1119C82.5181 104.993 86.5719 102.446 90.1644 99.375H108.5V95.1862Z" fill="#3476A4"/>
<path d="M16.625 95.625H20.375V99.375H16.625V95.625Z" fill="#EFC579"/>
<path d="M12.875 106.875H16.625V110.625H12.875V106.875Z" fill="#EFC579"/>
<path d="M20.375 106.875H24.125V110.625H20.375V106.875Z" fill="#EFC579"/>
<path d="M87.875 63.75C87.875 48.2419 75.2581 35.625 59.75 35.625C44.2419 35.625 31.625 48.2419 31.625 63.75C31.625 79.2581 44.2419 91.875 59.75 91.875C75.2581 91.875 87.875 79.2581 87.875 63.75ZM46.4919 74.3569L41.2588 79.59C37.9831 75.7725 35.8756 70.9369 35.4688 65.6269H42.875V61.8769H35.4706C35.8775 56.565 37.985 51.7313 41.2606 47.9138L46.4938 53.1469L49.145 50.4956L43.9119 45.2625C47.7294 41.9869 52.565 39.8794 57.875 39.4725V46.875H61.625V39.4706C66.9369 39.8775 71.7706 41.985 75.5881 45.2606L70.355 50.4938L73.0062 53.145L78.2394 47.9119C81.515 51.7294 83.6225 56.565 84.0294 61.875H76.625V65.625H84.0294C83.6225 70.9369 81.515 75.7706 78.2394 79.5881L73.0062 74.355L70.355 77.0062L75.5881 82.2394C71.7706 85.515 66.935 87.6225 61.625 88.0294V80.625H57.875V88.0294C52.5631 87.6225 47.7294 85.515 43.9119 82.2394L49.145 77.0062L46.4919 74.3569Z" fill="#AD6FA1"/>
<path d="M59.75 69.375C60.6163 69.375 61.4263 69.1631 62.1594 68.8106L65.9244 72.5756L68.5756 69.9244L64.8106 66.1594C65.1631 65.4262 65.375 64.6162 65.375 63.75C65.375 61.3087 63.8019 59.2462 61.625 58.47V50.625H57.875V58.47C55.6981 59.2462 54.125 61.3087 54.125 63.75C54.125 66.8512 56.6488 69.375 59.75 69.375ZM59.75 61.875C60.7831 61.875 61.625 62.7169 61.625 63.75C61.625 64.7831 60.7831 65.625 59.75 65.625C58.7169 65.625 57.875 64.7831 57.875 63.75C57.875 62.7169 58.7169 61.875 59.75 61.875Z" fill="#49A08A"/>
<path d="M97.25 9.375H116V13.125H97.25V9.375Z" fill="#EFC579"/>
<path d="M97.25 16.875H116V20.625H97.25V16.875Z" fill="#EFC579"/>
<path d="M112.25 24.375H116V28.125H112.25V24.375Z" fill="#EFC579"/>
<path d="M104.75 24.375H108.5V28.125H104.75V24.375Z" fill="#EFC579"/>
<path d="M97.25 24.375H101V28.125H97.25V24.375Z" fill="#EFC579"/>
</svg>
