<svg width="141" height="157" viewBox="0 0 141 157" fill="none" xmlns="http://www.w3.org/2000/svg">
<circle cx="60" cy="97" r="60" fill="#ECF0F7"/>
<circle cx="101" cy="63" r="40" fill="#F7F1F6"/>
<path d="M126.594 26.9438C126.419 26.7287 126.199 26.5549 125.95 26.4349C125.7 26.315 125.427 26.2518 125.15 26.25H123.5V5.625C123.5 5.12772 123.302 4.65081 122.951 4.29917C122.599 3.94754 122.122 3.75 121.625 3.75H84.1249C83.6277 3.75 83.1508 3.94754 82.7991 4.29917C82.4475 4.65081 82.2499 5.12772 82.2499 5.625V26.25H80.5999C80.323 26.2518 80.0499 26.315 79.8003 26.4349C79.5506 26.5549 79.3307 26.7287 79.1562 26.9438C78.9787 27.1608 78.8527 27.4154 78.7877 27.6882C78.7228 27.961 78.7205 28.245 78.7812 28.5187L80.4124 36.0187C80.5027 36.4388 80.7344 36.8151 81.0689 37.0848C81.4034 37.3544 81.8203 37.501 82.2499 37.5H123.5C123.93 37.501 124.347 37.3544 124.681 37.0848C125.015 36.8151 125.247 36.4388 125.337 36.0187L126.969 28.5187C127.029 28.245 127.027 27.961 126.962 27.6882C126.897 27.4154 126.771 27.1608 126.594 26.9438ZM85.9999 7.5H119.75V26.25H106.625C106.128 26.25 105.651 26.4475 105.299 26.7992C104.947 27.1508 104.75 27.6277 104.75 28.125H101C101 27.6277 100.802 27.1508 100.451 26.7992C100.099 26.4475 99.6222 26.25 99.1249 26.25H85.9999V7.5ZM122 33.75H83.7499L82.9437 30H97.2499C97.2499 30.4973 97.4475 30.9742 97.7991 31.3258C98.1508 31.6775 98.6277 31.875 99.1249 31.875H106.625C107.122 31.875 107.599 31.6775 107.951 31.3258C108.302 30.9742 108.5 30.4973 108.5 30H122.806L122 33.75Z" fill="#3476A4"/>
<path d="M50.375 78.75H20.375C18.8845 78.7545 17.4564 79.3485 16.4024 80.4024C15.3485 81.4564 14.7545 82.8845 14.75 84.375V103.125C14.7545 104.615 15.3485 106.044 16.4024 107.098C17.4564 108.151 18.8845 108.746 20.375 108.75H27.4812L26.225 113.925C26.1522 114.202 26.1448 114.491 26.2033 114.771C26.2619 115.051 26.3849 115.313 26.5625 115.537C26.7391 115.761 26.9642 115.941 27.2209 116.065C27.4775 116.188 27.759 116.252 28.0438 116.25H42.7062C42.991 116.252 43.2725 116.188 43.5291 116.065C43.7858 115.941 44.0109 115.761 44.1875 115.537C44.3651 115.313 44.4881 115.051 44.5467 114.771C44.6052 114.491 44.5978 114.202 44.525 113.925L43.2687 108.75H50.375C51.8655 108.746 53.2936 108.151 54.3476 107.098C55.4015 106.044 55.9955 104.615 56 103.125V84.375C55.9955 82.8845 55.4015 81.4564 54.3476 80.4024C53.2936 79.3485 51.8655 78.7545 50.375 78.75ZM30.425 112.5L31.3438 108.75H39.4062L40.325 112.5H30.425ZM52.25 103.125C52.25 103.622 52.0525 104.099 51.7008 104.451C51.3492 104.802 50.8723 105 50.375 105H20.375C19.8777 105 19.4008 104.802 19.0492 104.451C18.6975 104.099 18.5 103.622 18.5 103.125V101.25H52.25V103.125ZM52.25 97.5H18.5V84.375C18.5 83.8777 18.6975 83.4008 19.0492 83.0492C19.4008 82.6975 19.8777 82.5 20.375 82.5H50.375C50.8723 82.5 51.3492 82.6975 51.7008 83.0492C52.0525 83.4008 52.25 83.8777 52.25 84.375V97.5Z" fill="#3476A4"/>
<path d="M121.625 75H106.625C105.135 75.0045 103.706 75.5985 102.652 76.6524C101.599 77.7064 101.004 79.1345 101 80.625V110.625C101.004 112.115 101.599 113.544 102.652 114.598C103.706 115.651 105.135 116.246 106.625 116.25H121.625C123.115 116.246 124.544 115.651 125.598 114.598C126.651 113.544 127.246 112.115 127.25 110.625V80.625C127.246 79.1345 126.651 77.7064 125.598 76.6524C124.544 75.5985 123.115 75.0045 121.625 75ZM117.875 78.75C117.875 79.2473 117.677 79.7242 117.326 80.0758C116.974 80.4275 116.497 80.625 116 80.625H112.25C111.753 80.625 111.276 80.4275 110.924 80.0758C110.573 79.7242 110.375 79.2473 110.375 78.75H117.875ZM123.5 110.625C123.5 111.122 123.302 111.599 122.951 111.951C122.599 112.302 122.122 112.5 121.625 112.5H106.625C106.128 112.5 105.651 112.302 105.299 111.951C104.948 111.599 104.75 111.122 104.75 110.625V80.625C104.75 80.1277 104.948 79.6508 105.299 79.2992C105.651 78.9475 106.128 78.75 106.625 78.75C106.629 80.2405 107.224 81.6686 108.277 82.7226C109.331 83.7765 110.76 84.3705 112.25 84.375H116C117.49 84.3705 118.919 83.7765 119.973 82.7226C121.026 81.6686 121.621 80.2405 121.625 78.75C122.122 78.75 122.599 78.9475 122.951 79.2992C123.302 79.6508 123.5 80.1277 123.5 80.625V110.625Z" fill="#3476A4"/>
<path d="M42.875 3.75H20.375C18.8845 3.75445 17.4564 4.34851 16.4024 5.40244C15.3485 6.45637 14.7545 7.88453 14.75 9.375V39.375C14.7545 40.8655 15.3485 42.2936 16.4024 43.3476C17.4564 44.4015 18.8845 44.9955 20.375 45H42.875C44.3655 44.9955 45.7936 44.4015 46.8476 43.3476C47.9015 42.2936 48.4955 40.8655 48.5 39.375V9.375C48.4955 7.88453 47.9015 6.45637 46.8476 5.40244C45.7936 4.34851 44.3655 3.75445 42.875 3.75ZM44.75 39.375C44.75 39.8723 44.5525 40.3492 44.2008 40.7008C43.8492 41.0525 43.3723 41.25 42.875 41.25H20.375C19.8777 41.25 19.4008 41.0525 19.0492 40.7008C18.6975 40.3492 18.5 39.8723 18.5 39.375V9.375C18.5 8.87772 18.6975 8.40081 19.0492 8.04918C19.4008 7.69754 19.8777 7.5 20.375 7.5H42.875C43.3723 7.5 43.8492 7.69754 44.2008 8.04918C44.5525 8.40081 44.75 8.87772 44.75 9.375V39.375Z" fill="#3476A4"/>
<path d="M33.5 33.75H29.75V37.5H33.5V33.75Z" fill="#3476A4"/>
<path d="M89.975 54.5625L85.475 54L88.2687 50.4187C88.5493 50.0574 88.6871 49.6055 88.656 49.1491C88.6249 48.6927 88.427 48.2637 88.1 47.9437L83.0563 42.9C82.7351 42.5752 82.3064 42.3789 81.8506 42.3478C81.3949 42.3167 80.9436 42.4531 80.5813 42.7313L77 45.525L76.4375 41.025C76.3772 40.5698 76.1541 40.1518 75.8093 39.8485C75.4646 39.5451 75.0217 39.3769 74.5625 39.375H67.4375C66.9783 39.3769 66.5354 39.5451 66.1907 39.8485C65.8459 40.1518 65.6228 40.5698 65.5625 41.025L65 45.525L61.4187 42.7313C61.0564 42.4531 60.6051 42.3167 60.1494 42.3478C59.6936 42.3789 59.2649 42.5752 58.9437 42.9L53.9 47.9437C53.573 48.2637 53.3751 48.6927 53.344 49.1491C53.3129 49.6055 53.4507 50.0574 53.7313 50.4187L56.525 54L52.025 54.5625C51.5698 54.6228 51.1518 54.8459 50.8485 55.1907C50.5451 55.5354 50.3769 55.9783 50.375 56.4375V63.5625C50.3769 64.0217 50.5451 64.4646 50.8485 64.8093C51.1518 65.1541 51.5698 65.3772 52.025 65.4375L56.525 66L53.7313 69.5813C53.4507 69.9426 53.3129 70.3945 53.344 70.8509C53.3751 71.3073 53.573 71.7363 53.9 72.0563L58.9437 77.1C59.2649 77.4248 59.6936 77.6211 60.1494 77.6522C60.6051 77.6833 61.0564 77.5469 61.4187 77.2687L65 74.475L65.5625 78.975C65.6228 79.4302 65.8459 79.8482 66.1907 80.1515C66.5354 80.4549 66.9783 80.6231 67.4375 80.625H74.5625C75.0217 80.6231 75.4646 80.4549 75.8093 80.1515C76.1541 79.8482 76.3772 79.4302 76.4375 78.975L77 74.475L80.5813 77.2687C80.9436 77.5469 81.3949 77.6833 81.8506 77.6522C82.3064 77.6211 82.7351 77.4248 83.0563 77.1L88.1 72.0563C88.427 71.7363 88.6249 71.3073 88.656 70.8509C88.6871 70.3945 88.5493 69.9426 88.2687 69.5813L85.475 66L89.975 65.4375C90.4302 65.3772 90.8482 65.1541 91.1515 64.8093C91.4549 64.4646 91.6231 64.0217 91.625 63.5625V56.4375C91.6231 55.9783 91.4549 55.5354 91.1515 55.1907C90.8482 54.8459 90.4302 54.6228 89.975 54.5625ZM87.875 61.9125L83.4313 62.475C83.0819 62.516 82.7515 62.6561 82.4791 62.8787C82.2067 63.1013 82.0036 63.3971 81.8938 63.7313C81.725 64.1813 81.5375 64.6313 81.3312 65.0625C81.1739 65.3761 81.1097 65.7281 81.1463 66.0771C81.1828 66.426 81.3186 66.7571 81.5375 67.0312L84.2938 70.575L81.575 73.2938L78.0312 70.5375C77.7571 70.3186 77.426 70.1828 77.0771 70.1463C76.7281 70.1097 76.3761 70.1739 76.0625 70.3312C75.6222 70.5413 75.1716 70.729 74.7125 70.8938C74.3824 71.0075 74.0911 71.2122 73.8722 71.4842C73.6533 71.7562 73.5156 72.0845 73.475 72.4313L72.9125 76.875H69.0875L68.525 72.4313C68.4844 72.0845 68.3467 71.7562 68.1278 71.4842C67.9089 71.2122 67.6176 71.0075 67.2875 70.8938C66.8284 70.729 66.3778 70.5413 65.9375 70.3312C65.6239 70.1739 65.2719 70.1097 64.9229 70.1463C64.574 70.1828 64.2429 70.3186 63.9688 70.5375L60.425 73.2938L57.7062 70.575L60.4625 67.0312C60.6814 66.7571 60.8172 66.426 60.8537 66.0771C60.8903 65.7281 60.8261 65.3761 60.6687 65.0625C60.4625 64.6313 60.275 64.1813 60.1063 63.7313C59.9964 63.3971 59.7933 63.1013 59.5209 62.8787C59.2485 62.6561 58.9181 62.516 58.5688 62.475L54.125 61.9125V58.0875L58.5688 57.525C58.9181 57.484 59.2485 57.3439 59.5209 57.1213C59.7933 56.8987 59.9964 56.6029 60.1063 56.2688C60.275 55.8188 60.4625 55.3687 60.6687 54.9375C60.8261 54.6239 60.8903 54.2719 60.8537 53.9229C60.8172 53.574 60.6814 53.2429 60.4625 52.9688L57.7062 49.425L60.425 46.7062L63.9688 49.4625C64.2429 49.6814 64.574 49.8172 64.9229 49.8537C65.2719 49.8903 65.6239 49.8261 65.9375 49.6687C66.3687 49.4625 66.8188 49.275 67.2688 49.1063C67.6029 48.9964 67.8987 48.7933 68.1213 48.5209C68.3439 48.2485 68.484 47.9181 68.525 47.5688L69.0875 43.125H72.9125L73.475 47.5688C73.516 47.9181 73.6561 48.2485 73.8787 48.5209C74.1013 48.7933 74.3971 48.9964 74.7313 49.1063C75.1813 49.275 75.6313 49.4625 76.0625 49.6687C76.3761 49.8261 76.7281 49.8903 77.0771 49.8537C77.426 49.8172 77.7571 49.6814 78.0312 49.4625L81.575 46.7062L84.2938 49.425L81.5375 52.9688C81.3186 53.2429 81.1828 53.574 81.1463 53.9229C81.1097 54.2719 81.1739 54.6239 81.3312 54.9375C81.5375 55.3687 81.725 55.8188 81.8938 56.2688C82.0036 56.6029 82.2067 56.8987 82.4791 57.1213C82.7515 57.3439 83.0819 57.484 83.4313 57.525L87.875 58.0875V61.9125Z" fill="#AD6FA1"/>
<path d="M80.375 60C80.375 58.1458 79.8252 56.3332 78.795 54.7915C77.7649 53.2498 76.3007 52.0482 74.5877 51.3386C72.8746 50.6291 70.9896 50.4434 69.171 50.8051C67.3525 51.1669 65.682 52.0598 64.3709 53.3709C63.0598 54.682 62.1669 56.3525 61.8051 58.171C61.4434 59.9896 61.6291 61.8746 62.3386 63.5877C63.0482 65.3007 64.2498 66.7649 65.7915 67.795C67.3332 68.8252 69.1458 69.375 71 69.375C73.4855 69.372 75.8683 68.3833 77.6258 66.6258C79.3833 64.8683 80.372 62.4855 80.375 60ZM71 65.625C69.8875 65.625 68.7999 65.2951 67.8749 64.677C66.9499 64.0589 66.2289 63.1804 65.8032 62.1526C65.3774 61.1248 65.266 59.9938 65.4831 58.9026C65.7001 57.8115 66.2359 56.8092 67.0225 56.0225C67.8092 55.2359 68.8115 54.7001 69.9026 54.4831C70.9938 54.266 72.1248 54.3774 73.1526 54.8032C74.1804 55.2289 75.0589 55.9499 75.677 56.8749C76.2951 57.7999 76.625 58.8875 76.625 60C76.625 61.4918 76.0324 62.9226 74.9775 63.9775C73.9226 65.0324 72.4918 65.625 71 65.625Z" fill="#AD6FA1"/>
<path d="M95.375 56.25V60H102.875C103.372 60 103.849 59.8024 104.201 59.4508C104.552 59.0992 104.75 58.6223 104.75 58.125V47.8633H101V56.25H95.375Z" fill="#EFC579"/>
<path d="M31.625 60V69H35.375V61.875H46.625V58.125H33.5C33.0027 58.125 32.5258 58.3225 32.1742 58.6742C31.8225 59.0258 31.625 59.5027 31.625 60Z" fill="#EFC579"/>
<path d="M69.1249 35.625H72.8749V24.375C72.8749 23.8777 72.6774 23.4008 72.3258 23.0492C71.9741 22.6975 71.4972 22.5 70.9999 22.5H58.1143V26.25H69.1249V35.625Z" fill="#EFC579"/>
<path d="M72.875 84.375H69.125V99.375C69.125 99.8723 69.3225 100.349 69.6742 100.701C70.0258 101.052 70.5027 101.25 71 101.25H85.9536V97.5H72.875V84.375Z" fill="#EFC579"/>
<rect x="31.625" y="70.0298" width="3.75173" height="4" fill="#EFC579"/>
<rect x="92.9346" y="97.4958" width="4.31544" height="3.75421" fill="#EFC579"/>
<rect x="87.3096" y="97.4958" width="4.31544" height="3.75421" fill="#EFC579"/>
<rect x="101" y="40.997" width="3.75" height="4.50357" fill="#EFC579"/>
<rect x="52.25" y="22.5112" width="3.87543" height="3.70402" fill="#EFC579"/>
</svg>
