<svg width="141" height="157" viewBox="0 0 141 157" fill="none" xmlns="http://www.w3.org/2000/svg">
<circle cx="60" cy="97" r="60" fill="#ECF0F7"/>
<circle cx="101" cy="63" r="40" fill="#F7F1F6"/>
<path d="M61.625 20.625H65.375V24.375H61.625V20.625Z" fill="#EFC579"/>
<path d="M110.375 65.625H114.125V69.375H110.375V65.625Z" fill="#EFC579"/>
<path d="M76.625 95.625H80.375V99.375H76.625V95.625Z" fill="#EFC579"/>
<path d="M61.625 101.25H65.375V105H61.625V101.25Z" fill="#EFC579"/>
<path d="M31.625 58.125H35.375V61.875H31.625V58.125Z" fill="#EFC579"/>
<path d="M76.625 20.625H80.375V24.375H76.625V20.625Z" fill="#EFC579"/>
<path d="M106.625 50.625H110.375V54.375H106.625V50.625Z" fill="#EFC579"/>
<path d="M97.25 31.875H101V35.625H97.25V31.875Z" fill="#EFC579"/>
<path d="M41 31.875H44.75V35.625H41V31.875Z" fill="#EFC579"/>
<path d="M97.25 84.375H101V88.125H97.25V84.375Z" fill="#EFC579"/>
<path d="M41 84.375H44.75V88.125H41V84.375Z" fill="#EFC579"/>
<path d="M70.7789 58.1249C69.4675 58.1673 68.2124 58.6676 67.2316 59.5389C66.2507 60.4103 65.6061 61.5977 65.4095 62.8949C65.213 64.1921 65.4771 65.5172 66.1558 66.64C66.8346 67.7628 67.8852 68.6124 69.1251 69.0412V73.125H72.8751V69.0281C74.1455 68.5832 75.2136 67.6965 75.8847 66.5297C76.5558 65.363 76.7852 63.9939 76.5311 62.6721C76.277 61.3503 75.5562 60.1639 74.5003 59.3292C73.4444 58.4945 72.1236 58.0671 70.7789 58.1249ZM72.8751 63.6768C72.8849 63.9229 72.8461 64.1686 72.7609 64.3997C72.6758 64.6308 72.5459 64.8429 72.3787 65.0238C72.2116 65.2047 72.0104 65.3509 71.7867 65.4541C71.563 65.5572 71.3212 65.6153 71.0751 65.6249C70.8286 65.6346 70.5827 65.5955 70.3513 65.5099C70.12 65.4243 69.9078 65.2939 69.727 65.1262C69.4544 64.8746 69.2626 64.5478 69.1758 64.1871C69.0891 63.8265 69.1112 63.4482 69.2395 63.1002C69.3677 62.7521 69.5964 62.4499 69.8964 62.2318C70.1965 62.0137 70.5545 61.8895 70.9251 61.8749H71.0001C71.4847 61.8746 71.9506 62.0618 72.3001 62.3973C72.6497 62.7329 72.8557 63.1908 72.8751 63.6749V63.6768Z" fill="#AD6FA1"/>
<path d="M80.375 52.845V50.625C80.375 48.1386 79.3873 45.754 77.6291 43.9959C75.871 42.2377 73.4864 41.25 71 41.25C68.5136 41.25 66.129 42.2377 64.3709 43.9959C62.6127 45.754 61.625 48.1386 61.625 50.625V52.845C60.532 53.2314 59.5852 53.9461 58.9139 54.8912C58.2427 55.8363 57.8798 56.9658 57.875 58.125V73.125C57.875 74.6168 58.4676 76.0476 59.5225 77.1025C60.5774 78.1574 62.0082 78.75 63.5 78.75H78.5C79.9918 78.75 81.4226 78.1574 82.4775 77.1025C83.5324 76.0476 84.125 74.6168 84.125 73.125V58.125C84.1202 56.9658 83.7573 55.8363 83.0861 54.8912C82.4148 53.9461 81.468 53.2314 80.375 52.845ZM65.375 50.625C65.375 49.1332 65.9676 47.7024 67.0225 46.6475C68.0774 45.5926 69.5082 45 71 45C72.4918 45 73.9226 45.5926 74.9775 46.6475C76.0324 47.7024 76.625 49.1332 76.625 50.625V52.5H65.375V50.625ZM80.375 73.125C80.375 73.6223 80.1775 74.0992 79.8258 74.4508C79.4742 74.8025 78.9973 75 78.5 75H63.5C63.0027 75 62.5258 74.8025 62.1742 74.4508C61.8225 74.0992 61.625 73.6223 61.625 73.125V58.125C61.625 57.6277 61.8225 57.1508 62.1742 56.7992C62.5258 56.4475 63.0027 56.25 63.5 56.25H78.5C78.9973 56.25 79.4742 56.4475 79.8258 56.7992C80.1775 57.1508 80.375 57.6277 80.375 58.125V73.125Z" fill="#AD6FA1"/>
<path d="M121.625 76.875C120.79 76.8782 119.966 77.0705 119.216 77.4375L114.903 73.125H97.25V69.375H106.625V65.625H97.25V61.875H107.068L117.731 56.5425C118.665 57.4376 119.88 57.9824 121.17 58.0846C122.46 58.1868 123.746 57.8402 124.81 57.1034C125.874 56.3667 126.65 55.2849 127.008 54.0414C127.366 52.7978 127.284 51.4687 126.774 50.2791C126.265 49.0894 125.36 48.1123 124.214 47.513C123.067 46.9137 121.748 46.729 120.48 46.9903C119.213 47.2515 118.075 47.9426 117.258 48.9466C116.442 49.9507 115.997 51.2059 116 52.5C116.009 52.7281 116.032 52.9554 116.069 53.1806L106.183 58.125H97.25V54.375H102.875V50.625H97.25V46.875H105.526L111.714 40.6875C112.465 41.0547 113.289 41.2471 114.125 41.25C115.238 41.25 116.325 40.9201 117.25 40.302C118.175 39.6839 118.896 38.8054 119.322 37.7776C119.748 36.7498 119.859 35.6188 119.642 34.5276C119.425 33.4365 118.889 32.4342 118.102 31.6475C117.316 30.8609 116.314 30.3251 115.222 30.1081C114.131 29.891 113 30.0024 111.972 30.4282C110.945 30.8539 110.066 31.5749 109.448 32.4999C108.83 33.4249 108.5 34.5125 108.5 35.625C108.503 36.4603 108.696 37.284 109.063 38.0344L103.974 43.125H97.25C97.247 40.6395 96.2583 38.2567 94.5008 36.4992C92.7433 34.7417 90.3605 33.753 87.875 33.75V28.9013L98.5906 18.1875C99.341 18.5545 100.165 18.7468 101 18.75C102.113 18.75 103.2 18.4201 104.125 17.802C105.05 17.1839 105.771 16.3054 106.197 15.2776C106.623 14.2498 106.734 13.1188 106.517 12.0276C106.3 10.9365 105.764 9.9342 104.977 9.14753C104.191 8.36086 103.189 7.82513 102.097 7.60809C101.006 7.39104 99.8753 7.50244 98.8474 7.92818C97.8196 8.35392 96.9411 9.07489 96.323 9.99992C95.7049 10.9249 95.375 12.0125 95.375 13.125C95.3782 13.9603 95.5705 14.784 95.9375 15.5344L84.125 27.3469V33.75H80.375V28.125H76.625V33.75H72.875V20.28C74.126 19.8377 75.1804 18.9674 75.8518 17.8229C76.5232 16.6783 76.7684 15.3333 76.544 14.0255C76.3196 12.7177 75.6401 11.5313 74.6256 10.6761C73.6111 9.82079 72.3269 9.3517 71 9.3517C69.6731 9.3517 68.3889 9.82079 67.3744 10.6761C66.3599 11.5313 65.6804 12.7177 65.456 14.0255C65.2316 15.3333 65.4768 16.6783 66.1482 17.8229C66.8196 18.9674 67.874 19.8377 69.125 20.28V33.75H65.375V28.125H61.625V33.75H57.875V19.8488L49.8125 11.7863C50.1797 11.0353 50.3721 10.2109 50.375 9.375C50.375 8.26248 50.0451 7.17495 49.427 6.24992C48.8089 5.32489 47.9304 4.60392 46.9026 4.17818C45.8748 3.75244 44.7438 3.64104 43.6526 3.85809C42.5615 4.07513 41.5592 4.61086 40.7725 5.39753C39.9859 6.1842 39.4501 7.18648 39.2331 8.27762C39.016 9.36876 39.1274 10.4998 39.5532 11.5276C39.9789 12.5554 40.6999 13.4339 41.6249 14.052C42.5499 14.6701 43.6375 15 44.75 15C45.5853 14.9968 46.409 14.8045 47.1594 14.4375L54.125 21.4013V33.75C51.6395 33.753 49.2567 34.7417 47.4992 36.4992C45.7417 38.2567 44.753 40.6395 44.75 43.125H38.0263L32.9375 38.0344C33.3045 37.284 33.4968 36.4603 33.5 35.625C33.5 34.5125 33.1701 33.4249 32.552 32.4999C31.9339 31.5749 31.0554 30.8539 30.0276 30.4282C28.9998 30.0024 27.8688 29.891 26.7776 30.1081C25.6865 30.3251 24.6842 30.8609 23.8975 31.6475C23.1109 32.4342 22.5751 33.4365 22.3581 34.5276C22.141 35.6188 22.2524 36.7498 22.6782 37.7776C23.1039 38.8054 23.8249 39.6839 24.7499 40.302C25.6749 40.9201 26.7625 41.25 27.875 41.25C28.7103 41.2468 29.534 41.0545 30.2844 40.6875L36.4719 46.875H44.75V50.625H32.8213L23 58.8075C22.1951 58.3659 21.2931 58.1314 20.375 58.125C19.2625 58.125 18.1749 58.4549 17.2499 59.073C16.3249 59.6911 15.6039 60.5696 15.1782 61.5974C14.7524 62.6252 14.641 63.7562 14.8581 64.8474C15.0751 65.9385 15.6109 66.9408 16.3975 67.7275C17.1842 68.5141 18.1865 69.0499 19.2776 69.2669C20.3688 69.484 21.4998 69.3726 22.5276 68.9468C23.5554 68.5211 24.4339 67.8001 25.052 66.8751C25.6701 65.9501 26 64.8625 26 63.75C26.0013 62.9975 25.8501 62.2525 25.5556 61.56L34.1788 54.375H44.75V58.125H39.125V61.875H44.75V65.625H27.875V69.375H44.75V73.125H34.3719L26.8156 84.4575C26.5462 84.41 26.2735 84.3824 26 84.375C24.6956 84.363 23.4268 84.8006 22.4071 85.6142C21.3874 86.4277 20.6789 87.5676 20.4009 88.8421C20.1228 90.1167 20.2921 91.448 20.8804 92.6124C21.4686 93.7767 22.4398 94.703 23.6307 95.2354C24.8216 95.7678 26.1596 95.8738 27.4195 95.5357C28.6794 95.1976 29.7844 94.436 30.5488 93.3788C31.3131 92.3217 31.6901 91.0336 31.6163 89.7312C31.5426 88.4288 31.0225 87.1916 30.1438 86.2275L36.3781 76.875H44.75C44.753 79.3605 45.7417 81.7433 47.4992 83.5008C49.2567 85.2583 51.6395 86.247 54.125 86.25V98.5987L47.1594 105.562C46.409 105.196 45.5853 105.003 44.75 105C43.6375 105 42.5499 105.33 41.6249 105.948C40.6999 106.566 39.9789 107.445 39.5532 108.472C39.1274 109.5 39.016 110.631 39.2331 111.722C39.4501 112.814 39.9859 113.816 40.7725 114.602C41.5592 115.389 42.5615 115.925 43.6526 116.142C44.7438 116.359 45.8748 116.248 46.9026 115.822C47.9304 115.396 48.8089 114.675 49.427 113.75C50.0451 112.825 50.375 111.738 50.375 110.625C50.3718 109.79 50.1795 108.966 49.8125 108.216L57.875 100.153V86.25H61.625V97.5H65.375V86.25H69.125V102.289L80.5138 109.414C80.2077 110.727 80.3767 112.107 80.991 113.308C81.6052 114.509 82.6248 115.453 83.8691 115.974C85.1134 116.495 86.5019 116.558 87.7883 116.152C89.0747 115.747 90.176 114.899 90.8967 113.759C91.6175 112.619 91.9111 111.26 91.7256 109.924C91.5402 108.588 90.8875 107.361 89.8834 106.46C88.8793 105.56 87.5887 105.044 86.2405 105.004C84.8923 104.964 83.5735 105.403 82.5181 106.243L72.875 100.211V86.25H76.625V91.875H80.375V86.25H84.125V101.25H97.595C98.0373 102.501 98.9076 103.555 100.052 104.227C101.197 104.898 102.542 105.143 103.85 104.919C105.157 104.695 106.344 104.015 107.199 103.001C108.054 101.986 108.523 100.702 108.523 99.375C108.523 98.0481 108.054 96.7639 107.199 95.7494C106.344 94.7349 105.157 94.0554 103.85 93.831C102.542 93.6066 101.197 93.8518 100.052 94.5232C98.9076 95.1946 98.0373 96.249 97.595 97.5H87.875V86.25C90.3605 86.247 92.7433 85.2583 94.5008 83.5008C96.2583 81.7433 97.247 79.3605 97.25 76.875H113.349L116.563 80.0906C116.196 80.841 116.003 81.6647 116 82.5C116 83.6125 116.33 84.7001 116.948 85.6251C117.566 86.5501 118.445 87.2711 119.472 87.6968C120.5 88.1226 121.631 88.234 122.722 88.0169C123.814 87.7999 124.816 87.2641 125.602 86.4775C126.389 85.6908 126.925 84.6885 127.142 83.5974C127.359 82.5062 127.248 81.3752 126.822 80.3474C126.396 79.3196 125.675 78.4411 124.75 77.823C123.825 77.2049 122.738 76.875 121.625 76.875ZM121.625 50.625C121.996 50.625 122.358 50.735 122.667 50.941C122.975 51.147 123.215 51.4399 123.357 51.7825C123.499 52.1251 123.536 52.5021 123.464 52.8658C123.392 53.2295 123.213 53.5636 122.951 53.8258C122.689 54.0881 122.355 54.2666 121.991 54.339C121.627 54.4113 121.25 54.3742 120.907 54.2323C120.565 54.0904 120.272 53.85 120.066 53.5417C119.86 53.2334 119.75 52.8708 119.75 52.5C119.75 52.0027 119.948 51.5258 120.299 51.1742C120.651 50.8225 121.128 50.625 121.625 50.625ZM114.125 33.75C114.496 33.75 114.858 33.86 115.167 34.066C115.475 34.272 115.715 34.5649 115.857 34.9075C115.999 35.2501 116.036 35.6271 115.964 35.9908C115.892 36.3545 115.713 36.6886 115.451 36.9508C115.189 37.2131 114.855 37.3916 114.491 37.464C114.127 37.5363 113.75 37.4992 113.407 37.3573C113.065 37.2154 112.772 36.975 112.566 36.6667C112.36 36.3584 112.25 35.9958 112.25 35.625C112.25 35.1277 112.448 34.6508 112.799 34.2992C113.151 33.9475 113.628 33.75 114.125 33.75ZM101 11.25C101.371 11.25 101.733 11.36 102.042 11.566C102.35 11.772 102.59 12.0649 102.732 12.4075C102.874 12.7501 102.911 13.1271 102.839 13.4908C102.767 13.8545 102.588 14.1886 102.326 14.4508C102.064 14.7131 101.73 14.8916 101.366 14.964C101.002 15.0363 100.625 14.9992 100.282 14.8573C99.9399 14.7154 99.647 14.475 99.441 14.1667C99.235 13.8584 99.125 13.4958 99.125 13.125C99.125 12.6277 99.3225 12.1508 99.6742 11.7992C100.026 11.4475 100.503 11.25 101 11.25ZM71 13.125C71.3708 13.125 71.7334 13.235 72.0417 13.441C72.35 13.647 72.5904 13.9399 72.7323 14.2825C72.8742 14.6251 72.9113 15.0021 72.839 15.3658C72.7666 15.7295 72.5881 16.0636 72.3258 16.3258C72.0636 16.5881 71.7295 16.7666 71.3658 16.839C71.0021 16.9113 70.6251 16.8742 70.2825 16.7323C69.9399 16.5904 69.647 16.35 69.441 16.0417C69.235 15.7334 69.125 15.3708 69.125 15C69.125 14.5027 69.3225 14.0258 69.6742 13.6742C70.0258 13.3225 70.5027 13.125 71 13.125ZM42.875 9.375C42.875 9.00416 42.985 8.64165 43.191 8.33331C43.397 8.02497 43.6899 7.78464 44.0325 7.64273C44.3751 7.50081 44.7521 7.46368 45.1158 7.53603C45.4795 7.60838 45.8136 7.78695 46.0758 8.04918C46.3381 8.3114 46.5166 8.64549 46.589 9.00921C46.6613 9.37292 46.6242 9.74992 46.4823 10.0925C46.3404 10.4351 46.1 10.728 45.7917 10.934C45.4834 11.14 45.1208 11.25 44.75 11.25C44.2527 11.25 43.7758 11.0525 43.4242 10.7008C43.0725 10.3492 42.875 9.87228 42.875 9.375ZM26 35.625C26 35.2542 26.11 34.8917 26.316 34.5833C26.522 34.275 26.8149 34.0346 27.1575 33.8927C27.5001 33.7508 27.8771 33.7137 28.2408 33.786C28.6045 33.8584 28.9386 34.037 29.2008 34.2992C29.4631 34.5614 29.6416 34.8955 29.714 35.2592C29.7863 35.6229 29.7492 35.9999 29.6073 36.3425C29.4654 36.6851 29.225 36.978 28.9167 37.184C28.6084 37.39 28.2458 37.5 27.875 37.5C27.3777 37.5 26.9008 37.3025 26.5492 36.9508C26.1975 36.5992 26 36.1223 26 35.625ZM20.375 65.625C20.0042 65.625 19.6417 65.515 19.3333 65.309C19.025 65.103 18.7846 64.8101 18.6427 64.4675C18.5008 64.1249 18.4637 63.7479 18.536 63.3842C18.6084 63.0205 18.787 62.6864 19.0492 62.4242C19.3114 62.162 19.6455 61.9834 20.0092 61.911C20.3729 61.8387 20.7499 61.8758 21.0925 62.0177C21.4351 62.1596 21.728 62.4 21.934 62.7083C22.14 63.0167 22.25 63.3792 22.25 63.75C22.25 64.2473 22.0525 64.7242 21.7008 65.0758C21.3492 65.4275 20.8723 65.625 20.375 65.625ZM26 91.875C25.6292 91.875 25.2667 91.765 24.9583 91.559C24.65 91.353 24.4096 91.0601 24.2677 90.7175C24.1258 90.3749 24.0887 89.9979 24.161 89.6342C24.2334 89.2705 24.412 88.9364 24.6742 88.6742C24.9364 88.4119 25.2705 88.2334 25.6342 88.161C25.9979 88.0887 26.3749 88.1258 26.7175 88.2677C27.0601 88.4096 27.353 88.65 27.559 88.9583C27.765 89.2666 27.875 89.6292 27.875 90C27.875 90.4973 27.6775 90.9742 27.3258 91.3258C26.9742 91.6775 26.4973 91.875 26 91.875ZM44.75 112.5C44.3792 112.5 44.0167 112.39 43.7083 112.184C43.4 111.978 43.1596 111.685 43.0177 111.343C42.8758 111 42.8387 110.623 42.911 110.259C42.9834 109.895 43.162 109.561 43.4242 109.299C43.6864 109.037 44.0205 108.858 44.3842 108.786C44.7479 108.714 45.1249 108.751 45.4675 108.893C45.8101 109.035 46.103 109.275 46.309 109.583C46.515 109.892 46.625 110.254 46.625 110.625C46.625 111.122 46.4275 111.599 46.0758 111.951C45.7242 112.302 45.2473 112.5 44.75 112.5ZM86 108.75C86.3708 108.75 86.7334 108.86 87.0417 109.066C87.35 109.272 87.5904 109.565 87.7323 109.907C87.8742 110.25 87.9113 110.627 87.839 110.991C87.7666 111.355 87.5881 111.689 87.3258 111.951C87.0636 112.213 86.7295 112.392 86.3658 112.464C86.0021 112.536 85.6251 112.499 85.2825 112.357C84.9399 112.215 84.647 111.975 84.441 111.667C84.235 111.358 84.125 110.996 84.125 110.625C84.125 110.128 84.3225 109.651 84.6742 109.299C85.0258 108.948 85.5027 108.75 86 108.75ZM102.875 97.5C103.246 97.5 103.608 97.61 103.917 97.816C104.225 98.022 104.465 98.3149 104.607 98.6575C104.749 99.0001 104.786 99.3771 104.714 99.7408C104.642 100.105 104.463 100.439 104.201 100.701C103.939 100.963 103.605 101.142 103.241 101.214C102.877 101.286 102.5 101.249 102.157 101.107C101.815 100.965 101.522 100.725 101.316 100.417C101.11 100.108 101 99.7458 101 99.375C101 98.8777 101.198 98.4008 101.549 98.0492C101.901 97.6975 102.378 97.5 102.875 97.5ZM93.5 76.875C93.5 78.3668 92.9074 79.7976 91.8525 80.8525C90.7976 81.9074 89.3668 82.5 87.875 82.5H54.125C52.6332 82.5 51.2024 81.9074 50.1475 80.8525C49.0926 79.7976 48.5 78.3668 48.5 76.875V43.125C48.5 41.6332 49.0926 40.2024 50.1475 39.1475C51.2024 38.0926 52.6332 37.5 54.125 37.5H87.875C89.3668 37.5 90.7976 38.0926 91.8525 39.1475C92.9074 40.2024 93.5 41.6332 93.5 43.125V76.875ZM121.625 84.375C121.254 84.375 120.892 84.265 120.583 84.059C120.275 83.853 120.035 83.5601 119.893 83.2175C119.751 82.8749 119.714 82.4979 119.786 82.1342C119.858 81.7705 120.037 81.4364 120.299 81.1742C120.561 80.9119 120.895 80.7334 121.259 80.661C121.623 80.5887 122 80.6258 122.343 80.7677C122.685 80.9096 122.978 81.15 123.184 81.4583C123.39 81.7666 123.5 82.1292 123.5 82.5C123.5 82.9973 123.302 83.4742 122.951 83.8258C122.599 84.1775 122.122 84.375 121.625 84.375Z" fill="#3476A4"/>
</svg>
