<svg width="160" height="160" fill="none" xmlns="http://www.w3.org/2000/svg"><circle cx="68.085" cy="87.943" r="68.085" fill="#ECF0F7"/><circle cx="114.61" cy="49.362" r="45.39" fill="#F7F1F6"/><g clip-path="url(#clip0)"><path d="M127.252 56.255H67.806a1.523 1.523 0 100 3.047h59.446a1.524 1.524 0 000-3.047zm0 12.622H67.806a1.523 1.523 0 100 3.047h59.446a1.523 1.523 0 000-3.047zM50.608 97.81a1.523 1.523 0 00-1.523 1.524v4.102H36.158V90.529h6.463a1.523 1.523 0 000-3.047h-7.29a2.222 2.222 0 00-2.22 2.22v14.561a2.224 2.224 0 002.22 2.219h14.58a2.22 2.22 0 002.22-2.219v-4.93a1.523 1.523 0 00-1.523-1.523zm0-36.082a1.523 1.523 0 00-1.523 1.523v4.103H36.158V54.447h6.463a1.523 1.523 0 000-3.047h-7.29a2.222 2.222 0 00-2.22 2.22v14.56a2.222 2.222 0 002.22 2.22h14.58a2.222 2.222 0 002.22-2.22v-4.929a1.523 1.523 0 00-1.523-1.523z" fill="#3476A4"/><path d="M34.635 61.728a1.523 1.523 0 011.523 1.523v4.103h12.927V54.447h-6.463a1.523 1.523 0 110-3.047h7.29a2.223 2.223 0 012.22 2.22v14.56a2.222 2.222 0 01-2.22 2.22h-14.58a2.222 2.222 0 01-2.22-2.22v-4.929a1.523 1.523 0 011.523-1.523z" fill="#3476A4"/><path d="M53.39 86.627a1.522 1.522 0 00-2.145.197l-7.267 8.732-2.331-1.886a1.524 1.524 0 10-1.917 2.368l2.803 2.268a2.415 2.415 0 003.227-.142l.062-.06 7.765-9.332a1.524 1.524 0 00-.197-2.145z" fill="#49A08A"/><path d="M127.252 88.544h-12.377a1.524 1.524 0 100 3.047h12.377a1.523 1.523 0 000-3.047zm-40.139 0H67.806a1.523 1.523 0 100 3.047h19.307a1.523 1.523 0 100-3.047zM73.01 101.166h-5.204a1.526 1.526 0 00-1.523 1.524 1.523 1.523 0 001.523 1.523h5.204a1.522 1.522 0 001.077-2.601 1.526 1.526 0 00-1.078-.446z" fill="#3476A4"/><path d="M134.936 17.54H25.064a7.024 7.024 0 00-7.017 7.015v91.051a7.024 7.024 0 007.006 7.016l58.103.411 2.944 11.566c.005.02.01.041.017.061a10.874 10.874 0 0010.477 7.801h21.242a10.952 10.952 0 0010.939-10.943v-8.557l6.206-.338a7.026 7.026 0 006.972-7.016V24.555a7.021 7.021 0 00-7.017-7.016zM25.064 20.585h109.872a3.973 3.973 0 013.97 3.97V39.98H21.094V24.555a3.974 3.974 0 013.97-3.969zm100.665 110.932a7.908 7.908 0 01-7.893 7.896H96.594a7.842 7.842 0 01-7.55-5.599l-3.224-12.672a53.966 53.966 0 00-3.032-8.709l-.249-.592a10.02 10.02 0 018.252 4.332l2.62 3.795v5.658a1.522 1.522 0 002.6 1.077c.286-.285.447-.673.447-1.077V84.222a2.865 2.865 0 115.731 0v27.043c0 .149.022.297.065.439v6.211a1.522 1.522 0 002.601 1.077c.285-.286.446-.673.446-1.077v-8.509a2.272 2.272 0 114.545 0v1.727c-.04.265-.06.534-.06.803v5.98a1.526 1.526 0 001.524 1.523h.059a1.52 1.52 0 001.524-1.523v-6.511a2.443 2.443 0 014.209-1.105c.402.45.624 1.032.623 1.635v7.56a1.522 1.522 0 002.6 1.077c.286-.286.447-.673.447-1.077v-5.173a2.47 2.47 0 01.716-1.768 2.476 2.476 0 013.523 0 2.476 2.476 0 01.717 1.768l.001 17.196zm9.208-11.941c-.028 0-.056 0-.083.002l-6.079.33v-5.586a5.517 5.517 0 00-5.707-5.524 5.518 5.518 0 00-2.788.868 5.482 5.482 0 00-3.38-2.982 5.488 5.488 0 00-4.472.556 5.303 5.303 0 00-3.039-2.839 5.305 5.305 0 00-4.153.232V84.222a5.915 5.915 0 00-5.912-5.912 5.912 5.912 0 00-5.913 5.912v30.384l-.112-.163a13.077 13.077 0 00-10.76-5.648 3.054 3.054 0 00-2.566 1.395 3.058 3.058 0 00-.224 2.912l.256.574a50.941 50.941 0 012.331 6.305l-57.273-.407a3.972 3.972 0 01-3.97-3.967v-72.58h117.813v72.58a3.973 3.973 0 01-3.97 3.968l.001.002z" fill="#3476A4"/><path d="M30.793 35.93a5.84 5.84 0 100-11.68 5.84 5.84 0 000 11.68zm0-8.63a2.793 2.793 0 110 5.585 2.793 2.793 0 010-5.586z" fill="#AD6FA1"/><path d="M46.188 35.93a5.84 5.84 0 100-11.68 5.84 5.84 0 000 11.68zm0-8.63a2.793 2.793 0 110 5.585 2.793 2.793 0 010-5.586z" fill="#EFC579"/><path d="M61.584 35.93a5.84 5.84 0 100-11.68 5.84 5.84 0 000 11.68zm0-8.63a2.793 2.793 0 110 5.585 2.793 2.793 0 010-5.586z" fill="#49A08A"/><path d="M84.316 31.326h49.495a1.522 1.522 0 001.077-2.6 1.522 1.522 0 00-1.077-.447H84.316a1.523 1.523 0 000 3.047z" fill="#3476A4"/><g clip-path="url(#clip1)" fill="#3476A4"><path d="M35.8 67.783v1.95h13.867v-1.95c0-4.355-13.867-4.355-13.867 0zm6.933-4.55c1.915 0 3.467-1.455 3.467-3.25 0-1.794-1.552-3.25-3.467-3.25-1.914 0-3.466 1.456-3.466 3.25 0 1.795 1.552 3.25 3.466 3.25z"/></g></g><defs><clipPath id="clip0"><path fill="#fff" transform="translate(15 12.012)" d="M0 0h130v135.976H0z"/></clipPath><clipPath id="clip1"><path fill="#fff" transform="translate(35.8 55.733)" d="M0 0h13.867v13H0z"/></clipPath></defs></svg>