<svg width="160" height="160" fill="none" xmlns="http://www.w3.org/2000/svg"><circle cx="68.085" cy="87.943" r="68.085" fill="#ECF0F7"/><circle cx="114.61" cy="49.362" r="45.39" fill="#F7F1F6"/><g clip-path="url(#clip0)"><path d="M39.945 115.605H36.33V40.23H25.846v75.375H22.23V36.61h17.715v78.995z" fill="#EFC579"/><path d="M37.377 40.23h-12.58V27.85h12.58v12.38zm-8.965-3.62h5.35v-5.141h-5.35v5.14zm-9.797 23.46H15V40.52h10.845v3.62h-7.23v15.93zm12.472 75.773a1.791 1.791 0 01-1.807-1.81c0-7.53-6.652-17.341-6.725-17.414a1.846 1.846 0 01-.108-1.882c.325-.616.94-.978 1.59-.978h14.1c.687 0 1.301.362 1.59.978.326.579.253 1.303-.108 1.882-.072.109-6.724 9.884-6.724 17.414 0 1.014-.796 1.81-1.808 1.81zm-3.796-18.427c1.157 1.991 2.64 4.815 3.796 7.928 1.157-3.113 2.64-5.973 3.796-7.928h-7.592z" fill="#EFC579"/><path d="M145 142.758H47.175V20.97h22.16v3.62H50.79v114.548h90.595V24.591h-18.546v-3.62H145v121.787z" fill="#3476A4"/><path d="M119.043 39.434H73.131V17.24h45.876v22.193h.036zm-42.297-3.62h38.646V20.862H76.747v14.952z" fill="#AD6FA1"/><path d="M137.481 131.608H54.694V32.085h14.642v3.62H58.31v92.283h75.556V35.705H122.84v-3.62h14.641v99.523z" fill="#3476A4"/><path d="M97.967 26.51h-3.723v3.62h3.723v-3.62zm-7.41 0h-3.724v3.62h3.724v-3.62zm14.821 0h-3.723v3.62h3.723v-3.62z" fill="#AD6FA1"/><path d="M93.63 73.32h-3.616V49.788h13.629v3.62H93.629V73.32z" fill="#49A08A"/><path d="M100.86 60.468H90.773v3.62h10.087v-3.62zM74.83 73.32h-3.615V53.88l.434-.507c2.784-3.186 6.399-4.344 9.725-3.113 2.892 1.086 4.844 3.91 4.844 7.023h-3.615a3.917 3.917 0 00-2.53-3.656c-1.7-.652-3.58-.037-5.279 1.629V73.32h.037z" fill="#49A08A"/><path d="M77.94 64.74h-4.917v-3.62h4.736c1.446-.036 2.856-.47 3.796-1.412.686-.688 1.048-1.484 1.048-2.426h3.615c0 1.883-.759 3.657-2.133 4.996-1.554 1.557-3.832 2.462-6.145 2.462z" fill="#49A08A"/><path d="M84.374 73.392l-7.085-9.376 2.892-2.173 7.05 9.377-2.857 2.172zm25.198-.072h-3.615V53.88l.433-.507c2.784-3.186 6.435-4.344 9.725-3.113 2.892 1.086 4.844 3.91 4.844 7.023h-3.615a3.917 3.917 0 00-2.53-3.656c-1.699-.652-3.579-.037-5.278 1.629V73.32h.036z" fill="#49A08A"/><path d="M112.645 64.74h-4.917v-3.62h4.736c1.41-.036 2.856-.47 3.796-1.412.687-.688 1.048-1.484 1.048-2.426h3.615c0 1.883-.759 3.657-2.133 4.996-1.518 1.557-3.832 2.462-6.145 2.462zM84.736 97.251H70.239V82.733h14.497v14.518zm-10.882-3.62h7.267v-7.277h-7.267v7.277zm10.882 25.415H70.239v-14.518h14.497v14.518zm-10.882-3.621h7.267v-7.277h-7.267v7.277zm40.779-9.087H92.255v3.62h22.378v-3.62zm-9.291 7.241H92.255v3.62h13.087v-3.62zm9.291-21.759H92.255v3.62h22.378v-3.62zm-9.399-7.24H92.255v3.62h12.979v-3.62z" fill="#49A08A"/></g><defs><clipPath id="clip0"><path fill="#fff" transform="translate(15 17.241)" d="M0 0h130v125.517H0z"/></clipPath></defs></svg>