<svg width="160" height="160" fill="none" xmlns="http://www.w3.org/2000/svg"><circle cx="68.085" cy="87.943" r="68.085" fill="#ECF0F7"/><circle cx="114.61" cy="49.362" r="45.39" fill="#F7F1F6"/><path d="M100.168 131.18h35.894V80.576h-3.597v47.007h-32.297v3.597zm-56.935 0h35.895v-3.597H46.83V21.951h85.635v16.077h3.597V18.354H43.233V131.18z" fill="#3476A4"/><path d="M59.742 72.663h45.425v3.597H59.742v-3.597zm0-22.623h41.505v3.597H59.742v-3.596zm0-11.33h21.005v3.597H59.742v-3.596z" fill="#3476A4"/><path d="M22.194 106.544h3.596V35.762h9.64v70.782h3.596V32.166H22.194v74.378z" fill="#AD6FA1"/><path d="M24.603 35.762h12.013V23.965H24.603v11.797zm8.416-3.596H28.2v-4.604h4.82v4.604zM15 54.429h3.597V39.467h7.193V35.87H15v18.56zm15.61 71.14a1.78 1.78 0 001.798-1.798c0-7.049 6.258-16.221 6.294-16.292.396-.54.431-1.259.108-1.871-.324-.575-.935-.971-1.583-.971H23.992c-.684 0-1.295.36-1.583.971-.323.576-.252 1.295.108 1.871.072.107 6.294 9.243 6.294 16.292 0 .971.828 1.798 1.799 1.798zm3.416-17.335c-1.043 1.798-2.338 4.316-3.38 7.049-1.044-2.769-2.374-5.251-3.381-7.049h6.761z" fill="#AD6FA1"/><path d="M89.666 128.734c6.078 0 11.042-4.963 11.042-11.041s-4.964-11.042-11.042-11.042c-6.078 0-11.042 4.964-11.042 11.042 0 6.078 4.964 11.041 11.042 11.041zm0-18.486c4.1 0 7.445 3.345 7.445 7.445s-3.345 7.445-7.445 7.445-7.445-3.345-7.445-7.445 3.345-7.445 7.445-7.445z" fill="#EFC579"/><path d="M96.967 141.646v-16.509h-3.596v11.078l-3.705-1.619-3.74 1.619v-11.078h-3.597v16.509l7.337-3.129 7.301 3.129z" fill="#EFC579"/><path d="M59.742 61.334h41.505v3.596H59.742v-3.596zm0 22.658h55.244v3.597H59.742v-3.597zm0 11.293h59.811v3.597H59.742v-3.597z" fill="#3476A4"/><path d="M125.308 78.993c5.035 0 10.071-1.907 13.919-5.755 7.625-7.625 7.697-19.961.216-27.658l-.216-.216a19.59 19.59 0 00-13.919-5.754 19.59 19.59 0 00-13.919 5.754c-7.661 7.697-7.661 20.177 0 27.874a19.633 19.633 0 0013.919 5.755zm11.221-31.219l.144.144c6.294 6.294 6.294 16.508 0 22.767-6.294 6.258-16.472 6.258-22.766 0-6.294-6.295-6.294-16.509 0-22.767 6.222-6.258 16.364-6.294 22.622-.144z" fill="#49A08A"/><path d="M123.114 66.8l-7.553-7.552 2.554-2.554 4.999 5.035 9.963-9.962 2.553 2.553-12.516 12.48z" fill="#49A08A"/></svg>