<svg width="160" height="160" fill="none" xmlns="http://www.w3.org/2000/svg"><circle cx="68.085" cy="87.943" r="68.085" fill="#ECF0F7"/><circle cx="114.61" cy="49.362" r="45.39" fill="#F7F1F6"/><g clip-path="url(#clip0)"><path d="M65.249 29.338h-3.984v3.759h3.984v-3.759zm-7.969 0h-3.983v3.759h3.984v-3.759zm15.936 0h-3.984v3.759h3.984v-3.759z" fill="#AD6FA1"/><path d="M111.513 33.284h-3.758v-4.246h-26.12v-3.759h29.878v8.005zM92.835 147.988H15V25.279h29.879v3.759h-26.12V144.23h74.076v3.758z" fill="#3476A4"/><path d="M49.764 74.55h-15.71V58.84h15.71v15.71zm-11.952-3.758h8.194v-8.193h-8.194v8.193zm11.952 27.699h-15.71v-15.71h15.71v15.71zm-11.952-3.758h8.194V86.54h-8.194v8.193zm11.952 27.698h-15.71v-15.71h15.71v15.71zm-11.952-3.758h8.194v-8.193h-8.194v8.193zm36.832-9.96H58.145v3.759h16.499v-3.759zm11.237 7.968H58.145v3.759h27.736v-3.759zM74.644 92.74H58.145v3.76h16.499v-3.76zm-2.217-7.968H58.145v3.759h14.282v-3.759zm2.217-23.939H58.145v3.758h16.499v-3.758zM71.938 68.8H58.145v3.759h13.793V68.8z" fill="#EFC579"/><path d="M103.546 39.41h-3.759v-2.405H81.635v-3.759h21.911v6.164zm-13.643 96.851H63.257v3.759h26.646v-3.759zm-26.646 3.759h-40.29V33.246H44.88v3.759H26.726v99.257h36.53v3.758z" fill="#3476A4"/><path d="M83.514 41.29H42.999V21.181h40.477V41.29h.038zm-36.757-3.76h32.96V24.94h-32.96v12.59zm76.182 47.318h-11.35l-1.015-5.975c-.376-.15-.752-.301-1.09-.451l-4.923 3.532-8.006-8.042 3.533-4.924c-.15-.376-.3-.714-.45-1.09l-5.976-1.014v-11.35l5.975-1.015c.15-.376.301-.752.451-1.09l-3.57-4.961 8.005-8.005 4.924 3.533c.375-.15.714-.301 1.089-.451l1.015-5.976h11.35l1.015 5.976c.376.15.752.3 1.09.45l4.923-3.532 8.043 8.005-3.533 4.923c.151.376.301.714.451 1.09l5.976 1.015v11.35l-5.976 1.015c-.15.376-.3.751-.451 1.09l3.533 4.923-8.043 8.043-4.923-3.533c-.376.15-.714.3-1.09.451l-.977 6.013zm-8.156-3.758h4.961l.865-5.111 1.09-.338c.902-.301 1.804-.64 2.63-1.09l1.015-.526 4.209 3.006 3.533-3.533-3.006-4.209.526-1.015c.451-.827.789-1.729 1.09-2.63l.338-1.128 5.111-.865v-4.998l-5.111-.864-.338-1.128a13.389 13.389 0 00-1.09-2.63l-.526-1.015 3.006-4.21-3.533-3.533-4.209 3.007-1.015-.526c-.826-.451-1.728-.79-2.63-1.09l-1.128-.338-.864-5.112h-4.961l-.865 5.112-1.127.338c-.902.263-1.804.639-2.631 1.09l-1.015.526-4.209-3.007-3.458 3.608 3.007 4.21-.526 1.014a18.345 18.345 0 00-1.09 2.631l-.338 1.128-5.112.864v4.999l5.112.864.338 1.09c.301.94.639 1.804 1.09 2.63l.526 1.016-3.007 4.171 3.533 3.533 4.209-3.007 1.015.527c.827.45 1.691.789 2.631 1.09l1.127.338.827 5.111z" fill="#AD6FA1"/><path d="M117.264 72.258c-6.089 0-11.087-4.96-11.087-11.087 0-6.126 4.961-11.087 11.087-11.087 6.126 0 11.087 4.961 11.087 11.087 0 6.126-4.961 11.087-11.087 11.087zm0-18.378c-4.022 0-7.329 3.27-7.329 7.329a7.314 7.314 0 007.329 7.329c4.021 0 7.328-3.27 7.328-7.329a7.314 7.314 0 00-7.328-7.329z" fill="#AD6FA1"/><g clip-path="url(#clip1)"><path d="M139.194 102.94c-.997-1.138-2.417-1.765-3.999-1.765h-11.947v-6.86c0-.87-.705-1.574-1.575-1.574h-8.434c-.87 0-1.575.705-1.575 1.575v6.859H96.932l-.386-2.887c-.415-3.11-2.58-5.547-4.93-5.547h-2.811a1.575 1.575 0 100 3.15h2.811c.506 0 1.576 1.068 1.808 2.813l4.508 33.812c.199 1.49.965 2.886 2.156 3.929a6.508 6.508 0 003.023 1.504 5.751 5.751 0 00-.699 2.756 5.798 5.798 0 005.792 5.792 5.798 5.798 0 005.792-5.792c0-.952-.232-1.849-.64-2.642h8.252a5.756 5.756 0 00-.64 2.642 5.798 5.798 0 005.792 5.792 5.798 5.798 0 005.792-5.792c0-.952-.232-1.849-.64-2.642h4.126a1.576 1.576 0 000-3.15h-31.77c-1.539 0-3.01-1.289-3.214-2.814l-.329-2.471h31.095c1.504 0 2.988-.574 4.18-1.617 1.192-1.044 1.957-2.439 2.157-3.93l2.258-16.942c.209-1.569-.224-3.06-1.221-4.199zm-28.348 37.765a2.645 2.645 0 01-2.642 2.642 2.645 2.645 0 01-2.642-2.642 2.645 2.645 0 012.642-2.642 2.645 2.645 0 012.642 2.642zm18.556 0a2.645 2.645 0 01-2.642 2.642 2.645 2.645 0 01-2.642-2.642 2.645 2.645 0 012.642-2.642 2.645 2.645 0 012.642 2.642zM114.814 95.89h5.284v6.842l-.001.018.001.018v8.417c0 .869.705 1.575 1.575 1.575h.555l-4.678 4.641-4.678-4.641h.367c.87 0 1.575-.706 1.575-1.575V95.891zm22.479 10.832l-2.259 16.943c-.203 1.525-1.675 2.813-3.214 2.813h-31.515l-2.953-22.153h14.312v5.285h-2.616c-.639 0-1.214.385-1.456.975a1.572 1.572 0 00.347 1.718l8.502 8.434c.307.305.708.457 1.109.457s.802-.152 1.109-.457l8.502-8.434c.454-.45.591-1.128.347-1.718a1.573 1.573 0 00-1.456-.975h-2.804v-5.285h11.947c.661 0 1.239.245 1.629.69.39.445.556 1.052.469 1.707z" fill="#49A08A"/></g></g><defs><clipPath id="clip0"><path fill="#fff" transform="translate(15 12.012)" d="M0 0h130v135.976H0z"/></clipPath><clipPath id="clip1"><path fill="#fff" transform="translate(86.915 92.74)" d="M0 0h53.757v53.757H0z"/></clipPath></defs></svg>