<svg width="160" height="160" fill="none" xmlns="http://www.w3.org/2000/svg"><circle cx="68.085" cy="87.943" r="68.085" fill="#ECF0F7"/><circle cx="114.61" cy="49.362" r="45.39" fill="#F7F1F6"/><g clip-path="url(#clip0)"><path d="M39.575 125.688h-4.002V36.833h-8.566v88.855h-4.002V32.831h16.57v92.857z" fill="#EFC579"/><path d="M37.294 36.833H25.286V24.906h12.008v11.927zm-8.005-4.002h4.002v-3.923H29.29v3.923z" fill="#EFC579"/><path d="M19.003 69.253H15v-32.9h12.007v4.003h-8.005v28.897zm12.287 74.446c-1.12 0-2.001-.88-2.001-2.001 0-6.604-5.884-15.209-5.924-15.289a1.89 1.89 0 01-.12-2.042c.36-.68 1.04-1.08 1.761-1.08h12.568c.76 0 1.44.4 1.761 1.08.36.641.28 1.441-.12 2.082-.08.08-5.924 8.685-5.924 15.289 0 1.081-.88 1.961-2 1.961zm-2.722-16.41c.84 1.521 1.841 3.442 2.722 5.604a43.22 43.22 0 012.722-5.604h-5.444z" fill="#EFC579"/><path d="M136.395 143.699H45.899V24.906h71.284l19.212 19.132v99.661zm-86.494-4.003h82.491V45.719l-16.89-16.81h-65.6v110.787z" fill="#3476A4"/><path d="M134.394 46.88h-20.053V26.906h4.003v15.97h16.05v4.002zm-14.53 22.413H58.907v4.003h60.957v-4.003zm0 10.887H58.907v4.002h60.957V80.18zM93.408 91.067H58.907v4.002h34.501v-4.002zm-1.761 10.886h-32.74v4.003h32.74v-4.003zm-.007 10.904l-32.74.127.015 4.003 32.74-.128-.015-4.002zm3.089 11.03H58.907v4.002h35.822v-4.002z" fill="#3476A4"/><path d="M80.28 48.12h-2.642l-.6-.36-7.445-5.203-7.925 5.603h-2.641l-.12-2.001V24.946H80.28V48.12zM62.91 28.908v13.448l6.683-4.682 6.684 4.682V28.908H62.91z" fill="#AD6FA1"/><path d="M119.864 58.367H58.907v4.002h60.957v-4.002z" fill="#3476A4"/><path d="M145 138.376h-4.002v-95.86l-22.054-22.213H50.342v-4.002h70.243L145 40.836v97.54z" fill="#3476A4"/><path d="M112.54 124.527h-5.484a7.328 7.328 0 01-7.324-7.324h4.002a3.314 3.314 0 003.322 3.322h5.484a3.314 3.314 0 003.322-3.322 3.314 3.314 0 00-3.322-3.322h-5.484a7.328 7.328 0 01-7.324-7.325c0-4.042 3.322-7.284 7.324-7.284h5.484a7.328 7.328 0 017.324 7.324h-4.002a3.314 3.314 0 00-3.322-3.322h-5.484a3.314 3.314 0 00-3.322 3.322 3.314 3.314 0 003.322 3.322h5.484a7.328 7.328 0 017.324 7.325c0 4.002-3.282 7.284-7.324 7.284z" fill="#49A08A"/><path d="M111.819 120.524h-4.002v7.365h4.002v-7.365zm0-24.614h-4.002v6.363h4.002v-6.364z" fill="#49A08A"/></g><defs><clipPath id="clip0"><path fill="#fff" transform="translate(15 16.3)" d="M0 0h130v127.398H0z"/></clipPath></defs></svg>