<svg width="160" height="160" fill="none" xmlns="http://www.w3.org/2000/svg"><circle cx="68.085" cy="87.943" r="68.085" fill="#ECF0F7"/><circle cx="114.61" cy="49.362" r="45.39" fill="#F7F1F6"/><g clip-path="url(#clip0)"><path d="M93.297 91.37H64.87l.063-26.373h28.363V91.37zM68.03 88.212h22.077V68.156H68.06l-.032 20.056z" fill="#EFC579"/><path d="M84.674 76.147h-11.18v-11.15h11.18v11.15zm-8.022-3.159h4.864v-4.832h-4.864v4.832z" fill="#EFC579"/><path d="M101.824 109.815H51.669v-3.158h46.997V48.068h-5.37V91.37h-70.18v15.287h7.644v3.158H19.958V88.212h70.18V44.91h11.686v64.905z" fill="#3476A4"/><path d="M136.977 109.815h-5.179v-3.158h5.179a2.534 2.534 0 002.527-2.527v-36.7l-12.76-14.466h-24.92v53.693h9.097v3.158H98.666v-60.01h29.531l14.466 16.424v37.901c0 3.127-2.559 5.685-5.686 5.685z" fill="#49A08A"/><path d="M30.76 106.657H15v3.158h15.76v-3.158z" fill="#3476A4"/><path d="M139.494 77.157h-24.752V52.991h2.968v21.205h21.784v2.961z" fill="#49A08A"/><path d="M121.375 120.269c-6.632 0-12.033-5.4-12.033-12.033 0-6.633 5.401-12.034 12.033-12.034 6.633 0 12.034 5.401 12.034 12.034 0 6.633-5.401 12.033-12.034 12.033zm0-20.908c-4.895 0-8.875 3.979-8.875 8.875 0 4.895 3.98 8.875 8.875 8.875 4.896 0 8.875-3.98 8.875-8.875-.031-4.896-4.011-8.875-8.875-8.875zm-80.16 20.908c-6.633 0-12.034-5.4-12.034-12.033 0-6.633 5.401-12.034 12.034-12.034 6.632 0 12.033 5.401 12.033 12.034 0 6.633-5.4 12.033-12.033 12.033zm0-20.908c-4.896 0-8.875 3.979-8.875 8.875 0 4.895 3.98 8.875 8.875 8.875s8.875-3.98 8.875-8.875c0-4.896-3.98-8.875-8.875-8.875z" fill="#3476A4"/><path d="M139.496 92.444h-3.813v3.158h3.813v-3.158z" fill="#AD6FA1"/><path d="M145 117.111H15v3.158h130v-3.158z" fill="#3476A4"/><path d="M93.352 44.914h-3.213v-1.965H71.978v22.614h-3.159V39.79h24.533v5.124z" fill="#EFC579"/><path d="M86.159 49.964H75.926V39.73h10.233v10.234zm-7.075-3.159h3.917V42.89h-3.917v3.916zM68.06 86.616h-3.157V72.093H31.392v16.14h-3.159v-19.3h39.828v17.682z" fill="#EFC579"/><path d="M53.28 80.758H43.014V70.493h10.233v10.265h.032zM46.172 77.6h3.916v-3.917h-3.916v3.916z" fill="#EFC579"/><path d="M60.48 73.651H35.846l.063-16.107h24.604V73.65h-.031zm-21.476-3.158h18.318v-9.791H39.035l-.031 9.79z" fill="#EFC579"/><path d="M53.153 66.23h-9.98v-8.687h9.98v8.686zm-6.822-3.16h3.663v-2.368h-3.663v2.369z" fill="#EFC579"/></g><defs><clipPath id="clip0"><path fill="#fff" transform="translate(15 39.73)" d="M0 0h130v80.539H0z"/></clipPath></defs></svg>