<svg width="160" height="160" fill="none" xmlns="http://www.w3.org/2000/svg"><circle cx="68.085" cy="87.943" r="68.085" fill="#ECF0F7"/><circle cx="114.61" cy="49.361" r="45.39" fill="#F7F1F6"/><g clip-path="url(#clip0)"><path d="M145 144.608H53.562V133.36c0-25.222 20.515-45.737 45.738-45.737s45.737 20.515 45.737 45.737v11.248H145zm-87.7-3.737h83.963v-7.511c0-23.167-18.833-42-42-42-23.168 0-42.001 18.833-42.001 42v7.511h.037z" fill="#EFC579"/><path d="M72.395 133.36H68.66c0-16.889 13.75-30.641 30.64-30.641 8.184 0 15.919 3.214 21.711 9.006l1.383 1.383-18.535 16.59-2.503-2.765 15.545-13.938c-4.896-4.259-11.061-6.539-17.6-6.539-14.835 0-26.905 12.07-26.905 26.904z" fill="url(#paint0_linear)"/><path d="M101.168 89.492h-3.737v5.68h3.737v-5.68zM78.98 94.428l-3.237 1.869 2.84 4.919 3.236-1.869-2.84-4.918zm-16.74 15.378l-1.869 3.236 4.919 2.84 1.868-3.236-4.919-2.84zm-1.13 21.686h-5.68v3.737h5.68v-3.737zm58.5-37.072l-2.839 4.919 3.236 1.868 2.84-4.92-3.237-1.868zm16.752 15.373l-4.918 2.842 1.87 3.235 4.918-2.842-1.87-3.235zm6.807 21.699h-5.68v3.737h5.68v-3.737z" fill="#EFC579"/><path d="M99.3 137.508a6.268 6.268 0 01-6.278-6.278 6.267 6.267 0 016.278-6.277 6.267 6.267 0 016.278 6.277 6.268 6.268 0 01-6.278 6.278zm0-8.819a2.544 2.544 0 00-2.54 2.541 2.544 2.544 0 002.54 2.541 2.543 2.543 0 002.541-2.541 2.543 2.543 0 00-2.54-2.541z" fill="#49A08A"/><path d="M76.656 41.96H40.073V23.613h36.583V41.96zM43.81 38.224h29.109V27.35h-29.11v10.874z" fill="#AD6FA1"/><path d="M101.729 77.085h-3.737V34.674H80.056v-3.737h21.673v46.148zM50.162 137.47H15V30.937h21.673v3.736H18.737v99.061h31.425v3.736z" fill="#3476A4"/><path d="M54.086 101.897h-4.671v3.737h4.67v-3.737zm-.598 7.137h-4.073v3.737h4.073v-3.737zm10.276-21.411H49.415v3.737h14.349v-3.737zm11.023-7.137H49.415v3.736h25.372v-3.736zm-7.062-21.411h-18.31v3.736h18.31v-3.736zM82 66.212H49.414v3.737h32.584v-3.737zm-48.952 4.446l-5.568-5.53 2.654-2.653 2.914 2.914 6.315-6.352 2.653 2.653-8.968 8.968zm0 21.486l-5.568-5.568 2.654-2.615 2.914 2.877 6.315-6.315 2.653 2.653-8.968 8.968zm0 21.449l-5.568-5.531 2.654-2.653 2.914 2.915 6.315-6.315 2.653 2.616-8.968 8.968z" fill="#49A08A"/><path d="M60.562 30.907h-3.984v3.759h3.984v-3.758zm-7.968 0H48.61v3.759h3.984v-3.758zm15.936 0h-3.985v3.759h3.984v-3.758z" fill="#AD6FA1"/><path d="M101.395 126.926l2.508 2.715 18.279-16.582-2.754-2.553-18.033 16.42z" fill="#49A08A"/></g><defs><linearGradient id="paint0_linear" x1="71.402" y1="132.389" x2="122.393" y2="133.36" gradientUnits="userSpaceOnUse"><stop stop-color="#AD6FA1"/><stop offset=".156" stop-color="#EFC579"/><stop offset=".333" stop-color="#EFC579"/><stop offset="1" stop-color="#49A08A"/></linearGradient><clipPath id="clip0"><path fill="#fff" transform="translate(15 15.392)" d="M0 0h130v129.215H0z"/></clipPath></defs></svg>