<svg width="160" height="160" fill="none" xmlns="http://www.w3.org/2000/svg"><circle cx="68.085" cy="87.943" r="68.085" fill="#ECF0F7"/><circle cx="114.61" cy="49.361" r="45.39" fill="#F7F1F6"/><g clip-path="url(#clip0)"><path d="M134.71 125.649H10.03V38.326h124.68v87.323zm2.66-89.984h-130v92.645h130V35.665z" fill="#3476A4"/><path d="M20.724 73.077H16.82v3.903h3.904v-3.903zm0-9.914H16.82v3.904h3.904v-3.904zm0-9.298H16.82v3.904h3.904v-3.904zm0-9.295H16.82v3.904h3.904v-3.903zm37.771 0H26.03v3.904h32.465v-3.903zm0 9.295H26.03v3.904h32.465v-3.904zm0 9.298H26.03v3.904h32.465v-3.904z" fill="#3476A4"/><path d="M88.552 54.138L74.718 67.972l2.02 2.02L90.573 56.16l-2.02-2.02zm30.059-1.318l-8.442 8.442 2.026 2.026 8.442-8.442-2.026-2.026z" fill="#EFC579"/><path d="M112.946 84.668h-3.008v17.209h3.008V84.668z" fill="#AD6FA1"/><path d="M110.778 99.802L98.392 112.64l2.156 2.08 12.386-12.838-2.156-2.08z" fill="#AD6FA1"/><path d="M98.328 54.126l-2.042 2.043 6.476 6.476 2.042-2.042-6.476-6.477z" fill="#EFC579"/><path d="M58.495 73.077H26.03v3.903h32.465v-3.903z" fill="#3476A4"/><path d="M107.132 61.004c.552 0 1.089.092 1.603.275l.004.002.005.003.195.072a4.841 4.841 0 012.594 2.55l.017.04c.244.58.368 1.2.368 1.844 0 .608-.11 1.194-.328 1.748l-.026.061a4.821 4.821 0 01-2.829 2.7 4.742 4.742 0 01-1.6.275 4.772 4.772 0 01-2.041-.455l-.012-.007-.012-.005a4.778 4.778 0 01-2.367-2.508l-.026-.06a4.744 4.744 0 01-.328-1.749c0-.643.124-1.262.368-1.844l.017-.037a4.795 4.795 0 012.334-2.435l.007-.003.007-.002c.094-.045.166-.078.232-.106l.007-.002.007-.002a4.705 4.705 0 011.804-.355zm0-2.66a7.45 7.45 0 00-3.216.727 7.466 7.466 0 00-3.655 3.84 7.381 7.381 0 00-.575 2.875 7.409 7.409 0 00.551 2.815 7.476 7.476 0 004.017 4.054 7.387 7.387 0 002.876.577 7.387 7.387 0 002.876-.577 7.46 7.46 0 004.017-4.054c.002-.002.002-.005.002-.005a7.422 7.422 0 00.549-2.81 7.37 7.37 0 00-.577-2.874l-.01-.024a7.473 7.473 0 00-4.366-4.12 7.512 7.512 0 00-2.489-.424zm15.916-13.724c.551 0 1.088.091 1.602.274l.005.002.004.003.195.072a4.843 4.843 0 012.595 2.55l.016.038c.244.58.369 1.199.369 1.844 0 .608-.111 1.194-.329 1.748l-.026.06a4.82 4.82 0 01-2.829 2.701 4.74 4.74 0 01-1.602.275 4.774 4.774 0 01-2.041-.455l-.012-.008-.012-.004a4.77 4.77 0 01-2.365-2.508l-.025-.061a4.723 4.723 0 01-.329-1.748c0-.643.125-1.262.369-1.844l.016-.04a4.786 4.786 0 012.334-2.432l.007-.003.007-.002c.092-.045.167-.08.233-.106l.007-.002.007-.002a4.696 4.696 0 011.804-.352zm0-2.66a7.447 7.447 0 00-3.217.727 7.463 7.463 0 00-3.645 3.817c-.005.007-.007.014-.01.023a7.378 7.378 0 00-.577 2.874 7.412 7.412 0 00.551 2.815 7.48 7.48 0 004.017 4.054 7.39 7.39 0 002.876.577 7.39 7.39 0 002.876-.577 7.454 7.454 0 004.017-4.054c.002-.002.002-.005.002-.005a7.422 7.422 0 00.549-2.81 7.37 7.37 0 00-.577-2.874l-.01-.023a7.472 7.472 0 00-4.365-4.12 7.48 7.48 0 00-2.487-.425z" fill="#EFC579"/><path d="M111.528 85.593c1.875 0 3.712.317 5.46.938l.004.003.005.002c.249.087.472.171.687.26a16.456 16.456 0 018.84 8.7l.047.112a16.142 16.142 0 011.26 6.292c0 2.076-.382 4.089-1.136 5.99l-.072.176a16.416 16.416 0 01-9.635 9.201c-1.75.621-3.587.938-5.46.938-2.188 0-4.307-.425-6.306-1.262a12.694 12.694 0 01-.71-.322l-.012-.007-.012-.007a16.283 16.283 0 01-8.06-8.544l-.074-.176a16.173 16.173 0 01-1.135-5.987c0-2.189.425-4.307 1.26-6.292l.047-.11a16.305 16.305 0 017.962-8.305l.007-.005.007-.002c.324-.157.594-.28.852-.382l.007-.003.007-.002a16.1 16.1 0 016.16-1.206zm0-2.66c-2.536 0-4.957.495-7.169 1.4-.347.141-.683.293-1.02.458a19.017 19.017 0 00-9.288 9.724c-.01.019-.02.037-.024.059a18.846 18.846 0 00-1.468 7.324 18.836 18.836 0 001.405 7.169 19.03 19.03 0 009.375 9.938 18.86 18.86 0 008.189 1.858 18.873 18.873 0 007.322-1.469 19.013 19.013 0 0010.236-10.327c.005-.004.005-.009.005-.009a18.847 18.847 0 001.4-7.16c0-2.595-.52-5.072-1.468-7.324-.005-.02-.014-.038-.024-.06a19.024 19.024 0 00-10.308-10.18 16.35 16.35 0 00-.814-.308 18.849 18.849 0 00-6.349-1.093z" fill="#AD6FA1"/><path d="M93.101 46.975c.551 0 1.088.091 1.602.274l.005.003.005.002.192.073a4.843 4.843 0 012.595 2.55l.016.037c.244.58.368 1.2.368 1.844a4.74 4.74 0 01-.328 1.748l-.026.061a4.821 4.821 0 01-2.83 2.7 4.743 4.743 0 01-1.601.275 4.768 4.768 0 01-2.041-.455l-.012-.007-.012-.005a4.768 4.768 0 01-2.365-2.508l-.025-.06a4.74 4.74 0 01-.329-1.749c0-.642.124-1.262.368-1.844l.017-.037a4.794 4.794 0 012.337-2.435l.006-.003.007-.002c.094-.045.167-.077.233-.106l.007-.002.007-.002a4.7 4.7 0 011.804-.352zm0-2.66a7.451 7.451 0 00-3.216.727 7.463 7.463 0 00-3.656 3.84 7.376 7.376 0 00-.577 2.874 7.41 7.41 0 00.552 2.815 7.478 7.478 0 004.016 4.054 7.39 7.39 0 002.876.577 7.386 7.386 0 002.876-.577 7.459 7.459 0 004.017-4.054l.002-.004a7.426 7.426 0 00.549-2.811 7.411 7.411 0 00-.584-2.897 7.477 7.477 0 00-4.364-4.12 7.467 7.467 0 00-2.491-.424zM72.137 67.94a4.735 4.735 0 011.806.351 4.843 4.843 0 012.595 2.55l.016.038c.244.58.369 1.199.369 1.844 0 .607-.11 1.194-.329 1.748l-.023.06a4.822 4.822 0 01-2.827 2.7 4.743 4.743 0 01-1.603.275 4.77 4.77 0 01-2.04-.455l-.012-.007-.012-.005a4.78 4.78 0 01-2.367-2.508l-.024-.06a4.74 4.74 0 01-.328-1.748c0-.643.124-1.262.368-1.844l.017-.038a4.8 4.8 0 012.334-2.435l.007-.002.007-.003c.094-.044.167-.077.232-.105l.007-.003.007-.002a4.668 4.668 0 011.8-.352zm0-2.661a7.449 7.449 0 00-3.217.727 7.464 7.464 0 00-3.655 3.84 7.385 7.385 0 00-.575 2.874 7.407 7.407 0 00.552 2.816 7.478 7.478 0 004.016 4.053 7.39 7.39 0 002.876.578 7.386 7.386 0 002.877-.578 7.459 7.459 0 004.016-4.053l.002-.005a7.416 7.416 0 00.55-2.81A7.37 7.37 0 0079 69.846a7.474 7.474 0 00-4.375-4.143 7.445 7.445 0 00-2.49-.425z" fill="#EFC579"/><path d="M27.666 118.2H19.48v-17.539h8.186V118.2zm2.66-20.199H16.82v22.86h13.506v-22.86zM46.183 118.2h-8.186v-12.863h8.186V118.2zm2.66-15.523H35.337v18.184h13.506v-18.184zM64.7 118.2h-8.186V86.642H64.7V118.2zm2.658-34.219H53.852v36.88h13.506v-36.88zM83.217 118.2h-8.185V95.983h8.185V118.2zm2.658-24.877H72.37v27.538h13.506V93.323z" fill="#49A08A"/><path d="M99.841 89.735l-2.039 2.195 12.932 12.012 2.039-2.195-12.932-12.012z" fill="#AD6FA1"/></g><defs><clipPath id="clip0"><path fill="#fff" transform="translate(7.37 23.015)" d="M0 0h130v113.969H0z"/></clipPath></defs></svg>