<svg width="115" height="51" viewBox="0 0 115 51" fill="none" xmlns="http://www.w3.org/2000/svg">
<path d="M49.6436 39.2389L50.4913 38.3172C50.6474 38.519 50.8498 38.6803 51.0813 38.7875C51.3128 38.8946 51.5667 38.9446 51.8215 38.9331C52.3367 38.9331 52.8109 38.658 52.8109 38.1674C52.8109 37.5947 52.271 37.4284 51.6388 37.4284H51.1646V36.402H51.6717C52.2546 36.402 52.6775 36.2276 52.6775 35.7123C52.6775 35.3018 52.2362 35.0821 51.8379 35.0821C51.6143 35.0765 51.3921 35.1197 51.1868 35.2087C50.9816 35.2976 50.7982 35.4303 50.6494 35.5974L49.8283 34.7229C50.3025 34.2426 50.9676 33.9018 51.9652 33.9018C53.2543 33.9018 54.1021 34.4909 54.1021 35.4886C54.1142 35.7896 54.0249 36.0859 53.8484 36.3301C53.672 36.5743 53.4187 36.7522 53.1291 36.8352V36.8803C53.7778 37.0548 54.2766 37.5208 54.2766 38.3172C54.2766 39.5304 53.1127 40.1298 52.0391 40.1298C50.9655 40.1298 50.1834 39.789 49.6436 39.2389ZM57.3762 34.0763H58.7556L61.2025 39.9594H59.6219L59.1641 38.8037H56.8917L56.4525 39.9594H54.9068L57.3762 34.0763ZM58.772 37.6686L58.0413 35.6487L57.3023 37.6686H58.772ZM62.1057 34.0763H63.5036V36.4698H63.5282L65.6302 34.0742H67.4099L64.8748 36.7859L67.566 39.9594H65.7185L63.5323 37.2498H63.5159V39.9594H62.1057V34.0763ZM68.2762 39.9594L68.4507 38.7873C68.6234 38.8395 68.802 38.8698 68.9823 38.8776C69.5058 38.8776 69.6803 38.5779 69.9204 38.0976L69.9471 38.0463L67.7014 34.0722H69.3436L70.7231 36.7592L72.0204 34.0722H73.6174L71.4128 38.2639C70.8729 39.2902 70.4316 40.0579 69.2184 40.0579C68.9014 40.0661 68.5847 40.033 68.2762 39.9594ZM74.5103 34.0722H79.6155V39.9594H78.1929V35.2792H75.9349V39.9594H74.5124L74.5103 34.0722ZM80.9703 36.9912C80.9703 35.1047 82.3354 33.9121 84.1726 33.9121C86.0097 33.9121 87.381 35.1006 87.381 36.9912C87.381 38.8817 86.018 40.1175 84.1726 40.1175C82.3271 40.1175 80.9703 38.8571 80.9703 36.9953V36.9912ZM85.8599 36.9912C85.8599 35.9648 85.1702 35.195 84.1726 35.195C83.1749 35.195 82.4914 35.9607 82.4914 36.9912C82.4914 38.0545 83.1831 38.8202 84.1726 38.8202C85.162 38.8202 85.8599 38.0586 85.8599 36.9953V36.9912ZM91.7718 37.7815C91.3434 37.8978 90.9019 37.9592 90.458 37.9642C89.1278 37.9642 88.4956 37.4489 88.4956 36.2419V34.0763H89.8997V35.8888C89.8997 36.5621 90.183 36.8044 90.848 36.8044C91.1624 36.81 91.4753 36.7592 91.7718 36.6545V34.0763H93.1922V39.9594H91.7718V37.7815ZM94.8221 34.0722H96.2447V36.3056H98.5396V34.0763H99.9601V39.9594H98.5396V37.4961H96.2447V39.9594H94.8221V34.0722ZM101.596 34.0722H103.019V36.2337H103.766C104.998 36.2337 106.061 36.7325 106.061 38.0812C106.061 39.4011 104.998 39.9512 103.774 39.9512H101.596V34.0722ZM103.649 38.8284C104.222 38.8284 104.638 38.6231 104.638 38.0791C104.638 37.5351 104.246 37.3401 103.649 37.3401H103.008V38.8284H103.649ZM106.74 34.0722H108.155V39.9594H106.74V34.0722ZM109.784 34.0722H111.189V37.9477H111.221L113.479 34.0722H114.984V39.9594H113.58V36.1803H113.547L111.31 39.9594H109.789L109.784 34.0722ZM110.872 32.4444L111.581 32.3027C111.63 32.6517 111.913 32.859 112.328 32.859C112.742 32.859 113.018 32.6538 113.069 32.3027L113.783 32.4444C113.65 33.2511 113.085 33.6083 112.328 33.6083C111.57 33.6083 111.002 33.2552 110.879 32.4485L110.872 32.4444Z" fill="#FDFEFE"/>
<path d="M40.8192 28.4995H26.604V30.0062H40.8192V28.4995Z" fill="#EB5757"/>
<path d="M40.8192 23.9175H26.604V25.2374H40.8192V23.9175Z" fill="#EB5757"/>
<path d="M40.8192 14.7583H26.604V15.7026H40.8192V14.7583Z" fill="#EB5757"/>
<path d="M40.8192 19.3379H26.604V20.471H40.8192V19.3379Z" fill="#EB5757"/>
<path d="M40.8192 10.1787H26.604V11.0162H40.8192V10.1787Z" fill="#EB5757"/>
<path d="M40.8192 5.60107H26.604V6.32774H40.8192V5.60107Z" fill="#EB5757"/>
<path d="M40.8192 1.021H26.604V1.68403H40.8192V1.021Z" fill="#EB5757"/>
<path d="M14.6819 30.5845L0.659668 34.0987L1.54029 37.338L15.3141 33.3146C14.8986 32.4864 14.6821 31.5727 14.6819 30.6461V30.5845Z" fill="#EB5757"/>
<path d="M8.80859 46.9742L11.2411 48.5815L18.8095 36.3308C18.1548 36.1182 17.5421 35.7931 16.999 35.3701L8.80859 46.9742Z" fill="#EB5757"/>
<path d="M23.4654 50.6683L25.8958 50.1777L22.9583 36.1411C22.3579 36.3944 21.7199 36.547 21.0698 36.5927L23.4654 50.6683Z" fill="#EB5757"/>
<path d="M0.441895 27.0229L0.443949 30.5865L14.6817 30.3237V27.0229H0.441895Z" fill="#EB5757"/>
<path d="M18.9164 36.3574L15.8496 50.2544L18.4894 50.7676L20.9527 36.6038C20.848 36.6038 20.7474 36.6181 20.6345 36.6181C20.0497 36.6191 19.4679 36.5333 18.9082 36.3636" fill="#EB5757"/>
<path d="M32.4788 47.0496L24.779 34.9385C24.2721 35.4229 23.6853 35.816 23.0444 36.1003L30.5841 48.2525L32.4788 47.0496Z" fill="#EB5757"/>
<path d="M15.3528 33.3911L3.46338 41.251L5.239 43.8334L16.9006 35.2899C16.2596 34.7701 15.7328 34.1237 15.3528 33.3911Z" fill="#EB5757"/>
<path d="M24.8306 34.8937L36.4921 43.2031L37.6642 41.5609L26.0088 33.2412C25.7138 33.8574 25.3152 34.4184 24.8306 34.8998" fill="#EB5757"/>
<path d="M26.2036 32.7872L40.1191 36.0408L40.5296 34.2857L26.5834 31.0444C26.5467 31.6414 26.4186 32.2291 26.2036 32.7872Z" fill="#EB5757"/>
<path d="M14.6817 0.413574H0.441895V4.64425H14.6817V0.413574Z" fill="#EB5757"/>
<path d="M14.6817 5.71582H0.441895V9.81308H14.6817V5.71582Z" fill="#EB5757"/>
<path d="M14.6817 11.0156H0.441895V14.9794H14.6817V11.0156Z" fill="#EB5757"/>
<path d="M14.6817 20.0882V16.3789H0.441895L0.443949 20.0882H14.6817Z" fill="#EB5757"/>
<path d="M14.6817 25.4612V21.6719H0.441895L0.443949 25.4612H14.6817Z" fill="#EB5757"/>
<path d="M114.984 22.7847V1.24951H109.471L103.614 10.5258L97.7515 1.24951H92.2461V22.7847H97.6776V10.7844H97.7372L103.614 18.9995L109.508 10.7598H109.567V22.7847H114.984Z" fill="#FDFEFE"/>
<path d="M69.151 14.7113V1.24951H63.74V14.8961C63.74 16.9899 62.3503 18.3057 60.0451 18.3057C57.7399 18.3057 56.3502 16.9899 56.3502 14.8961V1.24951H50.9043V14.7113C50.9043 20.0997 54.7922 23.3862 60.0287 23.3862C65.2652 23.3862 69.151 20.1018 69.151 14.7113Z" fill="#FDFEFE"/>
<path d="M87.6829 16.8024C87.6829 9.27914 78.6344 9.63837 78.6344 6.83023C78.6344 5.65402 79.589 4.9992 80.913 4.9992C82.539 4.99875 84.1137 5.5682 85.3633 6.60854L87.0794 2.62624C85.4023 1.24886 83.1607 0.653564 80.8001 0.653564C76.8999 0.653564 73.6155 3.02857 73.6155 7.01703C73.6155 13.7192 82.7953 13.1383 82.7953 16.942C82.7953 17.9294 82.0153 18.6601 80.5086 18.6601C78.5626 18.6601 76.4975 17.566 75.5697 16.7511C75.1222 17.4572 73.0161 20.9879 73.0161 20.9879C75.4075 22.7841 78.2259 23.3814 80.7939 23.3814C86.3137 23.3814 87.6767 19.239 87.6767 16.8024" fill="#FDFEFE"/>
<path d="M53.4926 43.7549H52.1132L49.6499 49.6421H51.1977L51.6308 48.4864H53.9073L54.365 49.6421H55.9436L53.4926 43.7549ZM52.0311 47.3492L52.7783 45.3293L53.5111 47.3492H52.0311Z" fill="#FDFEFE"/>
<path d="M56.395 49.6072L56.51 48.4269C56.6218 48.4674 56.74 48.4875 56.8589 48.4864C57.4912 48.4864 57.8853 47.9712 57.8853 45.8343V43.7549H62.3726V49.6421H60.9521V44.9619H59.2483V45.783C59.2483 48.6568 58.6325 49.7078 57.2099 49.7078C56.9353 49.7062 56.6618 49.6724 56.395 49.6072Z" fill="#FDFEFE"/>
<path d="M65.8399 45.9123H65.1029V43.7549H63.666V49.6421H65.846C67.0777 49.6421 68.1328 49.092 68.1328 47.77C68.1348 46.4152 67.0777 45.9123 65.8399 45.9123ZM65.7331 48.507H65.1029V47.0187H65.7434C66.3407 47.0187 66.7307 47.2445 66.7307 47.7577C66.7307 48.2709 66.3038 48.5111 65.7331 48.5111V48.507Z" fill="#FDFEFE"/>
<path d="M71.4189 43.7549C70.1626 43.7549 69.0993 44.2209 69.0993 45.5674C69.081 45.9355 69.1854 46.2992 69.396 46.6016C69.6066 46.904 69.9116 47.128 70.2632 47.2384L68.7832 49.6421H70.4254L71.657 47.4539H72.1558V49.6421H73.5763V43.7549H71.4189ZM72.1579 46.3742H71.5421C70.9673 46.3742 70.4952 46.1689 70.4952 45.6188C70.4952 45.0686 70.9447 44.8859 71.4928 44.8859H72.1579V46.3742Z" fill="#FDFEFE"/>
<path d="M75.2104 43.7549H76.6309V45.9841H78.9259V43.7549H80.3464V49.6421H78.9259V47.1809H76.6309V49.6421H75.2104V43.7549Z" fill="#FDFEFE"/>
<path d="M81.7031 46.6906C81.7031 44.8042 83.099 43.5972 84.8951 43.5972C85.7162 43.5972 86.6071 43.8969 87.0977 44.4634L86.1329 45.4262C85.99 45.2505 85.8083 45.1103 85.6021 45.0166C85.3959 44.9229 85.1707 44.8783 84.9444 44.8863C83.955 44.8863 83.2488 45.652 83.2488 46.6906C83.2488 47.7622 83.9386 48.495 84.9198 48.495C85.1606 48.5021 85.3996 48.4514 85.6167 48.3471C85.8339 48.2428 86.0229 48.088 86.1678 47.8956L87.1552 48.8275C86.8692 49.1475 86.5161 49.4005 86.1213 49.5687C85.7264 49.7369 85.2994 49.816 84.8705 49.8005C83.0579 49.8005 81.7031 48.536 81.7031 46.6906Z" fill="#FDFEFE"/>
</svg>
