<svg width="61" height="53" viewBox="0 0 61 53" fill="none" xmlns="http://www.w3.org/2000/svg">
<path d="M28.4767 26.9329C27.6604 28.2237 26.5565 29.3082 25.2513 30.1015C23.9462 30.8948 22.4752 31.3755 20.9535 31.5058L17.7035 24.5676H20.0688C20.5713 24.5659 21.0653 24.4378 21.5053 24.1952C21.9454 23.9526 22.3173 23.6033 22.587 23.1792C22.8566 22.7552 23.0153 22.2702 23.0484 21.7688C23.0814 21.2674 22.9879 20.7658 22.7763 20.31C22.5345 19.7961 22.1516 19.3615 21.6722 19.0569C21.1929 18.7524 20.6368 18.5903 20.0688 18.5896H14.8967L11.6294 11.6167H20.0688C21.8549 11.6162 23.6082 12.0957 25.1453 13.0051C26.6825 13.9145 27.947 15.2204 28.8064 16.786C29.6659 18.3516 30.0888 20.1195 30.0308 21.9046C29.9728 23.6897 29.436 25.4263 28.4767 26.9329Z" fill="#EB5757"/>
<path d="M36.5899 31.5514H34.3476L31.0771 24.5801H33.3195L36.5899 31.5514Z" fill="#EB5757"/>
<path d="M41.8457 31.5514H38.8969L35.6265 24.5801H38.5752L41.8457 31.5514Z" fill="#EB5757"/>
<path d="M46.9642 31.5514H43.309L40.0386 24.5801H43.6938L46.9642 31.5514Z" fill="#EB5757"/>
<path d="M9.57623 31.552H7.33391L4.06348 24.5791H6.3058L9.57623 31.552Z" fill="#EB5757"/>
<path d="M14.832 31.552H11.8832L8.61279 24.5791H11.5615L14.832 31.552Z" fill="#EB5757"/>
<path d="M19.9505 31.552H16.2969L13.0249 24.5791H16.6801L19.9505 31.552Z" fill="#EB5757"/>
<path d="M24.9209 12.8989C24.211 14.5871 23.0187 16.0282 21.4933 17.0417C19.9678 18.0552 18.1773 18.5959 16.3459 18.5961H14.8904L11.6231 11.6232H16.3538C16.7451 11.6232 17.1301 11.5244 17.4731 11.3361C17.8161 11.1478 18.1061 10.8759 18.3161 10.5458C18.5262 10.2156 18.6495 9.83777 18.6747 9.44726C18.7 9.05676 18.6263 8.6662 18.4605 8.31175C18.272 7.91198 17.974 7.57386 17.6011 7.33662C17.2282 7.09938 16.7957 6.97274 16.3538 6.9714H9.44705L6.17188 0.00634766H16.3459C18.1113 0.0108041 19.8392 0.515863 21.3291 1.4629C22.819 2.40993 24.0098 3.7601 24.7632 5.35668C25.3189 6.53191 25.6202 7.81123 25.6474 9.11094C25.6746 10.4106 25.427 11.7014 24.9209 12.8989Z" fill="#EB5757"/>
<path d="M26.3022 12.7995C27.7774 13.8335 28.9692 15.2215 29.7682 16.836C30.5672 18.4506 30.9479 20.24 30.8752 22.04L37.2268 8.49466L42.0836 0.00634766H32.307L26.3022 12.7995Z" fill="#EB5757"/>
<path d="M42.0838 0H32.252L37.1686 8.49462L47.9797 31.5517H56.878L42.0838 0Z" fill="#EB5757"/>
<path d="M0 43.2818L0.778976 42.4334C0.922208 42.6198 1.10812 42.7691 1.32106 42.8687C1.534 42.9683 1.76774 43.0154 2.00263 43.0058C2.47569 43.0058 2.91407 42.7535 2.91407 42.3025C2.91407 41.7759 2.41577 41.6229 1.83548 41.6229H1.3987V40.6768H1.87176C2.4079 40.6768 2.79738 40.5191 2.79738 40.046C2.79738 39.6644 2.39212 39.4657 2.02471 39.4657C1.81917 39.4607 1.61499 39.5004 1.42631 39.5821C1.23763 39.6638 1.06895 39.7855 0.931938 39.9388L0.173462 39.1346C0.610256 38.6915 1.22208 38.3856 2.13982 38.3856C3.32563 38.3856 4.10461 38.928 4.10461 39.8458C4.11636 40.1227 4.03455 40.3956 3.87237 40.6204C3.71018 40.8453 3.47706 41.009 3.21052 41.0852V41.1088C3.80658 41.2665 4.26545 41.697 4.26545 42.424C4.26545 43.5404 3.19475 44.0907 2.21552 44.0907C1.19686 44.0923 0.496715 43.7864 0 43.2818ZM7.11329 38.5322H8.38267L10.6297 43.9472H9.17741L8.75639 42.8844H6.66072L6.26335 43.9472H4.84416L7.11329 38.5322ZM8.39685 41.8358L7.72354 39.9782L7.03129 41.8358H8.39685ZM11.4639 38.5322H12.749V40.7399H12.7727L14.7075 38.5322H16.3443L14.0105 41.0253L16.4815 43.9472H14.7753L12.7648 41.4542H12.749V43.9472H11.4639V38.5322ZM17.1406 43.9472L17.2983 42.8686C17.4577 42.9168 17.6224 42.9448 17.7887 42.9522C18.2618 42.9522 18.4305 42.6778 18.6528 42.2347L18.6749 42.189L16.6108 38.5322H18.1167L19.3877 41.0048L20.5814 38.5338H22.0494L20.0232 42.3893C19.5249 43.3354 19.1196 44.0403 18.0032 44.0403C17.7123 44.0468 17.4218 44.0155 17.139 43.9472H17.1406ZM22.8773 38.5322H27.5732V43.9472H26.2691V39.6408H24.1877V43.9472H22.8804L22.8773 38.5322ZM28.8205 41.2129C28.8205 39.4784 30.082 38.3745 31.7646 38.3745C33.4471 38.3745 34.7165 39.4689 34.7165 41.2129C34.7165 42.9569 33.4628 44.0876 31.7646 44.0876C30.0663 44.0876 28.819 42.9301 28.819 41.2176L28.8205 41.2129ZM33.3178 41.2129C33.3178 40.2668 32.687 39.5604 31.7646 39.5604C30.8421 39.5604 30.2192 40.2636 30.2192 41.2129C30.2192 42.1906 30.85 42.8939 31.7646 42.8939C32.6791 42.8939 33.3162 42.1953 33.3162 41.2176L33.3178 41.2129ZM38.7548 41.9383C38.3612 42.0466 37.9552 42.1033 37.547 42.107C36.3233 42.107 35.7414 41.6339 35.7414 40.5301V38.5322H37.0345V40.2006C37.0345 40.8187 37.2947 41.041 37.9065 41.041C38.1952 41.0458 38.4824 40.9994 38.7548 40.9038V38.5385H40.0636V43.9535H38.7548V41.9383ZM41.5648 38.5322H42.8721V40.5822H44.9819V38.5322H46.2907V43.9472H44.9819V41.6828H42.8721V43.9472H41.5648V38.5322ZM47.7903 38.5322H49.0976V40.5207H49.7851C50.9252 40.5207 51.8965 40.9795 51.8965 42.2268C51.8965 43.4426 50.9173 43.9472 49.793 43.9472H47.7903V38.5322ZM49.6826 42.9065C50.2108 42.9065 50.594 42.7078 50.594 42.219C50.594 41.7301 50.2345 41.5378 49.6826 41.5378H49.0944V42.9065H49.6826ZM52.5209 38.5322H53.8203V43.9472H52.5209V38.5322ZM55.3199 38.5322H56.6129V42.096H56.6429L58.7228 38.5322H60.0994V43.9472H58.8079V40.4671H58.7843L56.7202 43.9472H55.3199V38.5322ZM56.3212 37.0342L56.9725 36.9033C57.0182 37.2187 57.2784 37.4158 57.66 37.4158C58.0416 37.4158 58.2907 37.225 58.3412 36.9033L58.9988 37.0342C58.8758 37.7753 58.3554 38.1049 57.66 38.1049C56.9646 38.1049 56.4442 37.7753 56.3291 37.0342H56.3212ZM15.2342 47.4416H16.4957L18.7443 52.8566H17.292L16.871 51.7937H14.7911L14.3937 52.8566H12.9745L15.2342 47.4416ZM16.5193 50.753L15.8618 48.8891L15.1743 50.7483L16.5193 50.753ZM19.1732 52.8329L19.2804 51.7464C19.3818 51.7819 19.4884 51.8 19.5958 51.8001C20.1777 51.8001 20.5419 51.327 20.5419 49.3606V47.4353H24.6702V52.8502H23.363V48.5454H21.7956V49.2944C21.7956 51.9325 21.2216 52.9039 19.9222 52.9039C19.6728 52.9037 19.4243 52.8756 19.1811 52.8203L19.1732 52.8329ZM25.867 47.4479H27.1743V49.4363H27.8618C29.0019 49.4363 29.9732 49.8952 29.9732 51.1425C29.9732 52.3583 28.994 52.8629 27.8697 52.8629H25.8749L25.867 47.4479ZM27.7593 51.8237C28.2875 51.8237 28.6691 51.6234 28.6691 51.1346C28.6691 50.6458 28.3096 50.4534 27.7593 50.4534H27.1711V51.8237H27.7593ZM31.9459 50.6395C31.6225 50.5382 31.3419 50.3325 31.1481 50.0545C30.9543 49.7765 30.8583 49.442 30.8752 49.1036C30.8752 47.8642 31.8544 47.4353 33.0087 47.4353H34.9971V52.8502H33.6805V50.8397H33.2232L32.0831 52.8502H30.5756L31.9459 50.6395ZM33.6805 49.851V48.4823H33.0686C32.564 48.4823 32.1525 48.64 32.1525 49.1556C32.1525 49.6713 32.5877 49.851 33.1159 49.851H33.6805ZM36.4889 47.4416H37.7961V49.4915H39.9075V47.4416H41.2148V52.8566H39.9075V50.5874H37.7961V52.8502H36.4889V47.4416ZM42.4621 50.1412C42.4621 48.4066 43.7472 47.3028 45.3982 47.3028C46.1551 47.3028 46.9751 47.5788 47.4245 48.0912L46.5383 48.9774C46.4065 48.8159 46.2391 48.6871 46.0493 48.6009C45.8595 48.5147 45.6523 48.4736 45.4439 48.4807C44.5341 48.4807 43.8844 49.184 43.8844 50.1396C43.8844 51.1267 44.5152 51.8001 45.4219 51.8001C45.6431 51.8069 45.8627 51.7604 46.0622 51.6646C46.2617 51.5689 46.4352 51.4266 46.5682 51.2497L47.4781 52.106C47.005 52.6563 46.286 53.0001 45.3761 53.0001C43.7094 52.989 42.4636 51.8332 42.4636 50.1349L42.4621 50.1412Z" fill="#FDFEFE"/>
</svg>
