<svg width="115" height="26" viewBox="0 0 115 26" fill="none" xmlns="http://www.w3.org/2000/svg">
<path d="M17.5969 0.0153809H24.7354L16.7046 12.5077L24.9138 25H17.7754L12.7785 17.1477L7.78153 25H0.643066L8.8523 12.5077L0.821528 0.0153809H7.9243L12.7785 7.86769L17.5969 0.0153809Z" fill="#FDFEFE"/>
<path d="M36.6552 19.8246C43.175 20.1815 47.589 20.36 49.8971 20.36C50.4443 20.36 50.8726 20.2053 51.182 19.896C51.5151 19.5629 51.6817 19.1227 51.6817 18.5754V15.3631H43.4724C40.974 15.3631 39.1537 14.8039 38.0115 13.6855C36.8932 12.5434 36.334 10.7231 36.334 8.22461V7.15384C36.334 4.65538 36.8932 2.84697 38.0115 1.72861C39.1537 0.586458 40.974 0.0153809 43.4724 0.0153809H56.0004V5.01231H44.9001C43.4724 5.01231 42.7586 5.72615 42.7586 7.15384V7.86769C42.7586 9.29538 43.4724 10.0092 44.9001 10.0092H51.3247C53.6566 10.0092 55.3699 10.5565 56.4644 11.6511C57.559 12.7456 58.1063 14.4589 58.1063 16.7908V18.5754C58.1063 20.9073 57.559 22.6205 56.4644 23.7151C55.3699 24.8096 53.6566 25.3569 51.3247 25.3569C50.1112 25.3569 48.8263 25.3331 47.47 25.2855L44.1863 25.1428C41.7592 25.0238 39.2488 24.8572 36.6552 24.6431V19.8246Z" fill="#FDFEFE"/>
<path d="M61.3158 0.0153809H76.3066C78.805 0.0153809 80.6134 0.586458 81.7318 1.72861C82.874 2.84697 83.445 4.65538 83.445 7.15384V10.3662C83.445 12.3411 83.1119 13.8759 82.4457 14.9705C81.8032 16.065 80.7681 16.7908 79.3404 17.1477L83.802 25H76.842L72.7374 17.5046H67.7404V25H61.3158V0.0153809ZM77.0204 7.15384C77.0204 5.72615 76.3066 5.01231 74.8789 5.01231H67.7404V12.5077H74.8789C76.3066 12.5077 77.0204 11.7938 77.0204 10.3662V7.15384Z" fill="#FDFEFE"/>
<path d="M108.42 11.08L103.423 20.0031H98.426L93.4291 11.08V25H87.0045V0.0153809H93.786L100.925 13.2215L108.063 0.0153809H114.845V25H108.42V11.08Z" fill="#FDFEFE"/>
<circle cx="28.5" cy="12.5" r="3.5" fill="#EB5757"/>
</svg>
