<svg width="64" height="79" viewBox="0 0 64 79" fill="none" xmlns="http://www.w3.org/2000/svg">
<path d="M51.9999 27.8882H37.9175V29.3843H51.9999V27.8882Z" fill="#EB5757"/>
<path d="M51.9999 23.3384H37.9175V24.6491H51.9999V23.3384Z" fill="#EB5757"/>
<path d="M51.9999 14.2441H37.9175V15.1817H51.9999V14.2441Z" fill="#EB5757"/>
<path d="M51.9999 18.7915H37.9175V19.9166H51.9999V18.7915Z" fill="#EB5757"/>
<path d="M51.9999 9.69629H37.9175V10.528H51.9999V9.69629Z" fill="#EB5757"/>
<path d="M51.9999 5.15088H37.9175V5.87244H51.9999V5.15088Z" fill="#EB5757"/>
<path d="M51.9999 0.603027H37.9175V1.2614H51.9999V0.603027Z" fill="#EB5757"/>
<path d="M26.107 29.9585L12.2158 33.4481L13.0882 36.6645L26.7333 32.6695C26.3216 31.8471 26.1072 30.9398 26.107 30.0197V29.9585Z" fill="#EB5757"/>
<path d="M20.2886 46.2334L22.6984 47.8294L30.1961 35.6648C29.5475 35.4537 28.9405 35.1309 28.4025 34.7109L20.2886 46.2334Z" fill="#EB5757"/>
<path d="M34.8083 49.9012L37.216 49.414L34.306 35.4761C33.7112 35.7276 33.0791 35.8791 32.4351 35.9245L34.8083 49.9012Z" fill="#EB5757"/>
<path d="M12 26.4224L12.002 29.9609L26.1067 29.7V26.4224H12Z" fill="#EB5757"/>
<path d="M30.3018 35.6914L27.2637 49.4906L29.8788 50.0002L32.3191 35.936C32.2154 35.936 32.1157 35.9502 32.0039 35.9502C31.4245 35.9512 30.8481 35.866 30.2937 35.6975" fill="#EB5757"/>
<path d="M43.7378 46.3082L36.1099 34.2822C35.6078 34.7632 35.0264 35.1536 34.3916 35.4359L41.8608 47.5026L43.7378 46.3082Z" fill="#EB5757"/>
<path d="M26.7715 32.7456L14.9932 40.5503L16.7522 43.1145L28.3048 34.6311C27.6699 34.1149 27.1479 33.473 26.7715 32.7456Z" fill="#EB5757"/>
<path d="M36.1606 34.2375L47.7132 42.4886L48.8744 40.8579L37.3279 32.5967C37.0356 33.2085 36.6408 33.7656 36.1606 34.2436" fill="#EB5757"/>
<path d="M37.521 32.146L51.3064 35.3767L51.7131 33.634L37.8972 30.4155C37.8608 31.0083 37.734 31.5919 37.521 32.146Z" fill="#EB5757"/>
<path d="M26.1067 0H12V4.20093H26.1067V0Z" fill="#EB5757"/>
<path d="M26.1067 5.26514H12V9.33359H26.1067V5.26514Z" fill="#EB5757"/>
<path d="M26.1067 10.5273H12V14.4632H26.1067V10.5273Z" fill="#EB5757"/>
<path d="M26.1067 19.5362V15.853H12L12.002 19.5362H26.1067Z" fill="#EB5757"/>
<path d="M26.1067 24.8716V21.1089H12L12.002 24.8716H26.1067Z" fill="#EB5757"/>
<path d="M64.0002 78.3914V56.603H58.4935L52.6443 65.9884L46.789 56.603H41.2905V78.3914H46.7152V66.25H46.7747L52.6443 74.5616L58.5303 66.2251H58.5898V78.3914H64.0002Z" fill="#FDFEFE"/>
<path d="M18.2239 70.2231V56.603H12.8197V70.41C12.8197 72.5284 11.4317 73.8597 9.12939 73.8597C6.82705 73.8597 5.43909 72.5284 5.43909 70.41V56.603H0V70.2231C0 75.6748 3.88302 78.9999 9.113 78.9999C14.343 78.9999 18.2239 75.6769 18.2239 70.2231Z" fill="#FDFEFE"/>
<path d="M36.7325 72.3386C36.7325 64.727 27.6953 65.0904 27.6953 62.2493C27.6953 61.0592 28.6487 60.3967 29.971 60.3967C31.595 60.3963 33.1677 60.9724 34.4158 62.025L36.1297 57.9959C34.4547 56.6023 32.2159 56 29.8582 56C25.9629 56 22.6827 58.4029 22.6827 62.4383C22.6827 69.2192 31.851 68.6314 31.851 72.4799C31.851 73.4788 31.072 74.2182 29.5671 74.2182C27.6236 74.2182 25.5611 73.1112 24.6344 72.2867C24.1875 73.0012 22.084 76.5733 22.084 76.5733C24.4725 78.3906 27.2873 78.995 29.8521 78.995C35.365 78.995 36.7263 74.8039 36.7263 72.3386" fill="#FDFEFE"/>
</svg>
