<svg width="160" height="160" viewBox="0 0 160 160" fill="none" xmlns="http://www.w3.org/2000/svg">
<circle cx="68.0851" cy="87.9433" r="68.0851" fill="#ECF0F7"/>
<circle cx="114.61" cy="49.3618" r="45.3901" fill="#F7F1F6"/>
<g clip-path="url(#clip0)">
<path d="M127.252 56.2554H67.8062C67.4021 56.2554 67.0146 56.4159 66.7289 56.7016C66.4432 56.9873 66.2827 57.3748 66.2827 57.7788C66.2827 58.1829 66.4432 58.5703 66.7289 58.856C67.0146 59.1417 67.4021 59.3023 67.8062 59.3023H127.252C127.656 59.3023 128.043 59.1417 128.329 58.856C128.615 58.5703 128.775 58.1829 128.775 57.7788C128.775 57.3748 128.615 56.9873 128.329 56.7016C128.043 56.4159 127.656 56.2554 127.252 56.2554Z" fill="#3476A4"/>
<path d="M127.252 68.8773H67.8062C67.4021 68.8773 67.0146 69.0378 66.7289 69.3235C66.4432 69.6092 66.2827 69.9967 66.2827 70.4008C66.2827 70.8048 66.4432 71.1923 66.7289 71.478C67.0146 71.7637 67.4021 71.9242 67.8062 71.9242H127.252C127.656 71.9242 128.043 71.7637 128.329 71.478C128.615 71.1923 128.775 70.8048 128.775 70.4008C128.775 69.9967 128.615 69.6092 128.329 69.3235C128.043 69.0378 127.656 68.8773 127.252 68.8773Z" fill="#3476A4"/>
<path d="M50.6083 97.8102C50.2042 97.8102 49.8167 97.9707 49.531 98.2564C49.2453 98.5421 49.0848 98.9296 49.0848 99.3336V103.436H36.1582V90.5292H42.6214C43.0254 90.5292 43.4129 90.3687 43.6986 90.083C43.9843 89.7973 44.1448 89.4098 44.1448 89.0057C44.1448 88.6017 43.9843 88.2142 43.6986 87.9285C43.4129 87.6428 43.0254 87.4823 42.6214 87.4823H35.3312C34.7428 87.4829 34.1786 87.7169 33.7625 88.1329C33.3463 88.5489 33.1121 89.113 33.1113 89.7014V104.263C33.1121 104.851 33.3462 105.416 33.7624 105.832C34.1785 106.248 34.7427 106.482 35.3312 106.482H49.9118C50.5003 106.482 51.0645 106.248 51.4807 105.832C51.8968 105.416 52.131 104.851 52.1317 104.263V99.3336C52.1317 98.9296 51.9712 98.5421 51.6855 98.2564C51.3998 97.9707 51.0123 97.8102 50.6083 97.8102Z" fill="#3476A4"/>
<path d="M50.6083 61.728C50.2042 61.728 49.8167 61.8885 49.531 62.1742C49.2453 62.4599 49.0848 62.8474 49.0848 63.2515V67.3536H36.1582V54.447H42.6214C43.0254 54.447 43.4129 54.2865 43.6986 54.0008C43.9843 53.7151 44.1448 53.3276 44.1448 52.9236C44.1448 52.5195 43.9843 52.1321 43.6986 51.8464C43.4129 51.5607 43.0254 51.4001 42.6214 51.4001H35.3312C34.7428 51.4008 34.1786 51.6347 33.7625 52.0507C33.3463 52.4668 33.1121 53.0309 33.1113 53.6193V68.1808C33.1121 68.7693 33.3462 69.3334 33.7624 69.7495C34.1785 70.1656 34.7427 70.3996 35.3312 70.4002H49.9118C50.5003 70.3996 51.0645 70.1656 51.4807 69.7495C51.8968 69.3334 52.131 68.7693 52.1317 68.1808V63.2515C52.1317 62.8474 51.9712 62.4599 51.6855 62.1742C51.3998 61.8885 51.0123 61.728 50.6083 61.728Z" fill="#3476A4"/>
<path d="M34.6349 61.728C35.0389 61.728 35.4264 61.8885 35.7121 62.1742C35.9978 62.4599 36.1583 62.8474 36.1583 63.2515V67.3536H49.085V54.447H42.6218C42.2177 54.447 41.8302 54.2865 41.5445 54.0008C41.2588 53.7151 41.0983 53.3276 41.0983 52.9236C41.0983 52.5195 41.2588 52.1321 41.5445 51.8464C41.8302 51.5607 42.2177 51.4001 42.6218 51.4001H49.9119C50.5004 51.4008 51.0645 51.6347 51.4807 52.0507C51.8969 52.4668 52.131 53.0309 52.1318 53.6193V68.1808C52.1311 68.7693 51.897 69.3334 51.4808 69.7495C51.0646 70.1656 50.5004 70.3996 49.9119 70.4002H35.3314C34.7429 70.3996 34.1787 70.1656 33.7625 69.7495C33.3463 69.3334 33.1122 68.7693 33.1115 68.1808V63.2515C33.1115 62.8474 33.272 62.4599 33.5577 62.1742C33.8434 61.8885 34.2309 61.728 34.6349 61.728Z" fill="#3476A4"/>
<path d="M53.3905 86.627C53.2367 86.499 53.0592 86.4026 52.8681 86.3433C52.6771 86.2839 52.4762 86.2628 52.277 86.281C52.0777 86.2993 51.8841 86.3566 51.707 86.4498C51.5299 86.5429 51.3729 86.67 51.245 86.8238L43.9784 95.5561L41.6466 93.6696C41.4913 93.5412 41.3122 93.445 41.1195 93.3863C40.9268 93.3276 40.7244 93.3078 40.524 93.3278C40.3236 93.3479 40.1291 93.4075 39.9519 93.5032C39.7747 93.5989 39.6182 93.7288 39.4915 93.8854C39.3648 94.042 39.2704 94.2221 39.2138 94.4154C39.1572 94.6087 39.1394 94.8113 39.1616 95.0115C39.1838 95.2117 39.2455 95.4055 39.343 95.5817C39.4406 95.7579 39.5722 95.913 39.7301 96.038L42.5332 98.3059C42.9938 98.6848 43.5783 98.8798 44.1741 98.8535C44.7699 98.8272 45.3349 98.5814 45.7603 98.1635L45.8215 98.1046L53.587 88.7725C53.715 88.6187 53.8114 88.4412 53.8708 88.2502C53.9302 88.0592 53.9513 87.8583 53.9331 87.6591C53.9148 87.4598 53.8575 87.2661 53.7644 87.0891C53.6713 86.912 53.5443 86.755 53.3905 86.627Z" fill="#49A08A"/>
<path d="M127.252 88.5441H114.875C114.47 88.5441 114.083 88.7046 113.797 88.9903C113.512 89.276 113.351 89.6635 113.351 90.0675C113.351 90.4715 113.512 90.859 113.797 91.1447C114.083 91.4304 114.47 91.5909 114.875 91.5909H127.252C127.656 91.5909 128.043 91.4304 128.329 91.1447C128.615 90.859 128.775 90.4715 128.775 90.0675C128.775 89.6635 128.615 89.276 128.329 88.9903C128.043 88.7046 127.656 88.5441 127.252 88.5441Z" fill="#3476A4"/>
<path d="M87.1129 88.5441H67.8062C67.4021 88.5441 67.0146 88.7046 66.7289 88.9903C66.4432 89.276 66.2827 89.6635 66.2827 90.0675C66.2827 90.4715 66.4432 90.859 66.7289 91.1447C67.0146 91.4304 67.4021 91.5909 67.8062 91.5909H87.1129C87.517 91.5909 87.9045 91.4304 88.1902 91.1447C88.4759 90.859 88.6364 90.4715 88.6364 90.0675C88.6364 89.6635 88.4759 89.276 88.1902 88.9903C87.9045 88.7046 87.517 88.5441 87.1129 88.5441Z" fill="#3476A4"/>
<path d="M73.0095 101.166H67.8062C67.4021 101.166 67.0146 101.327 66.7289 101.612C66.4432 101.898 66.2827 102.286 66.2827 102.69C66.2827 103.094 66.4432 103.481 66.7289 103.767C67.0146 104.053 67.4021 104.213 67.8062 104.213H73.0095C73.4135 104.213 73.801 104.053 74.0867 103.767C74.3724 103.481 74.5329 103.094 74.5329 102.69C74.5329 102.286 74.3724 101.898 74.0867 101.612C73.801 101.327 73.4135 101.166 73.0095 101.166Z" fill="#3476A4"/>
<path d="M134.936 17.5392H25.0638C23.2036 17.5411 21.4201 18.2809 20.1046 19.5962C18.7891 20.9115 18.0491 22.6949 18.0469 24.5551V115.606C18.0486 117.464 18.787 119.247 20.1003 120.562C21.4136 121.877 23.1946 122.617 25.0532 122.622L83.1563 123.033L86.0996 134.599C86.1047 134.619 86.1105 134.64 86.1166 134.66C86.7822 136.92 88.1637 138.903 90.0534 140.31C91.943 141.716 94.2385 142.471 96.5943 142.461H117.836C120.737 142.457 123.517 141.303 125.568 139.251C127.619 137.2 128.773 134.419 128.775 131.518V122.961L134.981 122.623C136.833 122.609 138.605 121.864 139.911 120.55C141.217 119.236 141.951 117.459 141.953 115.607V24.5551C141.951 22.6949 141.211 20.9115 139.895 19.5962C138.58 18.2809 136.796 17.5411 134.936 17.5392ZM25.0638 20.5861H134.936C135.989 20.5871 136.998 21.0055 137.742 21.7496C138.486 22.4937 138.905 23.5027 138.906 24.5551V39.9797H21.0938V24.5551C21.095 23.5027 21.5137 22.4937 22.258 21.7496C23.0023 21.0055 24.0114 20.5871 25.0638 20.5861ZM125.729 131.518C125.727 133.611 124.894 135.617 123.415 137.098C121.935 138.578 119.929 139.411 117.836 139.414H96.5943C94.8999 139.422 93.2486 138.88 91.8876 137.871C90.5266 136.862 89.529 135.439 89.0441 133.815L85.8195 121.143C85.0593 118.158 84.0452 115.245 82.7884 112.434L82.5391 111.842C84.1625 111.842 85.7616 112.236 87.199 112.991C88.6364 113.745 89.869 114.837 90.791 116.174L93.4108 119.969V125.627C93.4108 126.031 93.5713 126.419 93.857 126.704C94.1427 126.99 94.5302 127.151 94.9343 127.151C95.3383 127.151 95.7258 126.99 96.0115 126.704C96.2972 126.419 96.4577 126.031 96.4577 125.627V84.2223C96.4577 83.4623 96.7596 82.7335 97.297 82.1961C97.8344 81.6587 98.5633 81.3567 99.3233 81.3567C100.083 81.3567 100.812 81.6587 101.35 82.1961C101.887 82.7335 102.189 83.4623 102.189 84.2223V111.265C102.189 111.414 102.211 111.562 102.254 111.704V117.915C102.254 118.319 102.414 118.706 102.7 118.992C102.986 119.278 103.373 119.438 103.777 119.438C104.181 119.438 104.569 119.278 104.855 118.992C105.14 118.706 105.301 118.319 105.301 117.915V109.406C105.301 108.803 105.54 108.225 105.966 107.799C106.393 107.373 106.971 107.134 107.573 107.134C108.176 107.134 108.754 107.373 109.18 107.799C109.606 108.225 109.846 108.803 109.846 109.406V111.133C109.806 111.398 109.786 111.667 109.786 111.936V117.916C109.786 118.32 109.947 118.707 110.232 118.993C110.518 119.279 110.906 119.439 111.31 119.439H111.339C111.339 119.439 111.359 119.439 111.369 119.439C111.773 119.439 112.161 119.279 112.446 118.993C112.732 118.707 112.893 118.32 112.893 117.916V111.405C113.022 110.816 113.365 110.296 113.855 109.944C114.344 109.593 114.947 109.435 115.546 109.5C116.146 109.566 116.7 109.851 117.102 110.3C117.504 110.75 117.726 111.332 117.725 111.935V119.495C117.725 119.899 117.885 120.286 118.171 120.572C118.457 120.858 118.844 121.018 119.248 121.018C119.652 121.018 120.04 120.858 120.325 120.572C120.611 120.286 120.772 119.899 120.772 119.495V114.322C120.768 113.995 120.83 113.67 120.953 113.366C121.076 113.063 121.258 112.787 121.488 112.554C121.719 112.321 121.993 112.136 122.296 112.01C122.598 111.884 122.922 111.819 123.25 111.819C123.577 111.819 123.902 111.884 124.204 112.01C124.506 112.136 124.781 112.321 125.011 112.554C125.242 112.787 125.424 113.063 125.547 113.366C125.67 113.67 125.731 113.995 125.728 114.322L125.729 131.518ZM134.937 119.577C134.909 119.577 134.881 119.577 134.854 119.579L128.775 119.909V114.323C128.777 113.332 128.511 112.359 128.007 111.506C127.502 110.653 126.778 109.952 125.909 109.476C125.04 108.999 124.059 108.766 123.068 108.799C122.078 108.833 121.115 109.132 120.28 109.667C119.96 108.959 119.493 108.327 118.91 107.813C118.328 107.299 117.643 106.915 116.9 106.685C116.158 106.456 115.375 106.387 114.604 106.483C113.833 106.579 113.092 106.837 112.428 107.241C112.139 106.587 111.721 105.999 111.198 105.511C110.676 105.023 110.06 104.646 109.389 104.402C108.717 104.159 108.002 104.054 107.289 104.094C106.575 104.133 105.877 104.317 105.236 104.634V84.2223C105.236 82.6543 104.613 81.1504 103.505 80.0416C102.396 78.9328 100.892 78.3099 99.3238 78.3099C97.7557 78.3099 96.2519 78.9328 95.1431 80.0416C94.0342 81.1504 93.4113 82.6543 93.4113 84.2223V114.606L93.2991 114.443C92.097 112.701 90.4897 111.276 88.6154 110.292C86.7411 109.309 84.6559 108.795 82.5391 108.795C82.029 108.795 81.527 108.923 81.0789 109.167C80.6307 109.41 80.2507 109.762 79.9733 110.19C79.696 110.618 79.5301 111.109 79.4909 111.618C79.4516 112.126 79.5402 112.637 79.7486 113.102L80.0053 113.676C80.9202 115.724 81.6988 117.83 82.3362 119.981L25.0628 119.574C24.0108 119.573 23.0022 119.155 22.2581 118.411C21.5141 117.667 21.0954 116.659 21.0938 115.607V43.0265H138.906V115.607C138.905 116.659 138.486 117.668 137.742 118.412C136.998 119.156 135.989 119.574 134.936 119.575L134.937 119.577Z" fill="#3476A4"/>
<path d="M30.793 35.9299C31.948 35.9299 33.0771 35.5874 34.0374 34.9457C34.9978 34.3041 35.7463 33.392 36.1883 32.3249C36.6303 31.2578 36.7459 30.0836 36.5206 28.9508C36.2953 27.818 35.7391 26.7774 34.9224 25.9607C34.1056 25.144 33.0651 24.5878 31.9323 24.3625C30.7994 24.1371 29.6252 24.2528 28.5582 24.6948C27.4911 25.1368 26.579 25.8853 25.9373 26.8456C25.2956 27.806 24.9531 28.9351 24.9531 30.0901C24.9547 31.6384 25.5705 33.1229 26.6654 34.2177C27.7602 35.3125 29.2446 35.9283 30.793 35.9299ZM30.793 27.2992C31.3454 27.2992 31.8854 27.463 32.3447 27.7699C32.804 28.0767 33.1619 28.513 33.3733 29.0233C33.5847 29.5336 33.64 30.0952 33.5323 30.637C33.4245 31.1788 33.1585 31.6764 32.7679 32.0671C32.3773 32.4577 31.8796 32.7237 31.3378 32.8314C30.7961 32.9392 30.2345 32.8839 29.7241 32.6725C29.2138 32.4611 28.7776 32.1031 28.4707 31.6438C28.1638 31.1845 28 30.6445 28 30.0921C28.0007 29.3516 28.2951 28.6416 28.8188 28.1179C29.3424 27.5943 30.0524 27.2998 30.793 27.2992Z" fill="#AD6FA1"/>
<path d="M46.188 35.9299C47.343 35.9299 48.4721 35.5874 49.4324 34.9457C50.3928 34.3041 51.1413 33.392 51.5833 32.3249C52.0253 31.2578 52.141 30.0836 51.9156 28.9508C51.6903 27.818 51.1341 26.7774 50.3174 25.9607C49.5007 25.144 48.4601 24.5878 47.3273 24.3625C46.1945 24.1371 45.0203 24.2528 43.9532 24.6948C42.8861 25.1368 41.974 25.8853 41.3323 26.8456C40.6906 27.806 40.3481 28.9351 40.3481 30.0901C40.3498 31.6384 40.9655 33.1229 42.0604 34.2177C43.1552 35.3125 44.6397 35.9283 46.188 35.9299ZM46.188 27.2992C46.7404 27.2992 47.2804 27.463 47.7397 27.7699C48.199 28.0767 48.557 28.513 48.7684 29.0233C48.9797 29.5336 49.0351 30.0952 48.9273 30.637C48.8195 31.1788 48.5535 31.6764 48.1629 32.0671C47.7723 32.4577 47.2747 32.7237 46.7329 32.8314C46.1911 32.9392 45.6295 32.8839 45.1192 32.6725C44.6088 32.4611 44.1726 32.1031 43.8657 31.6438C43.5588 31.1845 43.395 30.6445 43.395 30.0921C43.3957 29.3516 43.6902 28.6416 44.2138 28.1179C44.7374 27.5943 45.4475 27.2998 46.188 27.2992Z" fill="#EFC579"/>
<path d="M61.5835 35.9299C62.7385 35.9299 63.8676 35.5874 64.8279 34.9457C65.7883 34.3041 66.5368 33.392 66.9788 32.3249C67.4208 31.2578 67.5365 30.0836 67.3111 28.9508C67.0858 27.818 66.5296 26.7774 65.7129 25.9607C64.8962 25.144 63.8556 24.5878 62.7228 24.3625C61.59 24.1371 60.4158 24.2528 59.3487 24.6948C58.2816 25.1368 57.3695 25.8853 56.7278 26.8456C56.0862 27.806 55.7437 28.9351 55.7437 30.0901C55.7453 31.6384 56.3611 33.1229 57.4559 34.2177C58.5507 35.3125 60.0352 35.9283 61.5835 35.9299ZM61.5835 27.2992C62.1359 27.2992 62.6759 27.463 63.1352 27.7699C63.5945 28.0767 63.9525 28.513 64.1639 29.0233C64.3753 29.5336 64.4306 30.0952 64.3228 30.637C64.215 31.1788 63.949 31.6764 63.5584 32.0671C63.1678 32.4577 62.6702 32.7237 62.1284 32.8314C61.5866 32.9392 61.025 32.8839 60.5147 32.6725C60.0043 32.4611 59.5681 32.1031 59.2612 31.6438C58.9543 31.1845 58.7905 30.6445 58.7905 30.0921C58.7912 29.3516 59.0857 28.6416 59.6093 28.1179C60.133 27.5943 60.843 27.2998 61.5835 27.2992Z" fill="#49A08A"/>
<path d="M84.3164 31.3263H133.811C134.215 31.3263 134.603 31.1658 134.888 30.8801C135.174 30.5944 135.335 30.2069 135.335 29.8029C135.335 29.3988 135.174 29.0113 134.888 28.7256C134.603 28.4399 134.215 28.2794 133.811 28.2794H84.3164C83.9124 28.2794 83.5249 28.4399 83.2392 28.7256C82.9535 29.0113 82.793 29.3988 82.793 29.8029C82.793 30.2069 82.9535 30.5944 83.2392 30.8801C83.5249 31.1658 83.9124 31.3263 84.3164 31.3263Z" fill="#3476A4"/>
<g clip-path="url(#clip1)">
<path d="M35.7998 67.7833V69.7333H49.6665V67.7833C49.6665 63.4283 35.7998 63.4283 35.7998 67.7833Z" fill="#3476A4"/>
<path d="M42.7333 63.2334C44.6479 63.2334 46.1999 61.7783 46.1999 59.9834C46.1999 58.1885 44.6479 56.7334 42.7333 56.7334C40.8187 56.7334 39.2666 58.1885 39.2666 59.9834C39.2666 61.7783 40.8187 63.2334 42.7333 63.2334Z" fill="#3476A4"/>
</g>
</g>
<defs>
<clipPath id="clip0">
<rect width="130" height="135.976" fill="white" transform="translate(15 12.0122)"/>
</clipPath>
<clipPath id="clip1">
<rect width="13.8667" height="13" fill="white" transform="translate(35.7998 55.7334)"/>
</clipPath>
</defs>
</svg>
