<svg width="160" height="160" viewBox="0 0 160 160" fill="none" xmlns="http://www.w3.org/2000/svg">
<circle cx="68.0851" cy="87.9433" r="68.0851" fill="#ECF0F7"/>
<circle cx="114.61" cy="49.3618" r="45.3901" fill="#F7F1F6"/>
<g clip-path="url(#clip0)">
<path d="M39.9446 115.605H36.3295V40.23H25.8456V115.605H22.2305V36.6096H39.9446V115.605Z" fill="#EFC579"/>
<path d="M37.3775 40.2302H24.7969V27.8486H37.3775V40.2302ZM28.412 36.6099H33.7624V31.469H28.412V36.6099Z" fill="#EFC579"/>
<path d="M18.6151 60.0697H15V40.5199H25.8454V44.1402H18.6151V60.0697Z" fill="#EFC579"/>
<path d="M31.0872 135.843C30.075 135.843 29.2796 135.047 29.2796 134.033C29.2796 126.503 22.6278 116.692 22.5555 116.619C22.194 116.076 22.1217 115.352 22.447 114.737C22.7724 114.121 23.387 113.759 24.0377 113.759H38.1367C38.8236 113.759 39.4381 114.121 39.7274 114.737C40.0527 115.316 39.9804 116.04 39.6189 116.619C39.5466 116.728 32.8948 126.503 32.8948 134.033C32.8948 135.047 32.0994 135.843 31.0872 135.843ZM27.2913 117.416C28.4482 119.407 29.9304 122.231 31.0872 125.344C32.244 122.231 33.7262 119.371 34.8831 117.416H27.2913Z" fill="#EFC579"/>
<path d="M145 142.758H47.1748V20.9702H69.3355V24.5906H50.7899V139.138H141.385V24.5906H122.839V20.9702H145V142.758Z" fill="#3476A4"/>
<path d="M119.043 39.4339H73.1313V17.2412H119.007V39.4339H119.043ZM76.7465 35.8136H115.392V20.8616H76.7465V35.8136Z" fill="#AD6FA1"/>
<path d="M137.481 131.608H54.6943V32.0848H69.3356V35.7052H58.3095V127.988H133.866V35.7052H122.84V32.0848H137.481V131.608Z" fill="#3476A4"/>
<path d="M97.9672 26.5094H94.2437V30.1297H97.9672V26.5094Z" fill="#AD6FA1"/>
<path d="M90.5566 26.5094H86.833V30.1297H90.5566V26.5094Z" fill="#AD6FA1"/>
<path d="M105.378 26.5094H101.655V30.1297H105.378V26.5094Z" fill="#AD6FA1"/>
<path d="M93.6293 73.3203H90.0142V49.7881H103.643V53.4084H93.6293V73.3203Z" fill="#49A08A"/>
<path d="M100.86 60.468H90.7734V64.0884H100.86V60.468Z" fill="#49A08A"/>
<path d="M74.8305 73.3201H71.2153V53.8789L71.6491 53.3721C74.4328 50.1862 78.0479 49.0277 81.3738 50.2586C84.2659 51.3447 86.2181 54.1685 86.2181 57.282H82.603C82.603 55.6529 81.5907 54.2047 80.0724 53.6255C78.3733 52.9738 76.4934 53.5893 74.7943 55.2546V73.3201H74.8305Z" fill="#49A08A"/>
<path d="M77.9395 64.7402C77.8672 64.7402 77.7949 64.7402 77.7226 64.7402H73.0229V61.1199H77.7588C79.2048 61.0837 80.6147 60.6493 81.5546 59.708C82.2415 59.0201 82.603 58.2236 82.603 57.2823H86.2182C86.2182 59.1649 85.459 60.9389 84.0852 62.2784C82.5307 63.8352 80.2532 64.7402 77.9395 64.7402Z" fill="#49A08A"/>
<path d="M84.3742 73.3923L77.2886 64.0156L80.1807 61.8434L87.2302 71.2201L84.3742 73.3923Z" fill="#49A08A"/>
<path d="M109.572 73.3201H105.957V53.8789L106.39 53.3721C109.174 50.1862 112.825 49.0277 116.115 50.2586C119.007 51.3447 120.959 54.1685 120.959 57.282H117.344C117.344 55.6529 116.332 54.2047 114.814 53.6255C113.115 52.9738 111.235 53.5893 109.536 55.2546V73.3201H109.572Z" fill="#49A08A"/>
<path d="M112.645 64.7402C112.572 64.7402 112.5 64.7402 112.428 64.7402H107.728V61.1199H112.464C113.874 61.0837 115.32 60.6493 116.26 59.708C116.947 59.0201 117.308 58.2236 117.308 57.2823H120.923C120.923 59.1649 120.164 60.9389 118.79 62.2784C117.272 63.8352 114.958 64.7402 112.645 64.7402Z" fill="#49A08A"/>
<path d="M84.7359 97.251H70.2393V82.7334H84.7359V97.251ZM73.8544 93.6306H81.1208V86.3537H73.8544V93.6306Z" fill="#49A08A"/>
<path d="M84.7359 119.046H70.2393V104.528H84.7359V119.046ZM73.8544 115.425H81.1208V108.148H73.8544V115.425Z" fill="#49A08A"/>
<path d="M114.633 106.338H92.2554V109.958H114.633V106.338Z" fill="#49A08A"/>
<path d="M105.342 113.579H92.2554V117.199H105.342V113.579Z" fill="#49A08A"/>
<path d="M114.633 91.8206H92.2554V95.4409H114.633V91.8206Z" fill="#49A08A"/>
<path d="M105.234 84.5798H92.2554V88.2002H105.234V84.5798Z" fill="#49A08A"/>
</g>
<defs>
<clipPath id="clip0">
<rect width="130" height="125.517" fill="white" transform="translate(15 17.2412)"/>
</clipPath>
</defs>
</svg>
