<svg width="160" height="160" viewBox="0 0 160 160" fill="none" xmlns="http://www.w3.org/2000/svg">
<circle cx="68.0851" cy="87.9433" r="68.0851" fill="#ECF0F7"/>
<circle cx="114.61" cy="49.3618" r="45.3901" fill="#F7F1F6"/>
<g clip-path="url(#clip0)">
<path d="M39.5751 125.688H35.5726V36.833H27.0073V125.688H23.0049V32.8306H39.5751V125.688Z" fill="#EFC579"/>
<path d="M37.2935 36.8331H25.2861V24.9058H37.2935V36.8331ZM29.2886 32.8306H33.2911V28.9082H29.2886V32.8306Z" fill="#EFC579"/>
<path d="M19.0025 69.2534H15V36.3531H27.0074V40.3556H19.0025V69.2534Z" fill="#EFC579"/>
<path d="M31.2901 143.699C30.1694 143.699 29.2888 142.819 29.2888 141.698C29.2888 135.094 23.4052 126.489 23.3652 126.409C22.9249 125.808 22.8849 125.008 23.2451 124.367C23.6053 123.687 24.2857 123.287 25.0062 123.287H37.5739C38.3344 123.287 39.0148 123.687 39.335 124.367C39.6952 125.008 39.6152 125.808 39.2149 126.449C39.1349 126.529 33.2913 135.134 33.2913 141.738C33.2913 142.819 32.4107 143.699 31.2901 143.699ZM28.5684 127.289C29.4089 128.81 30.4095 130.731 31.2901 132.893C32.1306 130.771 33.1312 128.81 34.0117 127.289H28.5684Z" fill="#EFC579"/>
<path d="M136.395 143.699H45.8989V24.9058H117.183L136.395 44.0375V143.699ZM49.9014 139.696H132.392V45.7186L115.502 28.9082H49.9014V139.696Z" fill="#3476A4"/>
<path d="M134.394 46.8793H114.341V26.907H118.344V42.8768H134.394V46.8793Z" fill="#3476A4"/>
<path d="M119.864 69.2933H58.9067V73.2958H119.864V69.2933Z" fill="#3476A4"/>
<path d="M119.864 80.1799H58.9067V84.1824H119.864V80.1799Z" fill="#3476A4"/>
<path d="M93.408 91.0667H58.9067V95.0691H93.408V91.0667Z" fill="#3476A4"/>
<path d="M91.6469 101.953H58.9067V105.956H91.6469V101.953Z" fill="#3476A4"/>
<path d="M91.6396 112.857L58.8994 112.984L58.915 116.987L91.6552 116.859L91.6396 112.857Z" fill="#3476A4"/>
<path d="M94.7288 123.887H58.9067V127.889H94.7288V123.887Z" fill="#3476A4"/>
<path d="M80.2799 48.1201H77.6383L77.0379 47.7598L69.5933 42.5566L61.6684 48.1601H59.0268L58.9067 46.1589V24.9458H80.2799V48.1201ZM62.9092 28.9082V42.3565L69.5933 37.6736L76.2774 42.3565V28.9082H62.9092Z" fill="#AD6FA1"/>
<path d="M119.864 58.3667H58.9067V62.3692H119.864V58.3667Z" fill="#3476A4"/>
<path d="M145 138.376H140.998V42.5169L118.944 20.3032H50.3418V16.3008H120.585L145 40.8359V138.376Z" fill="#3476A4"/>
<path d="M112.54 124.527H107.056C103.014 124.527 99.7319 121.245 99.7319 117.203H103.734C103.734 119.044 105.215 120.525 107.056 120.525H112.54C114.381 120.525 115.862 119.044 115.862 117.203C115.862 115.362 114.381 113.881 112.54 113.881H107.056C103.014 113.881 99.7319 110.599 99.7319 106.556C99.7319 102.514 103.054 99.2717 107.056 99.2717H112.54C116.582 99.2717 119.864 102.554 119.864 106.596H115.862C115.862 104.755 114.381 103.274 112.54 103.274H107.056C105.215 103.274 103.734 104.755 103.734 106.596C103.734 108.437 105.215 109.918 107.056 109.918H112.54C116.582 109.918 119.864 113.2 119.864 117.243C119.864 121.245 116.582 124.527 112.54 124.527Z" fill="#49A08A"/>
<path d="M111.819 120.524H107.817V127.889H111.819V120.524Z" fill="#49A08A"/>
<path d="M111.819 95.9094H107.817V102.273H111.819V95.9094Z" fill="#49A08A"/>
</g>
<defs>
<clipPath id="clip0">
<rect width="130" height="127.398" fill="white" transform="translate(15 16.3008)"/>
</clipPath>
</defs>
</svg>
