<svg width="160" height="160" viewBox="0 0 160 160" fill="none" xmlns="http://www.w3.org/2000/svg">
<circle cx="68.0851" cy="87.943" r="68.0851" fill="#ECF0F7"/>
<circle cx="114.61" cy="49.3615" r="45.3901" fill="#F7F1F6"/>
<g clip-path="url(#clip0)">
<path d="M134.71 125.649H10.0305V38.3257H134.71V125.649ZM137.37 35.6653H7.37012V128.31H137.37V35.6653Z" fill="#3476A4"/>
<path d="M20.7236 73.0767H16.8198V76.9804H20.7236V73.0767Z" fill="#3476A4"/>
<path d="M20.7236 63.1628H16.8198V67.0666H20.7236V63.1628Z" fill="#3476A4"/>
<path d="M20.7236 53.8655H16.8198V57.7693H20.7236V53.8655Z" fill="#3476A4"/>
<path d="M20.7236 44.5706H16.8198V48.4743H20.7236V44.5706Z" fill="#3476A4"/>
<path d="M58.4945 44.5706H26.0303V48.4743H58.4945V44.5706Z" fill="#3476A4"/>
<path d="M58.4945 53.8655H26.0303V57.7693H58.4945V53.8655Z" fill="#3476A4"/>
<path d="M58.4945 63.1628H26.0303V67.0666H58.4945V63.1628Z" fill="#3476A4"/>
<path d="M88.5516 54.1384L74.7183 67.9717L76.7388 69.9922L90.5721 56.1589L88.5516 54.1384Z" fill="#EFC579"/>
<path d="M118.611 52.8202L110.169 61.2622L112.195 63.2877L120.637 54.8457L118.611 52.8202Z" fill="#EFC579"/>
<path d="M112.946 84.6685H109.938V101.877H112.946V84.6685Z" fill="#AD6FA1"/>
<path d="M110.778 99.802L98.3921 112.64L100.548 114.72L112.934 101.882L110.778 99.802Z" fill="#AD6FA1"/>
<path d="M98.3282 54.1264L96.2861 56.1685L102.762 62.6447L104.804 60.6026L98.3282 54.1264Z" fill="#EFC579"/>
<path d="M58.4945 73.0767H26.0303V76.9804H58.4945V73.0767Z" fill="#3476A4"/>
<path d="M107.132 61.0044C107.684 61.0044 108.221 61.0959 108.735 61.2789L108.739 61.2812L108.744 61.2836C108.814 61.3094 108.878 61.3328 108.939 61.3563C110.095 61.8302 111.041 62.7592 111.533 63.9064L111.55 63.9463C111.794 64.5258 111.918 65.1451 111.918 65.7903C111.918 66.3979 111.808 66.9844 111.59 67.5381L111.564 67.5991C111.085 68.7674 110.145 69.7175 108.983 70.2031C108.899 70.2383 108.819 70.2688 108.735 70.2993C108.223 70.4823 107.684 70.5738 107.135 70.5738C106.492 70.5738 105.87 70.4495 105.281 70.2031C105.216 70.175 105.152 70.1468 105.094 70.1187L105.082 70.1116L105.07 70.1069C103.993 69.5908 103.153 68.7017 102.703 67.5991L102.677 67.5381C102.459 66.9844 102.349 66.3979 102.349 65.7903C102.349 65.1475 102.473 64.5281 102.717 63.9463L102.734 63.9088C103.191 62.8413 104.019 61.978 105.068 61.4736L105.075 61.4712L105.082 61.4689C105.176 61.4243 105.248 61.3915 105.314 61.3633L105.321 61.361L105.328 61.3586C105.896 61.124 106.504 61.0044 107.132 61.0044ZM107.132 58.344C106.138 58.344 105.187 58.5387 104.317 58.893C104.181 58.9469 104.05 59.0079 103.916 59.0713C102.283 59.8525 100.979 61.2132 100.27 62.8882C100.266 62.8953 100.263 62.9023 100.261 62.9117C99.8878 63.7961 99.686 64.7697 99.686 65.7856C99.686 66.7803 99.8808 67.7304 100.235 68.5961C100.235 68.5961 100.235 68.5985 100.237 68.6008C100.936 70.3111 102.257 71.7069 103.916 72.5022C104.029 72.5562 104.141 72.6078 104.254 72.6547C105.141 73.0277 106.109 73.2319 107.13 73.2319C108.005 73.2319 108.843 73.0817 109.624 72.8025C109.753 72.758 109.88 72.7087 110.006 72.6547C111.824 71.8946 113.277 70.4284 114.023 68.6008C114.025 68.5985 114.025 68.5961 114.025 68.5961C114.379 67.7281 114.574 66.7803 114.574 65.7856C114.574 64.7674 114.37 63.7938 113.997 62.9117C113.994 62.9047 113.992 62.8976 113.987 62.8882C113.223 61.0795 111.763 59.6367 109.941 58.8906C109.835 58.8484 109.729 58.8085 109.621 58.7686C108.845 58.4965 108.007 58.344 107.132 58.344Z" fill="#EFC579"/>
<path d="M123.048 44.6196C123.599 44.6196 124.136 44.7111 124.65 44.8941L124.655 44.8964L124.659 44.8988C124.73 44.9246 124.793 44.9481 124.854 44.9715C126.011 45.4454 126.956 46.3744 127.449 47.5216L127.465 47.5592C127.709 48.1386 127.834 48.758 127.834 49.4032C127.834 50.0108 127.723 50.5973 127.505 51.1509L127.479 51.2119C127.001 52.3803 126.06 53.3304 124.899 53.816C124.814 53.8512 124.735 53.8817 124.65 53.9122C124.139 54.0952 123.599 54.1867 123.048 54.1867C122.405 54.1867 121.783 54.0623 121.194 53.816C121.129 53.7879 121.065 53.7597 121.007 53.7316L120.995 53.7245L120.983 53.7198C119.906 53.2037 119.067 52.3146 118.618 51.2119L118.593 51.1509C118.374 50.5973 118.264 50.0108 118.264 49.4032C118.264 48.7603 118.389 48.141 118.633 47.5592L118.649 47.5193C119.106 46.4519 119.935 45.5885 120.983 45.0865L120.99 45.0841L120.997 45.0818C121.089 45.0372 121.164 45.002 121.23 44.9762L121.237 44.9739L121.244 44.9715C121.811 44.7369 122.419 44.6196 123.048 44.6196ZM123.048 41.9592C122.053 41.9592 121.103 42.154 120.233 42.5082C120.096 42.5622 119.965 42.6232 119.831 42.6865C118.199 43.4677 116.894 44.8284 116.186 46.5035C116.181 46.5105 116.179 46.5175 116.176 46.5269C115.803 47.4114 115.599 48.3826 115.599 49.4008C115.599 50.3955 115.794 51.3457 116.148 52.2113C116.148 52.2113 116.148 52.2137 116.15 52.216C116.85 53.9263 118.17 55.3222 119.829 56.1175C119.939 56.1714 120.054 56.223 120.167 56.27C121.054 56.643 122.023 56.8471 123.043 56.8471C123.918 56.8471 124.756 56.6969 125.537 56.4178C125.666 56.3732 125.793 56.3239 125.919 56.27C127.737 55.5098 129.192 54.0436 129.936 52.216C129.938 52.2137 129.938 52.2113 129.938 52.2113C130.292 51.3433 130.487 50.3955 130.487 49.4008C130.487 48.3826 130.283 47.409 129.91 46.5269C129.907 46.5199 129.905 46.5129 129.9 46.5035C129.136 44.6947 127.676 43.2519 125.854 42.5059C125.748 42.4636 125.642 42.4214 125.535 42.3839C124.763 42.1117 123.923 41.9592 123.048 41.9592Z" fill="#EFC579"/>
<path d="M111.528 85.593C113.403 85.593 115.24 85.9097 116.988 86.5314L116.992 86.5338L116.997 86.5361C117.246 86.6229 117.469 86.7074 117.684 86.7965C121.63 88.4106 124.849 91.5777 126.524 95.4956L126.571 95.6082C127.406 97.5929 127.831 99.7114 127.831 101.9C127.831 103.976 127.449 105.989 126.695 107.89L126.623 108.066C124.997 112.049 121.788 115.284 117.825 116.943C117.539 117.063 117.267 117.168 116.988 117.267C115.238 117.888 113.401 118.205 111.528 118.205C109.34 118.205 107.221 117.78 105.222 116.943C104.976 116.84 104.737 116.732 104.512 116.621L104.5 116.614L104.488 116.607C100.824 114.853 97.9615 111.819 96.4272 108.063L96.3544 107.887C95.6014 105.987 95.219 103.974 95.219 101.9C95.219 99.7114 95.6436 97.5929 96.4788 95.6082L96.5257 95.4979C98.0835 91.8545 100.908 88.9056 104.488 87.193L104.495 87.1883L104.502 87.186C104.826 87.0288 105.096 86.9068 105.354 86.8036L105.361 86.8012L105.368 86.7989C107.317 85.9965 109.391 85.593 111.528 85.593ZM111.528 82.9326C108.992 82.9326 106.571 83.4276 104.359 84.3332C104.012 84.474 103.676 84.6264 103.339 84.7907C99.1767 86.7824 95.8571 90.2475 94.0507 94.5149C94.0413 94.5337 94.0319 94.5525 94.0272 94.5736C93.0794 96.8258 92.5586 99.3032 92.5586 101.898C92.5586 104.429 93.0536 106.85 93.9592 109.058C93.9592 109.058 93.9592 109.063 93.9639 109.067C95.7445 113.426 99.1087 116.978 103.339 119.005C103.622 119.146 103.911 119.275 104.2 119.394C106.456 120.342 108.929 120.863 111.528 120.863C113.757 120.863 115.892 120.478 117.879 119.77C118.208 119.655 118.529 119.528 118.85 119.394C123.484 117.454 127.186 113.722 129.086 109.067C129.091 109.063 129.091 109.058 129.091 109.058C129.996 106.85 130.491 104.429 130.491 101.898C130.491 99.3032 129.971 96.8258 129.023 94.5736C129.018 94.5548 129.009 94.536 128.999 94.5149C127.05 89.905 123.331 86.2288 118.691 84.3332C118.421 84.2229 118.151 84.1221 117.877 84.0259C115.892 83.3174 113.755 82.9326 111.528 82.9326Z" fill="#AD6FA1"/>
<path d="M93.101 46.9748C93.6523 46.9748 94.1895 47.0663 94.7033 47.2493L94.708 47.2517L94.7127 47.254C94.7831 47.2798 94.8464 47.3033 94.905 47.3267C96.0616 47.8006 97.0071 48.7297 97.4997 49.8769L97.5162 49.9144C97.7602 50.4939 97.8845 51.1132 97.8845 51.7584C97.8845 52.366 97.7742 52.9525 97.556 53.5062L97.5302 53.5672C97.0517 54.7355 96.1109 55.6856 94.9496 56.1712C94.8652 56.2064 94.7854 56.2369 94.7009 56.2674C94.1895 56.4504 93.6499 56.5419 93.0986 56.5419C92.4558 56.5419 91.8341 56.4176 91.2453 56.1712C91.1796 56.1431 91.1162 56.1149 91.0576 56.0868L91.0458 56.0797L91.0341 56.0751C89.9573 55.5589 89.1174 54.6698 88.6693 53.5672L88.6435 53.5062C88.4253 52.9525 88.3151 52.366 88.3151 51.7584C88.3151 51.1156 88.4394 50.4962 88.6834 49.9144L88.6998 49.8769C89.1573 48.8094 89.9854 47.9461 91.0365 47.4417L91.0435 47.4394L91.0505 47.437C91.1444 47.3924 91.2171 47.3596 91.2828 47.3314L91.2898 47.3291L91.2969 47.3267C91.8646 47.0921 92.4722 46.9748 93.101 46.9748ZM93.101 44.3145C92.1062 44.3145 91.1561 44.5092 90.2857 44.8634C90.1497 44.9174 90.0183 44.9784 89.8846 45.0417C88.2517 45.8229 86.9473 47.1836 86.2388 48.8587C86.2342 48.8657 86.2318 48.8728 86.2295 48.8822C85.8564 49.7666 85.6523 50.7379 85.6523 51.756C85.6523 52.7507 85.8471 53.7009 86.2013 54.5666C86.2013 54.5666 86.2013 54.5689 86.2037 54.5713C86.9028 56.2815 88.2236 57.6774 89.8822 58.4727C89.9925 58.5266 90.1074 58.5783 90.22 58.6252C91.1068 58.9982 92.0758 59.2023 93.0963 59.2023C93.9713 59.2023 94.8089 59.0522 95.5901 58.773C95.7191 58.7284 95.8458 58.6791 95.9725 58.6252C97.7907 57.8651 99.2428 56.3988 99.9889 54.5713C99.9912 54.5689 99.9912 54.5666 99.9912 54.5666C100.345 53.6985 100.54 52.7507 100.54 51.756C100.54 50.7379 100.336 49.7643 99.9654 48.8822C99.9631 48.8751 99.9607 48.8681 99.956 48.8587C99.1912 47.0499 97.732 45.6071 95.9115 44.8611C95.8059 44.8188 95.7003 44.7766 95.5924 44.7391C94.8159 44.4646 93.976 44.3145 93.101 44.3145Z" fill="#EFC579"/>
<path d="M72.1367 67.9392C72.688 67.9392 73.2253 68.0307 73.7484 68.2184C73.8188 68.2442 73.8822 68.2676 73.9432 68.2911C75.0997 68.765 76.0452 69.694 76.5379 70.8412L76.5543 70.8788C76.7983 71.4582 76.9226 72.0776 76.9226 72.7227C76.9226 73.3303 76.8123 73.9168 76.5942 74.4705L76.5707 74.5315C76.0921 75.6998 75.1514 76.65 73.9901 77.1356C73.9056 77.1708 73.8259 77.2013 73.7437 77.2318C73.2323 77.4148 72.6927 77.5063 72.1414 77.5063C71.4986 77.5063 70.8769 77.3819 70.2881 77.1356C70.2224 77.1074 70.159 77.0793 70.1004 77.0511L70.0886 77.0441L70.0769 77.0394C69.0001 76.5233 68.1602 75.6341 67.7098 74.5315L67.6863 74.4705C67.4681 73.9168 67.3579 73.3303 67.3579 72.7227C67.3579 72.0799 67.4822 71.4606 67.7262 70.8788L67.7426 70.8412C68.2001 69.7738 69.0282 68.9104 70.0769 68.406L70.0839 68.4037L70.091 68.4014C70.1848 68.3568 70.2576 68.3239 70.3232 68.2958L70.3303 68.2934L70.3373 68.2911C70.9004 68.0565 71.5103 67.9392 72.1367 67.9392ZM72.1367 65.2788C71.142 65.2788 70.1919 65.4735 69.3215 65.8278C69.1854 65.8817 69.054 65.9427 68.9203 66.0061C67.2875 66.7873 65.9831 68.148 65.2746 69.823C65.2699 69.8301 65.2676 69.8371 65.2652 69.8465C64.8922 70.7309 64.6904 71.7045 64.6904 72.7204C64.6904 73.7151 64.8851 74.6652 65.2394 75.5309C65.2394 75.5309 65.2394 75.5332 65.2417 75.5356C65.9409 77.2458 67.2617 78.6417 68.9203 79.437C69.0306 79.491 69.1455 79.5426 69.2581 79.5895C70.1449 79.9625 71.1138 80.1666 72.1344 80.1666C73.0094 80.1666 73.847 80.0165 74.6282 79.7373C74.7572 79.6927 74.8839 79.6435 75.0106 79.5895C76.8288 78.8294 78.281 77.3631 79.027 75.5356C79.0293 75.5332 79.0293 75.5309 79.0293 75.5309C79.3836 74.6629 79.5783 73.7151 79.5783 72.7204C79.5783 71.7022 79.3742 70.7286 79.0012 69.8465C78.9988 69.8395 78.9965 69.8324 78.9918 69.823C78.227 68.0143 76.7678 66.5715 74.9449 65.8254C74.8393 65.7832 74.7338 65.7433 74.6258 65.7034C73.8517 65.429 73.0118 65.2788 72.1367 65.2788Z" fill="#EFC579"/>
<path d="M27.6655 118.2H19.4802V100.661H27.6655V118.2ZM30.3259 98.001H16.8198V120.861H30.3259V98.001Z" fill="#49A08A"/>
<path d="M46.1826 118.2H37.9973V105.337H46.1826V118.2ZM48.843 102.677H35.3369V120.861H48.843V102.677Z" fill="#49A08A"/>
<path d="M64.6996 118.2H56.5143V86.6416H64.6996V118.2ZM67.3576 83.9812H53.8516V120.861H67.3576V83.9812Z" fill="#49A08A"/>
<path d="M83.2171 118.2H75.0319V95.9834H83.2171V118.2ZM85.8752 93.323H72.3691V120.861H85.8752V93.323Z" fill="#49A08A"/>
<path d="M99.8412 89.7351L97.8022 91.9302L110.734 103.942L112.773 101.747L99.8412 89.7351Z" fill="#AD6FA1"/>
</g>
<defs>
<clipPath id="clip0">
<rect width="130" height="113.969" fill="white" transform="translate(7.37012 23.0151)"/>
</clipPath>
</defs>
</svg>
