<svg width="1011" height="578" fill="none" xmlns="http://www.w3.org/2000/svg" opacity=".5"><path opacity=".2" d="M100.967 345.906c7.526-21.615 5.457-45.35 1.479-67.884-3.978-22.545-9.795-44.989-9.495-67.884.5-37.381 18.411-74.212 47.657-97.487 29.247-23.274 69.288-32.442 105.691-23.974 23.019 5.359 44.659 17.336 68.278 18.306 24.248.999 47.288-9.718 71.156-14.097 56.674-10.407 117.415 18.116 149.131 66.234 31.715 48.119 34.723 112.663 11.514 165.411-23.209 52.747-70.787 93.207-125.281 111.953-54.485 18.735-115.126 16.566-169.79-1.66-26.808-8.938-52.326-21.585-79.503-29.293-27.177-7.708-57.203-10.117-83.041 1.32L51.24 387.026c22.87-.62 42.19-19.516 49.727-41.12z" fill="url(#paint0_linear)"/><path opacity=".2" d="M550.396 474.355c7.537-21.615 5.458-45.349 1.479-67.884-3.978-22.545-9.795-44.989-9.495-67.884.5-37.381 18.411-74.212 47.658-97.486 29.246-23.275 69.287-32.443 105.69-23.975 23.019 5.359 44.659 17.336 68.278 18.306 24.249 1 47.288-9.718 71.157-14.097 56.673-10.407 117.414 18.116 149.13 66.234 31.707 48.119 34.717 112.664 11.504 165.411-23.209 52.747-70.787 93.208-125.281 111.953-54.484 18.736-115.126 16.566-169.79-1.659-26.808-8.938-52.326-21.585-79.503-29.294-27.187-7.708-57.203-10.117-83.041 1.32l-37.523-19.825c22.88-.61 42.201-19.505 49.737-41.12z" fill="url(#paint1_linear)"/><path d="M178.11 68.476c-4.837-4.281-5.289-11.674-1.008-16.512 4.28-4.838 11.671-5.29 16.508-1.008 4.837 4.28 5.288 11.673 1.008 16.511-4.28 4.838-11.671 5.29-16.508 1.009zm501.685 128.695a5.849 5.849 0 005.847 5.848 5.849 5.849 0 000-11.697 5.85 5.85 0 00-5.847 5.849z" fill="#F8E6CB"/><path d="M477.26 373.139c6.877-25.094 11.885-52.438 2.279-76.612-12.594-31.672-47.528-49.418-81.362-53.477-33.834-4.069-67.908 2.649-101.892 5.239-33.984 2.589-70.377.35-98.394-19.076-38.842-26.933-51.596-79.421-86.649-111.143C82.016 91.626 37.896 82.898.804 96.245" stroke="#D8D8D8" stroke-miterlimit="10"/><path d="M451.522 373.139c6.507-23.734 11.245-49.608 2.159-72.473-11.914-29.963-44.958-46.749-76.963-50.588-32.015-3.849-64.24 2.51-96.385 4.959-32.145 2.45-66.579.33-93.077-18.046-36.752-25.483-48.807-75.132-81.971-105.134C77.638 106.843 35.898 98.585.814 111.211" stroke="#D8D8D8" stroke-miterlimit="10"/><path d="M425.784 373.139c6.128-22.385 10.605-46.769 2.029-68.334-11.234-28.253-42.39-44.079-72.575-47.698-30.186-3.629-60.572 2.369-90.888 4.669-30.316 2.309-62.78.309-87.759-17.016-34.653-24.025-46.018-70.843-77.283-99.137-26.068-23.594-65.42-31.372-98.504-19.465" stroke="#D8D8D8" stroke-miterlimit="10"/><path d="M400.046 373.139c5.758-21.025 9.966-43.94 1.909-64.195-10.555-26.543-39.821-41.41-68.178-44.809-28.356-3.409-56.903 2.219-85.38 4.389-28.476 2.169-58.972.29-82.441-15.986-32.555-22.575-43.23-66.554-72.606-93.128-24.488-22.165-61.46-29.473-92.536-18.286" stroke="#D8D8D8" stroke-miterlimit="10"/><path d="M374.308 373.139c5.388-19.675 9.316-41.11 1.79-60.056-9.866-24.834-37.253-38.74-63.78-41.92-26.528-3.189-53.235 2.08-79.873 4.109-26.637 2.03-55.174.27-77.134-14.956-30.456-21.115-40.451-62.265-67.928-87.129-22.91-20.735-57.503-27.574-86.57-17.106M790.553.318c5.018 17.476-3.918 36.371-16.872 49.128-12.954 12.757-29.536 21.015-44.779 30.933-15.243 9.918-29.976 22.565-35.743 39.81-10.255 30.683 10.685 61.916 20.67 92.688 15.113 46.559 3.339 100.846-29.706 136.958" stroke="#D8D8D8" stroke-miterlimit="10"/><path d="M802.408 3.928c5.017 17.476-3.918 36.371-16.872 49.128C772.582 65.813 756 74.071 740.757 83.99c-15.243 9.918-29.976 22.565-35.743 39.81-10.256 30.683 10.684 61.916 20.67 92.688 15.113 46.559 3.338 100.846-29.706 136.958" stroke="#D8D8D8" stroke-miterlimit="10"/><path d="M814.262 7.536c5.018 17.476-3.918 36.372-16.872 49.129-12.954 12.756-29.536 21.015-44.779 30.932-15.243 9.918-29.976 22.565-35.743 39.811-10.255 30.682 10.685 61.915 20.67 92.688 15.113 46.558 3.339 100.845-29.706 136.957" stroke="#D8D8D8" stroke-miterlimit="10"/><path d="M826.127 11.146c5.017 17.475-3.919 36.37-16.873 49.128-12.953 12.757-29.536 21.015-44.779 30.932-15.242 9.918-29.975 22.565-35.743 39.811-10.255 30.683 10.685 61.915 20.671 92.688 15.112 46.559 3.338 100.846-29.707 136.957" stroke="#D8D8D8" stroke-miterlimit="10"/><defs><linearGradient id="paint0_linear" x1="561.568" y1="267.554" x2="51.23" y2="267.554" gradientUnits="userSpaceOnUse"><stop stop-color="#D1D5DE"/><stop offset="1" stop-color="#DBDBDB"/></linearGradient><linearGradient id="paint1_linear" x1="1011" y1="396.012" x2="500.662" y2="396.012" gradientUnits="userSpaceOnUse"><stop stop-color="#D1D5DE"/><stop offset="1" stop-color="#DBDBDB"/></linearGradient></defs></svg>