<svg width="1440" height="4669" fill="none" xmlns="http://www.w3.org/2000/svg" opacity=".5"><g opacity=".5" clip-path="url(#clip0)"><path opacity=".2" d="M1220.03 813.905c-7.52-21.615-5.45-45.349-1.48-67.884 3.98-22.545 9.8-44.989 9.5-67.884-.5-37.381-18.41-74.212-47.66-97.486-29.24-23.275-69.29-32.443-105.69-23.975-23.02 5.359-44.66 17.336-68.28 18.306-24.245 1-47.285-9.718-71.153-14.097-56.674-10.407-117.415 18.116-149.131 66.235-31.715 48.118-34.723 112.663-11.514 165.41s70.787 93.208 125.281 111.953c54.485 18.736 115.127 16.566 169.787-1.659 26.81-8.938 52.33-21.585 79.51-29.293 27.17-7.709 57.2-10.118 83.04 1.319l37.52-19.825c-22.87-.62-42.19-19.515-49.73-41.12z" fill="url(#paint0_linear)"/><path opacity=".2" d="M770.604 942.354c-7.537-21.615-5.458-45.349-1.479-67.884 3.978-22.544 9.795-44.989 9.495-67.883-.5-37.382-18.411-74.213-47.658-97.487-29.246-23.275-69.287-32.442-105.69-23.974-23.019 5.358-44.659 17.335-68.278 18.305-24.249 1-47.288-9.717-71.157-14.096-56.673-10.408-117.414 18.115-149.13 66.234-31.705 48.118-34.713 112.663-11.504 165.41 23.209 52.748 70.787 93.211 125.281 111.951 54.484 18.74 115.126 16.57 169.79-1.66 26.808-8.94 52.326-21.58 79.503-29.29 27.187-7.708 57.203-10.118 83.041 1.32l37.523-19.826c-22.88-.61-42.201-19.505-49.737-41.12z" fill="url(#paint1_linear)"/><path opacity=".2" d="M1390.26 260.338c-7.53-21.615-5.45-45.35-1.48-67.884 3.98-22.545 9.8-44.989 9.5-67.884-.5-37.381-18.41-74.212-47.66-97.487C1321.38 3.8 1281.33-5.369 1244.93 3.1c-23.02 5.359-44.66 17.336-68.28 18.306-24.25 1-47.28-9.718-71.15-14.097-56.67-10.407-117.418 18.116-149.123 66.234-31.715 48.119-34.724 112.663-11.515 165.421 23.209 52.747 70.788 93.207 125.278 111.953 54.49 18.735 115.13 16.566 169.79-1.66 26.81-8.938 52.33-21.585 79.51-29.293 27.18-7.708 57.2-10.117 83.04 1.32l37.52-19.825c-22.88-.62-42.2-19.516-49.74-41.12z" fill="url(#paint2_linear)"/><path d="M766.445 432.027c4.15-18.354-7.361-36.599-25.711-40.75-18.351-4.151-36.591 7.363-40.741 25.718-4.15 18.354 7.361 36.599 25.712 40.75 18.35 4.151 36.59-7.363 40.74-25.718zm376.445 104.448c4.84-4.281 5.29-11.673 1.01-16.511-4.28-4.838-11.67-5.29-16.51-1.009-4.84 4.281-5.29 11.674-1.01 16.512 4.28 4.838 11.67 5.29 16.51 1.008zM641.204 665.171a5.848 5.848 0 11-11.696 0 5.848 5.848 0 0111.696 0zm555.316-182.897c0 3.23-2.61 5.849-5.84 5.849a5.85 5.85 0 01-5.85-5.849 5.85 5.85 0 015.85-5.848c3.23 0 5.84 2.619 5.84 5.848z" fill="#F8E6CB"/><path d="M626.531 256.578c41.541-.05 82.721 19.086 109.479 50.878 23.199 27.574 35.153 62.785 55.054 92.818 19.901 30.043 53.515 56.387 88.938 49.788 24.319-4.529 43.65-23.934 55.085-45.869 11.434-21.935 16.392-46.559 22.509-70.533 6.127-23.974 13.903-48.309 29.746-67.314 20.088-24.084 52.708-37.081 83.848-33.422" stroke="#D8D8D8" stroke-miterlimit="10"/><path d="M640.444 255.058c38.942-.05 77.544 17.896 102.632 47.689 21.75 25.844 32.955 58.856 51.606 87.009 18.661 28.163 50.166 52.857 83.371 46.669 22.799-4.249 40.921-22.435 51.636-43 10.725-20.565 15.362-43.649 21.1-66.124 5.737-22.475 13.034-45.289 27.887-63.095 18.831-22.575 49.404-34.762 78.604-31.323" stroke="#D8D8D8" stroke-miterlimit="10"/><path d="M654.358 253.539c36.343-.04 72.376 16.696 95.775 44.509 20.301 24.115 30.756 54.927 48.168 81.201 17.412 26.284 46.818 49.328 77.803 43.55 21.28-3.96 38.183-20.935 48.188-40.131 10.005-19.195 14.333-40.73 19.691-61.705 5.357-20.975 12.164-42.26 26.027-58.886 17.572-21.065 46.11-32.442 73.36-29.233" stroke="#D8D8D8" stroke-miterlimit="10"/><path d="M668.271 252.029c33.745-.04 67.199 15.506 88.929 41.32 18.841 22.395 28.556 50.998 44.719 75.392 16.162 24.394 43.469 45.799 72.236 40.44 19.751-3.679 35.453-19.435 44.739-37.261 9.286-17.816 13.314-37.821 18.281-57.286 4.978-19.475 11.295-39.241 24.159-54.677 16.312-19.565 42.806-30.123 68.106-27.144" stroke="#D8D8D8" stroke-miterlimit="10"/><path d="M682.186 250.51c31.145-.04 62.02 14.306 82.071 38.14 17.392 20.666 26.348 47.069 41.271 69.584 14.923 22.514 40.121 42.27 66.668 37.321 18.232-3.399 32.725-17.936 41.291-34.392 8.576-16.446 12.284-34.902 16.872-52.877 4.588-17.976 10.425-36.222 22.3-50.458 15.063-18.056 39.511-27.804 62.861-25.054M843.74 841.139c-6.877-25.094-11.885-52.438-2.279-76.612 12.594-31.672 47.528-49.418 81.362-53.477 33.834-4.069 67.908 2.649 101.887 5.239 33.99 2.589 70.38.349 98.4-19.076 38.84-26.933 51.59-79.421 86.65-111.143 29.22-26.444 73.34-35.172 110.44-21.825" stroke="#D8D8D8" stroke-miterlimit="10"/><path d="M869.478 841.139c-6.507-23.734-11.245-49.608-2.159-72.473 11.914-29.963 44.958-46.749 76.963-50.588 32.015-3.849 64.238 2.51 96.388 4.959 32.14 2.449 66.58.33 93.07-18.046 36.76-25.484 48.81-75.132 81.98-105.135 27.64-25.014 69.38-33.272 104.47-20.645" stroke="#D8D8D8" stroke-miterlimit="10"/><path d="M895.216 841.138c-6.127-22.384-10.605-46.768-2.029-68.333 11.235-28.254 42.39-44.08 72.576-47.699 30.186-3.629 60.567 2.37 90.887 4.669 30.32 2.309 62.78.31 87.76-17.016 34.65-24.024 46.02-70.843 77.28-99.136 26.07-23.595 65.42-31.373 98.51-19.466" stroke="#D8D8D8" stroke-miterlimit="10"/><path d="M920.954 841.138c-5.758-21.024-9.966-43.939-1.909-64.194 10.555-26.544 39.821-41.41 68.178-44.809 28.357-3.41 56.907 2.219 85.377 4.388 28.48 2.17 58.97.29 82.44-15.986 32.56-22.574 43.23-66.554 72.61-93.127 24.49-22.165 61.46-29.473 92.54-18.286" stroke="#D8D8D8" stroke-miterlimit="10"/><path d="M946.691 841.139c-5.387-19.675-9.316-41.11-1.789-60.056 9.865-24.834 37.252-38.741 63.778-41.92 26.53-3.189 53.24 2.08 79.87 4.109 26.64 2.03 55.18.27 77.14-14.956 30.45-21.115 40.45-62.265 67.93-87.129 22.91-20.735 57.5-27.574 86.57-17.106M530.447 468.318c-5.018 17.476 3.918 36.372 16.872 49.129 12.954 12.757 29.536 21.015 44.779 30.932 15.243 9.918 29.976 22.565 35.743 39.811 10.255 30.682-10.685 61.915-20.67 92.688-15.113 46.558-3.339 100.846 29.706 136.957" stroke="#D8D8D8" stroke-miterlimit="10"/><path d="M518.592 471.929c-5.017 17.476 3.918 36.371 16.872 49.128 12.954 12.757 29.536 21.015 44.779 30.933 15.243 9.917 29.976 22.564 35.743 39.81 10.256 30.683-10.684 61.915-20.67 92.688-15.113 46.559-3.338 100.846 29.706 136.957" stroke="#D8D8D8" stroke-miterlimit="10"/><path d="M506.738 475.536c-5.018 17.476 3.918 36.371 16.872 49.128 12.954 12.757 29.536 21.015 44.779 30.933 15.243 9.918 29.976 22.565 35.743 39.81 10.255 30.683-10.685 61.916-20.67 92.688-15.113 46.559-3.339 100.846 29.706 136.958" stroke="#D8D8D8" stroke-miterlimit="10"/><path d="M494.873 479.146c-5.017 17.475 3.919 36.371 16.873 49.128 12.953 12.757 29.536 21.015 44.779 30.932 15.242 9.918 29.975 22.565 35.743 39.811 10.255 30.682-10.685 61.915-20.671 92.688-15.112 46.559-3.338 100.846 29.707 136.957M1113.44 81.92c2.54 18.006 18.39 31.622 35.43 37.991 17.03 6.368 35.53 7.158 53.49 9.997 17.96 2.85 36.56 8.398 48.86 21.795 21.87 23.845 15.46 60.896 18.87 93.068 5.17 48.678 38.03 93.458 82.91 112.973" stroke="#D8D8D8" stroke-miterlimit="10"/><path d="M1104.08 90.048c2.54 18.006 18.39 31.622 35.42 37.991 17.03 6.368 35.53 7.158 53.5 9.997 17.96 2.85 36.56 8.398 48.85 21.795 21.87 23.844 15.47 60.896 18.87 93.068 5.17 48.678 38.04 93.458 82.92 112.973" stroke="#D8D8D8" stroke-miterlimit="10"/><path d="M1094.72 98.176c2.54 18.005 18.39 31.622 35.43 37.991 17.03 6.368 35.53 7.158 53.49 9.997 17.96 2.85 36.56 8.398 48.86 21.795 21.87 23.844 15.46 60.896 18.87 93.068 5.17 48.678 38.03 93.458 82.91 112.973" stroke="#D8D8D8" stroke-miterlimit="10"/><path d="M1085.36 106.304c2.54 18.005 18.39 31.622 35.42 37.991 17.03 6.368 35.53 7.158 53.49 9.997 17.97 2.85 36.57 8.398 48.86 21.795 21.87 23.844 15.46 60.895 18.87 93.068 5.17 48.678 38.04 93.457 82.91 112.973" stroke="#D8D8D8" stroke-miterlimit="10"/></g><g opacity=".5" clip-path="url(#clip1)"><path opacity=".2" d="M1220.03 3262.91c-7.52-21.62-5.45-45.35-1.48-67.89 3.98-22.54 9.8-44.99 9.5-67.88-.5-37.38-18.41-74.21-47.66-97.49-29.24-23.27-69.29-32.44-105.69-23.97-23.02 5.36-44.66 17.33-68.28 18.3-24.245 1-47.285-9.71-71.153-14.09-56.674-10.41-117.415 18.11-149.131 66.23-31.715 48.12-34.723 112.66-11.514 165.41s70.787 93.21 125.281 111.95c54.485 18.74 115.127 16.57 169.787-1.65 26.81-8.94 52.33-21.59 79.51-29.3 27.17-7.71 57.2-10.12 83.04 1.32l37.52-19.82c-22.87-.62-42.19-19.52-49.73-41.12z" fill="url(#paint3_linear)"/><path opacity=".2" d="M770.604 3391.36c-7.537-21.62-5.458-45.35-1.479-67.89 3.978-22.54 9.795-44.99 9.495-67.88-.5-37.38-18.411-74.21-47.658-97.49-29.246-23.27-69.287-32.44-105.69-23.97-23.019 5.36-44.659 17.33-68.278 18.3-24.249 1-47.288-9.72-71.157-14.09-56.673-10.41-117.414 18.11-149.13 66.23-31.705 48.12-34.713 112.66-11.504 165.41 23.209 52.75 70.787 93.21 125.281 111.95 54.484 18.74 115.126 16.57 169.79-1.66 26.808-8.93 52.326-21.58 79.503-29.29 27.187-7.71 57.203-10.12 83.041 1.32l37.523-19.82c-22.88-.61-42.201-19.51-49.737-41.12z" fill="url(#paint4_linear)"/><path opacity=".2" d="M1390.26 2709.34c-7.53-21.62-5.45-45.35-1.48-67.89 3.98-22.54 9.8-44.98 9.5-67.88-.5-37.38-18.41-74.21-47.66-97.49-29.24-23.28-69.29-32.45-105.69-23.98-23.02 5.36-44.66 17.34-68.28 18.31-24.25 1-47.28-9.72-71.15-14.1-56.67-10.41-117.418 18.11-149.123 66.23-31.715 48.12-34.724 112.67-11.515 165.42 23.209 52.75 70.788 93.21 125.278 111.96 54.49 18.73 115.13 16.56 169.79-1.66 26.81-8.94 52.33-21.59 79.51-29.3 27.18-7.7 57.2-10.11 83.04 1.32l37.52-19.82c-22.88-.62-42.2-19.52-49.74-41.12z" fill="url(#paint5_linear)"/><path d="M766.445 2881.03c4.15-18.36-7.361-36.6-25.711-40.75-18.351-4.15-36.591 7.36-40.741 25.72-4.15 18.35 7.361 36.59 25.712 40.75 18.35 4.15 36.59-7.37 40.74-25.72zm376.445 104.45c4.84-4.28 5.29-11.68 1.01-16.52-4.28-4.83-11.67-5.28-16.51-1-4.84 4.28-5.29 11.67-1.01 16.51 4.28 4.84 11.67 5.29 16.51 1.01zm-501.686 128.69a5.85 5.85 0 01-5.847 5.85 5.85 5.85 0 010-11.7 5.85 5.85 0 015.847 5.85zm555.316-182.89a5.84 5.84 0 01-5.84 5.84c-3.23 0-5.85-2.62-5.85-5.84 0-3.23 2.62-5.85 5.85-5.85 3.23 0 5.84 2.62 5.84 5.85z" fill="#F8E6CB"/><path d="M626.531 2705.58c41.541-.05 82.721 19.08 109.479 50.88 23.199 27.57 35.153 62.78 55.054 92.81 19.901 30.05 53.515 56.39 88.938 49.79 24.319-4.53 43.65-23.93 55.085-45.87 11.434-21.93 16.392-46.55 22.509-70.53 6.127-23.97 13.903-48.31 29.746-67.31 20.088-24.09 52.708-37.08 83.848-33.43" stroke="#D8D8D8" stroke-miterlimit="10"/><path d="M640.444 2704.06c38.942-.05 77.544 17.9 102.632 47.69 21.75 25.84 32.955 58.85 51.606 87.01 18.661 28.16 50.166 52.85 83.371 46.67 22.799-4.25 40.921-22.44 51.636-43 10.725-20.57 15.362-43.65 21.1-66.13 5.737-22.47 13.034-45.29 27.887-63.09 18.831-22.58 49.404-34.76 78.604-31.33" stroke="#D8D8D8" stroke-miterlimit="10"/><path d="M654.358 2702.54c36.343-.04 72.376 16.7 95.775 44.51 20.301 24.11 30.756 54.93 48.168 81.2 17.412 26.28 46.818 49.33 77.803 43.55 21.28-3.96 38.183-20.94 48.188-40.13 10.005-19.2 14.333-40.73 19.691-61.71 5.357-20.97 12.164-42.26 26.027-58.88 17.572-21.07 46.11-32.44 73.36-29.24" stroke="#D8D8D8" stroke-miterlimit="10"/><path d="M668.271 2701.03c33.745-.04 67.199 15.51 88.929 41.32 18.841 22.4 28.556 51 44.719 75.39 16.162 24.4 43.469 45.8 72.236 40.44 19.751-3.68 35.453-19.43 44.739-37.26 9.286-17.81 13.314-37.82 18.281-57.28 4.978-19.48 11.295-39.25 24.159-54.68 16.312-19.57 42.806-30.12 68.106-27.15" stroke="#D8D8D8" stroke-miterlimit="10"/><path d="M682.186 2699.51c31.145-.04 62.02 14.31 82.071 38.14 17.392 20.67 26.348 47.07 41.271 69.58 14.923 22.52 40.121 42.27 66.668 37.33 18.232-3.4 32.725-17.94 41.291-34.4 8.576-16.44 12.284-34.9 16.872-52.87 4.588-17.98 10.425-36.22 22.3-50.46 15.063-18.06 39.511-27.8 62.861-25.06m-171.78 608.37c-6.877-25.09-11.885-52.44-2.279-76.61 12.594-31.67 47.528-49.42 81.362-53.48 33.834-4.07 67.908 2.65 101.887 5.24 33.99 2.59 70.38.35 98.4-19.08 38.84-26.93 51.59-79.42 86.65-111.14 29.22-26.44 73.34-35.17 110.44-21.82" stroke="#D8D8D8" stroke-miterlimit="10"/><path d="M869.478 3290.14c-6.507-23.73-11.245-49.61-2.159-72.47 11.914-29.97 44.958-46.75 76.963-50.59 32.015-3.85 64.238 2.51 96.388 4.96 32.14 2.45 66.58.33 93.07-18.05 36.76-25.48 48.81-75.13 81.98-105.13 27.64-25.02 69.38-33.27 104.47-20.65" stroke="#D8D8D8" stroke-miterlimit="10"/><path d="M895.216 3290.14c-6.127-22.38-10.605-46.77-2.029-68.33 11.235-28.26 42.39-44.08 72.576-47.7 30.186-3.63 60.567 2.37 90.887 4.67 30.32 2.31 62.78.31 87.76-17.02 34.65-24.02 46.02-70.84 77.28-99.14 26.07-23.59 65.42-31.37 98.51-19.46" stroke="#D8D8D8" stroke-miterlimit="10"/><path d="M920.954 3290.14c-5.758-21.03-9.966-43.94-1.909-64.2 10.555-26.54 39.821-41.41 68.178-44.8 28.357-3.41 56.907 2.21 85.377 4.38 28.48 2.17 58.97.29 82.44-15.98 32.56-22.58 43.23-66.56 72.61-93.13 24.49-22.16 61.46-29.47 92.54-18.29" stroke="#D8D8D8" stroke-miterlimit="10"/><path d="M946.691 3290.14c-5.387-19.68-9.316-41.11-1.789-60.06 9.865-24.83 37.252-38.74 63.778-41.92 26.53-3.19 53.24 2.08 79.87 4.11 26.64 2.03 55.18.27 77.14-14.95 30.45-21.12 40.45-62.27 67.93-87.13 22.91-20.74 57.5-27.58 86.57-17.11m-789.743-155.76c-5.018 17.47 3.918 36.37 16.872 49.13 12.954 12.75 29.536 21.01 44.779 30.93 15.243 9.92 29.976 22.56 35.743 39.81 10.255 30.68-10.685 61.92-20.67 92.69-15.113 46.56-3.339 100.84 29.706 136.96" stroke="#D8D8D8" stroke-miterlimit="10"/><path d="M518.592 2920.93c-5.017 17.47 3.918 36.37 16.872 49.13 12.954 12.75 29.536 21.01 44.779 30.93 15.243 9.92 29.976 22.56 35.743 39.81 10.256 30.68-10.684 61.92-20.67 92.69-15.113 46.56-3.338 100.84 29.706 136.96" stroke="#D8D8D8" stroke-miterlimit="10"/><path d="M506.738 2924.54c-5.018 17.47 3.918 36.37 16.872 49.13 12.954 12.75 29.536 21.01 44.779 30.93 15.243 9.92 29.976 22.56 35.743 39.81 10.255 30.68-10.685 61.91-20.67 92.69-15.113 46.56-3.339 100.84 29.706 136.95" stroke="#D8D8D8" stroke-miterlimit="10"/><path d="M494.873 2928.15c-5.017 17.47 3.919 36.37 16.873 49.12 12.953 12.76 29.536 21.02 44.779 30.94 15.242 9.91 29.975 22.56 35.743 39.81 10.255 30.68-10.685 61.91-20.671 92.69-15.112 46.55-3.338 100.84 29.707 136.95m512.136-746.74c2.54 18.01 18.39 31.62 35.43 37.99 17.03 6.37 35.53 7.16 53.49 10 17.96 2.85 36.56 8.4 48.86 21.79 21.87 23.85 15.46 60.9 18.87 93.07 5.17 48.68 38.03 93.46 82.91 112.98" stroke="#D8D8D8" stroke-miterlimit="10"/><path d="M1104.08 2539.05c2.54 18.01 18.39 31.62 35.42 37.99 17.03 6.37 35.53 7.16 53.5 10 17.96 2.85 36.56 8.4 48.85 21.79 21.87 23.85 15.47 60.9 18.87 93.07 5.17 48.68 38.04 93.46 82.92 112.97" stroke="#D8D8D8" stroke-miterlimit="10"/><path d="M1094.72 2547.18c2.54 18 18.39 31.62 35.43 37.99 17.03 6.37 35.53 7.16 53.49 10 17.96 2.85 36.56 8.39 48.86 21.79 21.87 23.85 15.46 60.9 18.87 93.07 5.17 48.68 38.03 93.46 82.91 112.97" stroke="#D8D8D8" stroke-miterlimit="10"/><path d="M1085.36 2555.31c2.54 18 18.39 31.62 35.42 37.99 17.03 6.37 35.53 7.15 53.49 9.99 17.97 2.85 36.57 8.4 48.86 21.8 21.87 23.84 15.46 60.89 18.87 93.07 5.17 48.68 38.04 93.45 82.91 112.97" stroke="#D8D8D8" stroke-miterlimit="10"/></g><g opacity=".5" clip-path="url(#clip2)"><path opacity=".2" d="M219.967 2066.91c7.526-21.62 5.457-45.35 1.479-67.89-3.978-22.54-9.795-44.99-9.495-67.88.5-37.38 18.411-74.21 47.657-97.49 29.247-23.27 69.288-32.44 105.691-23.97 23.019 5.36 44.659 17.33 68.278 18.3 24.248 1 47.288-9.72 71.156-14.09 56.674-10.41 117.415 18.11 149.131 66.23 31.715 48.12 34.723 112.66 11.514 165.41s-70.787 93.21-125.281 111.95c-54.485 18.74-115.126 16.57-169.79-1.66-26.808-8.93-52.326-21.58-79.503-29.29-27.177-7.71-57.203-10.12-83.041 1.32l-37.523-19.82c22.87-.62 42.191-19.52 49.727-41.12z" fill="url(#paint6_linear)"/><path opacity=".2" d="M669.396 2195.35c7.537-21.61 5.458-45.34 1.479-67.88-3.978-22.54-9.795-44.99-9.495-67.88.5-37.38 18.411-74.22 47.658-97.49 29.246-23.27 69.287-32.44 105.69-23.97 23.019 5.35 44.659 17.33 68.278 18.3 24.249 1 47.288-9.72 71.157-14.09 56.677-10.41 117.417 18.11 149.127 66.23 31.71 48.12 34.72 112.66 11.51 165.41s-70.79 93.21-125.284 111.95c-54.484 18.74-115.126 16.57-169.79-1.66-26.808-8.93-52.326-21.58-79.503-29.29-27.187-7.71-57.203-10.12-83.041 1.32l-37.523-19.83c22.88-.61 42.201-19.5 49.737-41.12z" fill="url(#paint7_linear)"/><path opacity=".2" d="M49.737 1513.34c7.536-21.62 5.457-45.35 1.479-67.89-3.978-22.54-9.795-44.99-9.495-67.88.5-37.38 18.41-74.21 47.657-97.49 29.246-23.28 69.288-32.45 105.691-23.98 23.019 5.36 44.659 17.33 68.278 18.3 24.248 1 47.287-9.71 71.156-14.09 56.664-10.41 117.415 18.11 149.12 66.23 31.715 48.12 34.724 112.67 11.515 165.42-23.209 52.75-70.787 93.21-125.281 111.96-54.485 18.73-115.126 16.56-169.791-1.66-26.807-8.94-52.325-21.59-79.502-29.3-27.188-7.7-57.204-10.11-83.041 1.32L0 1554.46c22.88-.62 42.2-19.52 49.737-41.12z" fill="url(#paint8_linear)"/><path d="M673.555 1685.03c-4.15-18.36 7.361-36.6 25.711-40.75 18.351-4.15 36.591 7.36 40.741 25.71 4.15 18.36-7.361 36.6-25.712 40.75-18.35 4.16-36.59-7.36-40.74-25.71zm-376.446 104.45c-4.837-4.29-5.288-11.68-1.008-16.52 4.28-4.83 11.671-5.29 16.508-1 4.837 4.28 5.288 11.67 1.008 16.51-4.28 4.84-11.671 5.29-16.508 1.01zm501.687 128.69a5.85 5.85 0 005.847 5.85 5.85 5.85 0 000-11.7 5.85 5.85 0 00-5.847 5.85zm-555.321-182.9a5.85 5.85 0 005.848 5.85 5.85 5.85 0 005.847-5.85 5.848 5.848 0 00-11.695 0z" fill="#F8E6CB"/><path d="M813.469 1509.58c-41.541-.05-82.721 19.08-109.479 50.88-23.199 27.57-35.153 62.78-55.054 92.81-19.901 30.05-53.515 56.39-88.938 49.79-24.319-4.53-43.65-23.93-55.085-45.87-11.434-21.93-16.392-46.56-22.509-70.53-6.127-23.97-13.903-48.31-29.746-67.31-20.091-24.09-52.705-37.09-83.851-33.43" stroke="#D8D8D8" stroke-miterlimit="10"/><path d="M799.556 1508.06c-38.942-.05-77.544 17.89-102.632 47.69-21.75 25.84-32.955 58.85-51.606 87.01-18.661 28.16-50.166 52.85-83.371 46.67-22.799-4.25-40.921-22.44-51.636-43-10.725-20.57-15.362-43.65-21.1-66.13-5.737-22.47-13.034-45.29-27.887-63.09-18.831-22.58-49.407-34.77-78.603-31.33" stroke="#D8D8D8" stroke-miterlimit="10"/><path d="M785.642 1506.54c-36.343-.04-72.376 16.69-95.775 44.51-20.301 24.11-30.756 54.93-48.168 81.2-17.412 26.28-46.818 49.33-77.803 43.55-21.28-3.96-38.183-20.94-48.188-40.13-10.005-19.2-14.333-40.73-19.691-61.71-5.357-20.97-12.164-42.26-26.027-58.88-17.572-21.07-46.109-32.45-73.356-29.24" stroke="#D8D8D8" stroke-miterlimit="10"/><path d="M771.729 1505.03c-33.745-.04-67.199 15.51-88.929 41.32-18.841 22.39-28.556 51-44.719 75.39-16.162 24.4-43.469 45.8-72.236 40.44-19.751-3.68-35.453-19.43-44.739-37.26-9.286-17.82-13.314-37.82-18.281-57.29-4.978-19.47-11.295-39.24-24.159-54.67-16.312-19.57-42.81-30.13-68.108-27.15" stroke="#D8D8D8" stroke-miterlimit="10"/><path d="M757.814 1503.51c-31.145-.04-62.02 14.31-82.071 38.14-17.392 20.67-26.348 47.07-41.271 69.58-14.923 22.52-40.121 42.27-66.668 37.32-18.232-3.39-32.725-17.93-41.291-34.39-8.576-16.44-12.284-34.9-16.872-52.87-4.588-17.98-10.425-36.23-22.3-50.46-15.063-18.06-39.511-27.81-62.86-25.06m171.779 608.37c6.877-25.1 11.885-52.44 2.279-76.61-12.594-31.68-47.528-49.42-81.362-53.48-33.834-4.07-67.908 2.65-101.892 5.24-33.984 2.59-70.377.35-98.394-19.08-38.842-26.93-51.596-79.42-86.649-111.14-29.226-26.44-73.346-35.17-110.438-21.83" stroke="#D8D8D8" stroke-miterlimit="10"/><path d="M570.522 2094.14c6.507-23.74 11.245-49.61 2.159-72.47-11.914-29.97-44.958-46.75-76.963-50.59-32.015-3.85-64.24 2.51-96.385 4.96-32.145 2.45-66.579.33-93.077-18.05-36.752-25.48-48.807-75.13-81.971-105.13-27.647-25.02-69.387-33.28-104.471-20.65" stroke="#D8D8D8" stroke-miterlimit="10"/><path d="M544.784 2094.14c6.127-22.39 10.605-46.77 2.029-68.33-11.235-28.26-42.39-44.08-72.576-47.7-30.186-3.63-60.572 2.37-90.887 4.67-30.316 2.3-62.781.31-87.759-17.02-34.654-24.02-46.019-70.84-77.284-99.14-26.068-23.59-65.419-31.37-98.504-19.46" stroke="#D8D8D8" stroke-miterlimit="10"/><path d="M519.046 2094.14c5.758-21.03 9.966-43.94 1.909-64.2-10.555-26.54-39.821-41.41-68.178-44.81-28.356-3.4-56.903 2.22-85.38 4.39-28.476 2.17-58.972.29-82.441-15.98-32.555-22.58-43.23-66.56-72.606-93.13-24.488-22.17-61.461-29.47-92.536-18.29" stroke="#D8D8D8" stroke-miterlimit="10"/><path d="M493.309 2094.14c5.387-19.68 9.316-41.11 1.789-60.06-9.865-24.83-37.252-38.74-63.78-41.92-26.528-3.19-53.235 2.08-79.872 4.11-26.638 2.03-55.175.27-77.134-14.95-30.456-21.12-40.451-62.27-67.928-87.13-22.91-20.74-57.503-27.58-86.57-17.11m789.739-155.76c5.018 17.47-3.918 36.37-16.872 49.13-12.954 12.75-29.536 21.01-44.779 30.93-15.243 9.92-29.976 22.56-35.743 39.81-10.255 30.68 10.685 61.91 20.67 92.69 15.113 46.56 3.339 100.84-29.706 136.95" stroke="#D8D8D8" stroke-miterlimit="10"/><path d="M921.408 1724.93c5.017 17.47-3.918 36.37-16.872 49.13-12.954 12.75-29.536 21.01-44.779 30.93-15.243 9.92-29.976 22.56-35.743 39.81-10.256 30.68 10.684 61.91 20.67 92.69 15.113 46.56 3.338 100.84-29.706 136.95" stroke="#D8D8D8" stroke-miterlimit="10"/><path d="M933.262 1728.54c5.018 17.47-3.918 36.37-16.872 49.12-12.954 12.76-29.536 21.02-44.779 30.94-15.243 9.91-29.976 22.56-35.743 39.81-10.255 30.68 10.685 61.91 20.67 92.69 15.113 46.55 3.339 100.84-29.706 136.95" stroke="#D8D8D8" stroke-miterlimit="10"/><path d="M945.127 1732.15c5.017 17.47-3.919 36.37-16.873 49.12-12.953 12.76-29.536 21.02-44.779 30.94-15.242 9.91-29.975 22.56-35.743 39.81-10.255 30.68 10.685 61.91 20.671 92.68 15.112 46.56 3.338 100.85-29.707 136.96m-512.139-746.74c-2.539 18.01-18.392 31.62-35.424 37.99-17.032 6.37-35.533 7.16-53.495 10-17.961 2.85-36.562 8.4-48.857 21.79-21.869 23.85-15.462 60.9-18.871 93.07-5.167 48.68-38.032 93.46-82.91 112.97" stroke="#D8D8D8" stroke-miterlimit="10"/><path d="M335.922 1343.05c-2.539 18-18.391 31.62-35.424 37.99-17.032 6.37-35.533 7.16-53.494 10-17.962 2.85-36.563 8.39-48.857 21.79-21.87 23.85-15.463 60.9-18.872 93.07-5.167 48.68-38.032 93.46-82.91 112.97" stroke="#D8D8D8" stroke-miterlimit="10"/><path d="M345.278 1351.18c-2.538 18-18.391 31.62-35.423 37.99-17.032 6.37-35.533 7.15-53.495 9.99-17.962 2.85-36.563 8.4-48.857 21.8-21.87 23.84-15.463 60.89-18.871 93.07-5.168 48.68-38.032 93.45-82.911 112.97" stroke="#D8D8D8" stroke-miterlimit="10"/><path d="M354.644 1359.3c-2.539 18.01-18.392 31.63-35.424 37.99-17.032 6.37-35.533 7.16-53.495 10-17.961 2.85-36.563 8.4-48.857 21.8-21.87 23.84-15.463 60.89-18.871 93.06-5.168 48.68-38.032 93.46-82.911 112.98" stroke="#D8D8D8" stroke-miterlimit="10"/></g><g opacity=".5" clip-path="url(#clip3)"><path opacity=".2" d="M219.967 4436.91c7.526-21.62 5.457-45.35 1.479-67.89-3.978-22.54-9.795-44.99-9.495-67.88.5-37.38 18.411-74.21 47.657-97.49 29.247-23.27 69.288-32.44 105.691-23.97 23.019 5.36 44.659 17.33 68.278 18.3 24.248 1 47.288-9.71 71.156-14.09 56.674-10.41 117.415 18.11 149.131 66.23 31.715 48.12 34.723 112.66 11.514 165.41s-70.787 93.21-125.281 111.95c-54.485 18.74-115.126 16.57-169.79-1.65-26.808-8.94-52.326-21.59-79.503-29.3-27.177-7.71-57.203-10.12-83.041 1.32l-37.523-19.82c22.87-.62 42.191-19.52 49.727-41.12z" fill="url(#paint9_linear)"/><path opacity=".2" d="M669.396 4565.36c7.537-21.62 5.458-45.35 1.479-67.89-3.978-22.54-9.795-44.99-9.495-67.88.5-37.38 18.411-74.21 47.658-97.49 29.246-23.27 69.287-32.44 105.69-23.97 23.019 5.36 44.659 17.33 68.278 18.3 24.249 1 47.288-9.72 71.157-14.09 56.677-10.41 117.417 18.11 149.127 66.23 31.71 48.12 34.72 112.66 11.51 165.41s-70.79 93.21-125.284 111.95c-54.484 18.74-115.126 16.57-169.79-1.66-26.808-8.93-52.326-21.58-79.503-29.29-27.187-7.71-57.203-10.12-83.041 1.32l-37.523-19.82c22.88-.61 42.201-19.51 49.737-41.12z" fill="url(#paint10_linear)"/><path opacity=".2" d="M49.737 3883.34c7.536-21.62 5.457-45.35 1.479-67.89-3.978-22.54-9.795-44.98-9.495-67.88.5-37.38 18.41-74.21 47.657-97.49 29.246-23.28 69.288-32.45 105.691-23.98 23.019 5.36 44.659 17.34 68.278 18.31 24.248 1 47.287-9.72 71.156-14.1 56.664-10.41 117.415 18.11 149.12 66.23 31.715 48.12 34.724 112.67 11.515 165.42-23.209 52.75-70.787 93.21-125.281 111.96-54.485 18.73-115.126 16.56-169.791-1.66-26.807-8.94-52.325-21.59-79.502-29.3-27.188-7.7-57.204-10.11-83.041 1.32L0 3924.46c22.88-.62 42.2-19.52 49.737-41.12z" fill="url(#paint11_linear)"/><path d="M673.555 4055.03c-4.15-18.36 7.361-36.6 25.711-40.75 18.351-4.15 36.591 7.36 40.741 25.72 4.15 18.35-7.361 36.59-25.712 40.75-18.35 4.15-36.59-7.37-40.74-25.72zm-376.446 104.45c-4.837-4.28-5.288-11.68-1.008-16.52 4.28-4.83 11.671-5.28 16.508-1s5.288 11.67 1.008 16.51c-4.28 4.84-11.671 5.29-16.508 1.01zm501.687 128.69a5.85 5.85 0 005.847 5.85 5.85 5.85 0 000-11.7 5.85 5.85 0 00-5.847 5.85zm-555.321-182.89a5.848 5.848 0 0011.695 0 5.85 5.85 0 00-5.847-5.85 5.85 5.85 0 00-5.848 5.85z" fill="#F8E6CB"/><path d="M813.469 3879.58c-41.541-.05-82.721 19.08-109.479 50.88-23.199 27.57-35.153 62.78-55.054 92.81-19.901 30.05-53.515 56.39-88.938 49.79-24.319-4.53-43.65-23.93-55.085-45.87-11.434-21.93-16.392-46.55-22.509-70.53-6.127-23.97-13.903-48.31-29.746-67.31-20.091-24.09-52.705-37.08-83.851-33.43" stroke="#D8D8D8" stroke-miterlimit="10"/><path d="M799.556 3878.06c-38.942-.05-77.544 17.9-102.632 47.69-21.75 25.84-32.955 58.85-51.606 87.01-18.661 28.16-50.166 52.85-83.371 46.67-22.799-4.25-40.921-22.44-51.636-43-10.725-20.57-15.362-43.65-21.1-66.13-5.737-22.47-13.034-45.29-27.887-63.09-18.831-22.58-49.407-34.76-78.603-31.33" stroke="#D8D8D8" stroke-miterlimit="10"/><path d="M785.642 3876.54c-36.343-.04-72.376 16.7-95.775 44.51-20.301 24.11-30.756 54.93-48.168 81.2-17.412 26.28-46.818 49.33-77.803 43.55-21.28-3.96-38.183-20.94-48.188-40.13-10.005-19.2-14.333-40.73-19.691-61.71-5.357-20.97-12.164-42.26-26.027-58.88-17.572-21.07-46.109-32.44-73.356-29.24" stroke="#D8D8D8" stroke-miterlimit="10"/><path d="M771.729 3875.03c-33.745-.04-67.199 15.51-88.929 41.32-18.841 22.4-28.556 51-44.719 75.39-16.162 24.4-43.469 45.8-72.236 40.44-19.751-3.68-35.453-19.43-44.739-37.26-9.286-17.81-13.314-37.82-18.281-57.28-4.978-19.48-11.295-39.25-24.159-54.68-16.312-19.57-42.81-30.12-68.108-27.15" stroke="#D8D8D8" stroke-miterlimit="10"/><path d="M757.814 3873.51c-31.145-.04-62.02 14.31-82.071 38.14-17.392 20.67-26.348 47.07-41.271 69.58-14.923 22.52-40.121 42.27-66.668 37.33-18.232-3.4-32.725-17.94-41.291-34.4-8.576-16.44-12.284-34.9-16.872-52.87-4.588-17.98-10.425-36.22-22.3-50.46-15.063-18.06-39.511-27.8-62.86-25.06m171.779 608.37c6.877-25.09 11.885-52.44 2.279-76.61-12.594-31.67-47.528-49.42-81.362-53.48-33.834-4.07-67.908 2.65-101.892 5.24-33.984 2.59-70.377.35-98.394-19.08-38.842-26.93-51.596-79.42-86.649-111.14-29.226-26.44-73.346-35.17-110.438-21.82" stroke="#D8D8D8" stroke-miterlimit="10"/><path d="M570.522 4464.14c6.507-23.73 11.245-49.61 2.159-72.47-11.914-29.97-44.958-46.75-76.963-50.59-32.015-3.85-64.24 2.51-96.385 4.96-32.145 2.45-66.579.33-93.077-18.05-36.752-25.48-48.807-75.13-81.971-105.13-27.647-25.02-69.387-33.27-104.471-20.65" stroke="#D8D8D8" stroke-miterlimit="10"/><path d="M544.784 4464.14c6.127-22.38 10.605-46.77 2.029-68.33-11.235-28.26-42.39-44.08-72.576-47.7-30.186-3.63-60.572 2.37-90.887 4.67-30.316 2.31-62.781.31-87.759-17.02-34.654-24.02-46.019-70.84-77.284-99.14-26.068-23.59-65.419-31.37-98.504-19.46" stroke="#D8D8D8" stroke-miterlimit="10"/><path d="M519.046 4464.14c5.758-21.03 9.966-43.94 1.909-64.2-10.555-26.54-39.821-41.41-68.178-44.8-28.356-3.41-56.903 2.21-85.38 4.38-28.476 2.17-58.972.29-82.441-15.98-32.555-22.58-43.23-66.56-72.606-93.13-24.488-22.16-61.461-29.47-92.536-18.29" stroke="#D8D8D8" stroke-miterlimit="10"/><path d="M493.309 4464.14c5.387-19.68 9.316-41.11 1.789-60.06-9.865-24.83-37.252-38.74-63.78-41.92-26.528-3.19-53.235 2.08-79.872 4.11-26.638 2.03-55.175.27-77.134-14.95-30.456-21.12-40.451-62.27-67.928-87.13-22.91-20.74-57.503-27.58-86.57-17.11m789.739-155.76c5.018 17.47-3.918 36.37-16.872 49.13-12.954 12.75-29.536 21.01-44.779 30.93-15.243 9.92-29.976 22.56-35.743 39.81-10.255 30.68 10.685 61.92 20.67 92.69 15.113 46.56 3.339 100.84-29.706 136.96" stroke="#D8D8D8" stroke-miterlimit="10"/><path d="M921.408 4094.93c5.017 17.47-3.918 36.37-16.872 49.13-12.954 12.75-29.536 21.01-44.779 30.93-15.243 9.92-29.976 22.56-35.743 39.81-10.256 30.68 10.684 61.92 20.67 92.69 15.113 46.56 3.338 100.84-29.706 136.96" stroke="#D8D8D8" stroke-miterlimit="10"/><path d="M933.262 4098.54c5.018 17.47-3.918 36.37-16.872 49.13-12.954 12.75-29.536 21.01-44.779 30.93-15.243 9.92-29.976 22.56-35.743 39.81-10.255 30.68 10.685 61.91 20.67 92.69 15.113 46.56 3.339 100.84-29.706 136.95" stroke="#D8D8D8" stroke-miterlimit="10"/><path d="M945.127 4102.15c5.017 17.47-3.919 36.37-16.873 49.12-12.953 12.76-29.536 21.02-44.779 30.94-15.242 9.91-29.975 22.56-35.743 39.81-10.255 30.68 10.685 61.91 20.671 92.69 15.112 46.55 3.338 100.84-29.707 136.95m-512.139-746.74c-2.539 18.01-18.392 31.62-35.424 37.99-17.032 6.37-35.533 7.16-53.495 10-17.961 2.85-36.562 8.4-48.857 21.79-21.869 23.85-15.462 60.9-18.871 93.07-5.167 48.68-38.032 93.46-82.91 112.98" stroke="#D8D8D8" stroke-miterlimit="10"/><path d="M335.922 3713.05c-2.539 18.01-18.391 31.62-35.424 37.99-17.032 6.37-35.533 7.16-53.494 10-17.962 2.85-36.563 8.4-48.857 21.79-21.87 23.85-15.463 60.9-18.872 93.07-5.167 48.68-38.032 93.46-82.91 112.97" stroke="#D8D8D8" stroke-miterlimit="10"/><path d="M345.278 3721.18c-2.538 18-18.391 31.62-35.423 37.99-17.032 6.37-35.533 7.16-53.495 10-17.962 2.85-36.563 8.39-48.857 21.79-21.87 23.85-15.463 60.9-18.871 93.07-5.168 48.68-38.032 93.46-82.911 112.97" stroke="#D8D8D8" stroke-miterlimit="10"/><path d="M354.644 3729.31c-2.539 18-18.392 31.62-35.424 37.99-17.032 6.37-35.533 7.15-53.495 9.99-17.961 2.85-36.563 8.4-48.857 21.8-21.87 23.84-15.463 60.89-18.871 93.07-5.168 48.68-38.032 93.45-82.911 112.97" stroke="#D8D8D8" stroke-miterlimit="10"/></g><defs><linearGradient id="paint0_linear" x1="759.432" y1="735.553" x2="1269.77" y2="735.553" gradientUnits="userSpaceOnUse"><stop stop-color="#D1D5DE"/><stop offset="1" stop-color="#DBDBDB"/></linearGradient><linearGradient id="paint1_linear" x1="310" y1="864.012" x2="820.338" y2="864.012" gradientUnits="userSpaceOnUse"><stop stop-color="#D1D5DE"/><stop offset="1" stop-color="#DBDBDB"/></linearGradient><linearGradient id="paint2_linear" x1="929.662" y1="181.986" x2="1440" y2="181.986" gradientUnits="userSpaceOnUse"><stop stop-color="#D1D5DE"/><stop offset="1" stop-color="#DBDBDB"/></linearGradient><linearGradient id="paint3_linear" x1="759.432" y1="3184.55" x2="1269.77" y2="3184.55" gradientUnits="userSpaceOnUse"><stop stop-color="#D1D5DE"/><stop offset="1" stop-color="#DBDBDB"/></linearGradient><linearGradient id="paint4_linear" x1="310" y1="3313.01" x2="820.338" y2="3313.01" gradientUnits="userSpaceOnUse"><stop stop-color="#D1D5DE"/><stop offset="1" stop-color="#DBDBDB"/></linearGradient><linearGradient id="paint5_linear" x1="929.662" y1="2630.99" x2="1440" y2="2630.99" gradientUnits="userSpaceOnUse"><stop stop-color="#D1D5DE"/><stop offset="1" stop-color="#DBDBDB"/></linearGradient><linearGradient id="paint6_linear" x1="680.568" y1="1988.55" x2="170.23" y2="1988.55" gradientUnits="userSpaceOnUse"><stop stop-color="#D1D5DE"/><stop offset="1" stop-color="#DBDBDB"/></linearGradient><linearGradient id="paint7_linear" x1="1130" y1="2117.01" x2="619.662" y2="2117.01" gradientUnits="userSpaceOnUse"><stop stop-color="#D1D5DE"/><stop offset="1" stop-color="#DBDBDB"/></linearGradient><linearGradient id="paint8_linear" x1="510.338" y1="1434.99" x2="0" y2="1434.99" gradientUnits="userSpaceOnUse"><stop stop-color="#D1D5DE"/><stop offset="1" stop-color="#DBDBDB"/></linearGradient><linearGradient id="paint9_linear" x1="680.568" y1="4358.55" x2="170.23" y2="4358.55" gradientUnits="userSpaceOnUse"><stop stop-color="#D1D5DE"/><stop offset="1" stop-color="#DBDBDB"/></linearGradient><linearGradient id="paint10_linear" x1="1130" y1="4487.01" x2="619.662" y2="4487.01" gradientUnits="userSpaceOnUse"><stop stop-color="#D1D5DE"/><stop offset="1" stop-color="#DBDBDB"/></linearGradient><linearGradient id="paint11_linear" x1="510.338" y1="3804.99" x2="0" y2="3804.99" gradientUnits="userSpaceOnUse"><stop stop-color="#D1D5DE"/><stop offset="1" stop-color="#DBDBDB"/></linearGradient><clipPath id="clip0"><path fill="#fff" transform="translate(310)" d="M0 0h1130v1046H0z"/></clipPath><clipPath id="clip1"><path fill="#fff" transform="translate(310 2449)" d="M0 0h1130v1046H0z"/></clipPath><clipPath id="clip2"><path fill="#fff" transform="matrix(-1 0 0 1 1130 1253)" d="M0 0h1130v1046H0z"/></clipPath><clipPath id="clip3"><path fill="#fff" transform="matrix(-1 0 0 1 1130 3623)" d="M0 0h1130v1046H0z"/></clipPath></defs></svg>