<svg width="814" height="466" fill="none" xmlns="http://www.w3.org/2000/svg" opacity=".5"><path opacity=".2" d="M764.263 260.338c-7.536-21.615-5.457-45.349-1.479-67.884 3.978-22.545 9.795-44.989 9.496-67.884-.5-37.38-18.412-74.212-47.658-97.486C695.376 3.799 655.334-5.37 618.931 3.099c-23.019 5.359-44.659 17.336-68.278 18.306-24.248 1-47.287-9.718-71.156-14.097-56.664-10.407-117.415 18.116-149.12 66.234-31.715 48.119-34.724 112.664-11.515 165.421 23.209 52.747 70.787 93.208 125.281 111.953 54.485 18.736 115.126 16.566 169.791-1.659 26.807-8.938 52.325-21.585 79.502-29.293 27.188-7.709 57.204-10.118 83.042 1.319L814 301.458c-22.879-.62-42.2-19.515-49.737-41.12z" fill="url(#paint0_linear)"/><path d="M140.445 432.027c4.15-18.354-7.361-36.599-25.711-40.75-18.35-4.151-36.59 7.363-40.741 25.718-4.15 18.354 7.361 36.599 25.712 40.75 18.35 4.151 36.59-7.363 40.74-25.718z" fill="#F8E6CB"/><path d="M.531 256.579c41.54-.05 82.721 19.085 109.479 50.878 23.199 27.573 35.153 62.785 55.054 92.817 19.901 30.043 53.515 56.387 88.938 49.788 24.319-4.528 43.65-23.934 55.085-45.869 11.434-21.934 16.392-46.558 22.509-70.533 6.127-23.974 13.903-48.308 29.746-67.314 20.091-24.084 52.705-37.081 83.851-33.422" stroke="#D8D8D8" stroke-miterlimit="10"/><path d="M14.445 255.059c38.942-.05 77.543 17.896 102.632 47.689 21.749 25.844 32.954 58.856 51.605 87.009 18.662 28.163 50.167 52.857 83.371 46.669 22.8-4.249 40.921-22.435 51.636-43 10.725-20.565 15.363-43.65 21.1-66.124 5.738-22.475 13.034-45.289 27.887-63.095 18.831-22.575 49.407-34.762 78.603-31.323" stroke="#D8D8D8" stroke-miterlimit="10"/><path d="M28.358 253.539c36.343-.04 72.376 16.696 95.775 44.51 20.301 24.114 30.756 54.927 48.168 81.2 17.412 26.284 46.818 49.329 77.803 43.55 21.28-3.959 38.183-20.935 48.188-40.13 10.005-19.196 14.333-40.731 19.691-61.706 5.357-20.975 12.164-42.26 26.027-58.886 17.572-21.065 46.109-32.442 73.356-29.233" stroke="#D8D8D8" stroke-miterlimit="10"/><path d="M42.272 252.03c33.744-.04 67.198 15.506 88.928 41.32 18.841 22.395 28.556 50.998 44.719 75.392 16.162 24.394 43.469 45.799 72.236 40.44 19.751-3.679 35.453-19.435 44.739-37.261 9.286-17.816 13.314-37.821 18.281-57.286 4.978-19.476 11.295-39.241 24.159-54.677 16.312-19.565 42.81-30.123 68.108-27.144" stroke="#D8D8D8" stroke-miterlimit="10"/><path d="M56.185 250.51c31.145-.04 62.021 14.307 82.072 38.141 17.391 20.665 26.347 47.069 41.27 69.583 14.923 22.515 40.121 42.27 66.669 37.321 18.231-3.399 32.725-17.935 41.291-34.391 8.576-16.446 12.284-34.902 16.872-52.878 4.588-17.975 10.425-36.221 22.299-50.458 15.063-18.055 39.512-27.803 62.861-25.054M487.443 81.92c2.539 18.006 18.392 31.623 35.424 37.991 17.032 6.369 35.533 7.159 53.495 9.998 17.961 2.849 36.562 8.398 48.857 21.795 21.869 23.844 15.462 60.895 18.871 93.067 5.167 48.679 38.032 93.458 82.911 112.973" stroke="#D8D8D8" stroke-miterlimit="10"/><path d="M478.078 90.049c2.538 18.005 18.391 31.622 35.423 37.99 17.032 6.369 35.533 7.159 53.495 9.998 17.961 2.849 36.563 8.398 48.857 21.795 21.87 23.844 15.463 60.895 18.871 93.068 5.168 48.678 38.032 93.457 82.911 112.973" stroke="#D8D8D8" stroke-miterlimit="10"/><path d="M468.722 98.177c2.539 18.005 18.392 31.622 35.424 37.99 17.032 6.369 35.533 7.159 53.494 9.998 17.962 2.849 36.563 8.398 48.858 21.795 21.869 23.844 15.462 60.895 18.871 93.068 5.167 48.678 38.032 93.457 82.911 112.973" stroke="#D8D8D8" stroke-miterlimit="10"/><path d="M459.356 106.305c2.539 18.005 18.392 31.622 35.424 37.99 17.032 6.369 35.533 7.159 53.495 9.998 17.961 2.849 36.563 8.398 48.857 21.795 21.87 23.844 15.463 60.895 18.871 93.068 5.168 48.678 38.032 93.457 82.911 112.973" stroke="#D8D8D8" stroke-miterlimit="10"/><defs><linearGradient id="paint0_linear" x1="303.662" y1="181.987" x2="814" y2="181.987" gradientUnits="userSpaceOnUse"><stop stop-color="#D1D5DE"/><stop offset="1" stop-color="#DBDBDB"/></linearGradient></defs></svg>