<svg width="11" height="11" viewBox="0 0 11 11" fill="none" xmlns="http://www.w3.org/2000/svg">
<path d="M10.5295 0.419917C10.4285 0.354386 10.3156 0.309389 10.1972 0.287498C10.0789 0.265607 9.95737 0.26725 9.83964 0.292334C9.72191 0.317418 9.61028 0.36545 9.51112 0.433688C9.41196 0.501925 9.32721 0.589031 9.26172 0.690028L4.12533 8.60728L1.62039 6.29117C1.53201 6.20945 1.4284 6.14594 1.31548 6.10426C1.20256 6.06259 1.08253 6.04356 0.96226 6.04827C0.719353 6.05778 0.490174 6.1634 0.32514 6.34189C0.160105 6.52038 0.0727334 6.75711 0.0822457 7.00002C0.091758 7.24293 0.197375 7.4721 0.375862 7.63714L3.66486 10.678C3.66486 10.678 3.75928 10.7593 3.80297 10.7877C3.90395 10.8533 4.01687 10.8983 4.13526 10.9203C4.25366 10.9422 4.37521 10.9405 4.49298 10.9155C4.61074 10.8904 4.72241 10.8423 4.82159 10.7741C4.92078 10.7058 5.00554 10.6186 5.07103 10.5176L10.7996 1.68767C10.8651 1.5867 10.9101 1.47381 10.932 1.35544C10.9539 1.23708 10.9523 1.11556 10.9272 0.997833C10.9021 0.880105 10.8541 0.768472 10.7858 0.669311C10.7176 0.57015 10.6305 0.485405 10.5295 0.419917V0.419917Z" fill="#49A08A"/>
</svg>
