<svg width="160" height="160" viewBox="0 0 160 160" fill="none" xmlns="http://www.w3.org/2000/svg">
<circle cx="68.0851" cy="87.9433" r="68.0851" fill="#ECF0F7"/>
<circle cx="114.61" cy="49.3618" r="45.3901" fill="#F7F1F6"/>
<path d="M100.168 131.18H136.062V80.5756H132.465V127.583H100.168V131.18Z" fill="#3476A4"/>
<path d="M43.2335 131.18H79.1277V127.583H46.8301V21.9506H132.465V38.0275H136.062V18.354H43.2335V131.18Z" fill="#3476A4"/>
<path d="M59.7418 72.6633H105.167V76.2599H59.7418V72.6633Z" fill="#3476A4"/>
<path d="M59.7417 50.0405H101.247V53.6371H59.7417V50.0405Z" fill="#3476A4"/>
<path d="M59.7424 38.7107H80.7466V42.3073H59.7424V38.7107Z" fill="#3476A4"/>
<path d="M22.1937 106.544H25.7904V35.7624H35.4293V106.544H39.0259V32.1658H22.1937V106.544Z" fill="#AD6FA1"/>
<path d="M24.603 35.7622H36.6157V23.9653H24.603V35.7622ZM33.0191 32.1656H28.1996V27.5619H33.0191V32.1656Z" fill="#AD6FA1"/>
<path d="M15.0002 54.4286H18.5968V39.4667H25.79V35.8701H15.0002V54.4286Z" fill="#AD6FA1"/>
<path d="M30.6096 125.569C31.6166 125.569 32.4079 124.778 32.4079 123.771C32.4079 116.722 38.666 107.55 38.7019 107.479C39.0976 106.939 39.1335 106.22 38.8098 105.608C38.4861 105.033 37.8747 104.637 37.2273 104.637H23.9918C23.3084 104.637 22.697 104.997 22.4093 105.608C22.0856 106.184 22.1575 106.903 22.5172 107.479C22.5891 107.586 28.8113 116.722 28.8113 123.771C28.8113 124.742 29.6385 125.569 30.6096 125.569ZM34.0263 108.234C32.9833 110.032 31.6885 112.55 30.6455 115.283C29.6025 112.514 28.2718 110.032 27.2647 108.234H34.0263Z" fill="#AD6FA1"/>
<path d="M89.6659 128.734C95.7442 128.734 100.708 123.771 100.708 117.693C100.708 111.615 95.7442 106.651 89.6659 106.651C83.5877 106.651 78.6243 111.615 78.6243 117.693C78.6243 123.771 83.5877 128.734 89.6659 128.734ZM89.6659 110.248C93.7661 110.248 97.1109 113.593 97.1109 117.693C97.1109 121.793 93.7661 125.138 89.6659 125.138C85.5658 125.138 82.2209 121.793 82.2209 117.693C82.2209 113.593 85.5658 110.248 89.6659 110.248Z" fill="#EFC579"/>
<path d="M96.9673 141.646V125.137H93.3707V136.215L89.6662 134.596L85.9257 136.215V125.137H82.3291V141.646L89.6662 138.517L96.9673 141.646Z" fill="#EFC579"/>
<path d="M59.7417 61.3336H101.247V64.9302H59.7417V61.3336Z" fill="#3476A4"/>
<path d="M59.7419 83.9923H114.986V87.5889H59.7419V83.9923Z" fill="#3476A4"/>
<path d="M59.7416 95.2852H119.553V98.8818H59.7416V95.2852Z" fill="#3476A4"/>
<path d="M125.308 78.9926C130.343 78.9926 135.379 77.0864 139.227 73.238C146.852 65.6132 146.924 53.2769 139.443 45.5801L139.227 45.3643C135.522 41.6598 130.559 39.6097 125.308 39.6097C120.057 39.6097 115.094 41.6598 111.389 45.3643C103.728 53.0611 103.728 65.5413 111.389 73.238C115.202 77.0504 120.237 78.9926 125.308 78.9926ZM136.529 47.774L136.673 47.9179C142.967 54.212 142.967 64.4263 136.673 70.6845C130.379 76.9426 120.201 76.9426 113.907 70.6845C107.613 64.3904 107.613 54.176 113.907 47.9179C120.129 41.6598 130.271 41.6238 136.529 47.774Z" fill="#49A08A"/>
<path d="M123.114 66.8007L115.561 59.2478L118.115 56.6942L123.114 61.7295L133.077 51.7668L135.63 54.3204L123.114 66.8007Z" fill="#49A08A"/>
</svg>
