<svg width="160" height="160" viewBox="0 0 160 160" fill="none" xmlns="http://www.w3.org/2000/svg">
<circle cx="68.0851" cy="87.9433" r="68.0851" fill="#ECF0F7"/>
<circle cx="114.61" cy="49.3618" r="45.3901" fill="#F7F1F6"/>
<g clip-path="url(#clip0)">
<path d="M65.2485 29.3384H61.2646V33.0967H65.2485V29.3384Z" fill="#AD6FA1"/>
<path d="M57.2807 29.3385H53.2969V33.0968H57.2807V29.3385Z" fill="#AD6FA1"/>
<path d="M73.2157 29.3384H69.2319V33.0967H73.2157V29.3384Z" fill="#AD6FA1"/>
<path d="M111.513 33.2844H107.755V29.0375H81.6348V25.2792H111.513V33.2844Z" fill="#3476A4"/>
<path d="M92.8346 147.988H15V25.2792H44.8786V29.0375H18.7583V144.23H92.8346V147.988Z" fill="#3476A4"/>
<path d="M49.7639 74.5503H34.0542V58.8406H49.7639V74.5503ZM37.8125 70.792H46.0056V62.5989H37.8125V70.792Z" fill="#EFC579"/>
<path d="M49.7639 98.4911H34.0542V82.7814H49.7639V98.4911ZM37.8125 94.7328H46.0056V86.5397H37.8125V94.7328Z" fill="#EFC579"/>
<path d="M49.7639 122.431H34.0542V106.721H49.7639V122.431ZM37.8125 118.673H46.0056V110.48H37.8125V118.673Z" fill="#EFC579"/>
<path d="M74.644 108.713H58.145V112.472H74.644V108.713Z" fill="#EFC579"/>
<path d="M85.8814 116.681H58.145V120.44H85.8814V116.681Z" fill="#EFC579"/>
<path d="M74.644 92.7406H58.145V96.4989H74.644V92.7406Z" fill="#EFC579"/>
<path d="M72.4266 84.7725H58.145V88.5308H72.4266V84.7725Z" fill="#EFC579"/>
<path d="M74.644 60.8325H58.145V64.5908H74.644V60.8325Z" fill="#EFC579"/>
<path d="M71.938 68.8005H58.145V72.5588H71.938V68.8005Z" fill="#EFC579"/>
<path d="M103.546 39.4098H99.7874V37.0045H81.6348V33.2462H103.546V39.4098Z" fill="#3476A4"/>
<path d="M89.9033 136.261H63.2568V140.02H89.9033V136.261Z" fill="#3476A4"/>
<path d="M63.2569 140.02H22.9678V33.2463H44.8787V37.0046H26.7261V136.262H63.2569V140.02Z" fill="#3476A4"/>
<path d="M83.5136 41.2892H42.999V21.1823H83.476V41.2892H83.5136ZM46.7573 37.5309H79.7177V24.9406H46.7573V37.5309Z" fill="#AD6FA1"/>
<path d="M122.939 84.8484H111.589L110.574 78.8727C110.198 78.7224 109.822 78.572 109.484 78.4217L104.561 81.9545L96.5555 73.9117L100.088 68.9883C99.938 68.6125 99.7877 68.2743 99.6373 67.8984L93.6616 66.8837V55.5336L99.6373 54.5188C99.7877 54.143 99.938 53.7672 100.088 53.4289L96.5179 48.4679L104.523 40.4627L109.447 43.9956C109.822 43.8452 110.161 43.6949 110.536 43.5446L111.551 37.5688H122.901L123.916 43.5446C124.292 43.6949 124.668 43.8452 125.006 43.9956L129.929 40.4627L137.972 48.4679L134.439 53.3913C134.59 53.7672 134.74 54.1054 134.89 54.4812L140.866 55.496V66.8461L134.89 67.8608C134.74 68.2367 134.59 68.6125 134.439 68.9507L137.972 73.8741L129.929 81.9169L125.006 78.3841C124.63 78.5344 124.292 78.6848 123.916 78.8351L122.939 84.8484ZM114.783 81.0901H119.744L120.609 75.9788L121.699 75.6405C122.601 75.3399 123.503 75.0016 124.329 74.5506L125.344 74.0245L129.553 77.0311L133.086 73.4983L130.08 69.289L130.606 68.2743C131.057 67.4474 131.395 66.5454 131.696 65.6434L132.034 64.5159L137.145 63.6515V58.653L132.034 57.7886L131.696 56.6611C131.433 55.7591 131.057 54.8571 130.606 54.0303L130.08 53.0155L133.086 48.8062L129.553 45.2734L125.344 48.28L124.329 47.7539C123.503 47.3029 122.601 46.9646 121.699 46.664L120.571 46.3257L119.707 41.2144H114.746L113.881 46.3257L112.754 46.664C111.852 46.927 110.95 47.3029 110.123 47.7539L109.108 48.28L104.899 45.2734L101.441 48.8814L104.448 53.0907L103.922 54.1054C103.508 54.9322 103.133 55.7967 102.832 56.7362L102.494 57.8637L97.3823 58.7281V63.7267L102.494 64.5911L102.832 65.681C103.133 66.6206 103.471 67.485 103.922 68.3118L104.448 69.3266L101.441 73.4983L104.974 77.0311L109.183 74.0245L110.198 74.5506C111.025 75.0016 111.889 75.3399 112.829 75.6405L113.956 75.9788L114.783 81.0901Z" fill="#AD6FA1"/>
<path d="M117.264 72.2584C111.175 72.2584 106.177 67.2974 106.177 61.1714C106.177 55.0453 111.138 50.0844 117.264 50.0844C123.39 50.0844 128.351 55.0453 128.351 61.1714C128.351 67.2974 123.39 72.2584 117.264 72.2584ZM117.264 53.8802C113.242 53.8802 109.935 57.15 109.935 61.209C109.935 65.2679 113.205 68.5377 117.264 68.5377C121.285 68.5377 124.592 65.2679 124.592 61.209C124.592 57.15 121.323 53.8802 117.264 53.8802Z" fill="#AD6FA1"/>
<g clip-path="url(#clip1)">
<path d="M139.194 102.94C138.197 101.802 136.777 101.175 135.195 101.175H123.248V94.3156C123.248 93.4457 122.543 92.7407 121.673 92.7407H113.239C112.369 92.7407 111.664 93.4457 111.664 94.3156V101.175H96.9316L96.5465 98.2877C96.1314 95.1773 93.9659 92.7407 91.6163 92.7407H88.8049C87.935 92.7407 87.23 93.4457 87.23 94.3156C87.23 95.1855 87.935 95.8905 88.8049 95.8905H91.6163C92.1216 95.8905 93.1916 96.9589 93.4242 98.704L97.9323 132.516C98.1308 134.006 98.8965 135.402 100.088 136.445C100.972 137.219 102.017 137.734 103.111 137.949C102.665 138.769 102.412 139.708 102.412 140.705C102.412 143.899 105.01 146.497 108.204 146.497C111.398 146.497 113.996 143.899 113.996 140.705C113.996 139.753 113.764 138.856 113.356 138.063H121.608C121.2 138.856 120.968 139.753 120.968 140.705C120.968 143.899 123.566 146.497 126.76 146.497C129.954 146.497 132.552 143.899 132.552 140.705C132.552 139.753 132.32 138.856 131.912 138.063H136.038C136.907 138.063 137.613 137.357 137.613 136.488C137.613 135.618 136.907 134.913 136.038 134.913H104.268C102.729 134.913 101.258 133.624 101.054 132.099L100.725 129.628H131.82C133.324 129.628 134.808 129.054 136 128.011C137.192 126.967 137.957 125.572 138.157 124.081L140.415 107.139C140.624 105.57 140.191 104.079 139.194 102.94ZM110.846 140.705C110.846 142.162 109.661 143.347 108.204 143.347C106.747 143.347 105.562 142.162 105.562 140.705C105.562 139.248 106.747 138.063 108.204 138.063C109.661 138.063 110.846 139.248 110.846 140.705ZM129.402 140.705C129.402 142.162 128.217 143.347 126.76 143.347C125.303 143.347 124.118 142.162 124.118 140.705C124.118 139.248 125.303 138.063 126.76 138.063C128.217 138.063 129.402 139.248 129.402 140.705ZM114.814 95.8905H120.098V102.732C120.098 102.738 120.097 102.744 120.097 102.75C120.097 102.756 120.098 102.762 120.098 102.768V111.185C120.098 112.054 120.803 112.76 121.673 112.76H122.228L117.55 117.401L112.872 112.76H113.239C114.109 112.76 114.814 112.054 114.814 111.185V95.8905ZM137.293 106.722L135.034 123.665C134.831 125.19 133.359 126.478 131.82 126.478H100.305L97.3516 104.325H111.664V109.61H109.048C108.409 109.61 107.834 109.995 107.592 110.585C107.348 111.175 107.485 111.853 107.939 112.303L116.441 120.737C116.748 121.042 117.149 121.194 117.55 121.194C117.951 121.194 118.352 121.042 118.659 120.737L127.161 112.303C127.615 111.853 127.752 111.175 127.508 110.585C127.266 109.995 126.691 109.61 126.052 109.61H123.248V104.325H135.195C135.856 104.325 136.434 104.57 136.824 105.015C137.214 105.46 137.38 106.067 137.293 106.722Z" fill="#49A08A"/>
</g>
</g>
<defs>
<clipPath id="clip0">
<rect width="130" height="135.976" fill="white" transform="translate(15 12.0122)"/>
</clipPath>
<clipPath id="clip1">
<rect width="53.7565" height="53.7565" fill="white" transform="translate(86.915 92.7407)"/>
</clipPath>
</defs>
</svg>
