<svg width="160" height="160" viewBox="0 0 160 160" fill="none" xmlns="http://www.w3.org/2000/svg">
<circle cx="68.0851" cy="87.9433" r="68.0851" fill="#ECF0F7"/>
<circle cx="114.61" cy="49.3618" r="45.3901" fill="#F7F1F6"/>
<g clip-path="url(#clip0)">
<path d="M93.2967 91.3701H64.8711L64.9343 64.9974H93.2967V91.3701ZM68.0295 88.2117H90.1068V68.1558H68.0611L68.0295 88.2117Z" fill="#EFC579"/>
<path d="M84.6744 76.1466H73.4937V64.9974H84.6744V76.1466ZM76.6521 72.9882H81.516V68.1558H76.6521V72.9882Z" fill="#EFC579"/>
<path d="M101.824 109.815H51.6689V106.657H98.666V48.0682H93.2967V91.3699H23.1169V106.657H30.7602V109.815H19.9585V88.2115H90.1383V44.9098H101.824V109.815Z" fill="#3476A4"/>
<path d="M136.977 109.815H131.798V106.657H136.977C138.367 106.657 139.504 105.52 139.504 104.13V67.4293L126.744 52.9638H101.824V106.657H110.921V109.815H98.666V49.8054H128.197L142.663 66.2291V104.13C142.663 107.257 140.104 109.815 136.977 109.815Z" fill="#49A08A"/>
<path d="M30.7604 106.657H15V109.815H30.7604V106.657Z" fill="#3476A4"/>
<path d="M139.494 77.1572H114.742V52.9908H117.71V74.1956H139.494V77.1572Z" fill="#49A08A"/>
<path d="M121.375 120.269C114.743 120.269 109.342 114.869 109.342 108.236C109.342 101.603 114.743 96.2024 121.375 96.2024C128.008 96.2024 133.409 101.603 133.409 108.236C133.409 114.869 128.008 120.269 121.375 120.269ZM121.375 99.3608C116.48 99.3608 112.5 103.34 112.5 108.236C112.5 113.131 116.48 117.111 121.375 117.111C126.271 117.111 130.25 113.131 130.25 108.236C130.219 103.34 126.239 99.3608 121.375 99.3608Z" fill="#3476A4"/>
<path d="M41.2147 120.269C34.582 120.269 29.1812 114.869 29.1812 108.236C29.1812 101.603 34.582 96.2024 41.2147 96.2024C47.8473 96.2024 53.2482 101.603 53.2482 108.236C53.2482 114.869 47.8473 120.269 41.2147 120.269ZM41.2147 99.3608C36.3192 99.3608 32.3396 103.34 32.3396 108.236C32.3396 113.131 36.3192 117.111 41.2147 117.111C46.1102 117.111 50.0898 113.131 50.0898 108.236C50.0898 103.34 46.1102 99.3608 41.2147 99.3608Z" fill="#3476A4"/>
<path d="M139.496 92.4438H135.683V95.6023H139.496V92.4438Z" fill="#AD6FA1"/>
<path d="M145 117.111H15V120.269H145V117.111Z" fill="#3476A4"/>
<path d="M93.3516 44.9139H90.1386V42.9489H71.9777V65.5631H68.8193V39.7905H93.3516V44.9139Z" fill="#EFC579"/>
<path d="M86.159 49.9635H75.9258V39.7302H86.159V49.9635ZM79.0842 46.8051H83.0006V42.8886H79.0842V46.8051Z" fill="#EFC579"/>
<path d="M68.0609 86.6163H64.9025V72.0928H31.3918V88.2323H28.2334V68.9344H68.0609V86.6163Z" fill="#EFC579"/>
<path d="M53.2795 80.7579H43.0146V70.493H53.2479V80.7579H53.2795ZM46.1731 77.5995H50.0895V73.683H46.1731V77.5995Z" fill="#EFC579"/>
<path d="M60.4808 73.6513H35.8452L35.9084 57.5435H60.5124V73.6513H60.4808ZM39.0036 70.4929H57.3224V60.7019H39.0352L39.0036 70.4929Z" fill="#EFC579"/>
<path d="M53.1529 66.2291H43.1724V57.5435H53.1529V66.2291ZM46.3308 63.0707H49.9945V60.7019H46.3308V63.0707Z" fill="#EFC579"/>
</g>
<defs>
<clipPath id="clip0">
<rect width="130" height="80.5394" fill="white" transform="translate(15 39.7302)"/>
</clipPath>
</defs>
</svg>
