<svg width="160" height="160" viewBox="0 0 160 160" fill="none" xmlns="http://www.w3.org/2000/svg">
<circle cx="68.0851" cy="87.943" r="68.0851" fill="#ECF0F7"/>
<circle cx="114.61" cy="49.3615" r="45.3901" fill="#F7F1F6"/>
<g clip-path="url(#clip0)">
<path d="M145 144.608H53.5625V133.36C53.5625 108.138 74.077 87.623 99.2998 87.623C124.523 87.623 145.037 108.138 145.037 133.36V144.608H145ZM57.2992 140.871H141.263V133.36C141.263 110.193 122.43 91.3598 99.2624 91.3598C76.0948 91.3598 57.2618 110.193 57.2618 133.36V140.871H57.2992Z" fill="#EFC579"/>
<path d="M72.3954 133.36H68.6587C68.6587 116.471 82.4098 102.719 99.2997 102.719C107.483 102.719 115.218 105.933 121.01 111.725L122.393 113.108L103.858 129.698L101.355 126.933L116.9 112.995C112.004 108.736 105.839 106.456 99.2997 106.456C84.465 106.456 72.3954 118.526 72.3954 133.36Z" fill="url(#paint0_linear)"/>
<path d="M101.168 89.4915H97.4312V95.1712H101.168V89.4915Z" fill="#EFC579"/>
<path d="M78.9791 94.4285L75.7432 96.2969L78.5831 101.216L81.819 99.3472L78.9791 94.4285Z" fill="#EFC579"/>
<path d="M62.2394 109.806L60.3711 113.042L65.2898 115.882L67.1581 112.646L62.2394 109.806Z" fill="#EFC579"/>
<path d="M61.1105 131.492H55.4307V135.229H61.1105V131.492Z" fill="#EFC579"/>
<path d="M119.61 94.4194L116.771 99.3386L120.007 101.207L122.847 96.2873L119.61 94.4194Z" fill="#EFC579"/>
<path d="M136.362 109.793L131.444 112.635L133.314 115.87L138.232 113.028L136.362 109.793Z" fill="#EFC579"/>
<path d="M143.169 131.492H137.489V135.229H143.169V131.492Z" fill="#EFC579"/>
<path d="M99.3001 137.508C95.825 137.508 93.0225 134.705 93.0225 131.23C93.0225 127.755 95.825 124.953 99.3001 124.953C102.775 124.953 105.578 127.755 105.578 131.23C105.578 134.705 102.775 137.508 99.3001 137.508ZM99.3001 128.689C97.8802 128.689 96.7592 129.848 96.7592 131.23C96.7592 132.65 97.9175 133.771 99.3001 133.771C100.72 133.771 101.841 132.613 101.841 131.23C101.841 129.81 100.683 128.689 99.3001 128.689Z" fill="#49A08A"/>
<path d="M76.6556 41.9603H40.0732V23.613H76.6556V41.9603ZM43.8099 38.2236H72.9189V27.3497H43.8099V38.2236Z" fill="#AD6FA1"/>
<path d="M101.729 77.0851H97.9923V34.6735H80.0562V30.9368H101.729V77.0851Z" fill="#3476A4"/>
<path d="M50.1624 137.47H15V30.9368H36.6729V34.6735H18.7367V133.734H50.1624V137.47Z" fill="#3476A4"/>
<path d="M54.0859 101.897H49.415V105.634H54.0859V101.897Z" fill="#49A08A"/>
<path d="M53.488 109.034H49.415V112.771H53.488V109.034Z" fill="#49A08A"/>
<path d="M63.764 87.623H49.415V91.3597H63.764V87.623Z" fill="#49A08A"/>
<path d="M74.7873 80.4856H49.415V84.2223H74.7873V80.4856Z" fill="#49A08A"/>
<path d="M67.7249 59.0745H49.415V62.8112H67.7249V59.0745Z" fill="#49A08A"/>
<path d="M81.9991 66.2119H49.415V69.9486H81.9991V66.2119Z" fill="#49A08A"/>
<path d="M33.0482 70.658L27.4805 65.1277L30.1335 62.4746L33.0482 65.3893L39.3632 59.0369L42.0163 61.6899L33.0482 70.658Z" fill="#49A08A"/>
<path d="M33.0482 92.1441L27.4805 86.5764L30.1335 83.9607L33.0482 86.838L39.3632 80.5229L42.0163 83.176L33.0482 92.1441Z" fill="#49A08A"/>
<path d="M33.0482 113.593L27.4805 108.062L30.1335 105.409L33.0482 108.324L39.3632 102.009L42.0163 104.625L33.0482 113.593Z" fill="#49A08A"/>
<path d="M60.5619 30.9075H56.5781V34.6658H60.5619V30.9075Z" fill="#AD6FA1"/>
<path d="M52.5942 30.9075H48.6104V34.6658H52.5942V30.9075Z" fill="#AD6FA1"/>
<path d="M68.5292 30.9075H64.5454V34.6658H68.5292V30.9075Z" fill="#AD6FA1"/>
<path d="M101.395 126.926L103.903 129.641L122.182 113.059L119.428 110.506L101.395 126.926Z" fill="#49A08A"/>
</g>
<defs>
<linearGradient id="paint0_linear" x1="71.4021" y1="132.389" x2="122.393" y2="133.36" gradientUnits="userSpaceOnUse">
<stop stop-color="#AD6FA1"/>
<stop offset="0.15625" stop-color="#EFC579"/>
<stop offset="0.333333" stop-color="#EFC579"/>
<stop offset="1" stop-color="#49A08A"/>
</linearGradient>
<clipPath id="clip0">
<rect width="130" height="129.215" fill="white" transform="translate(15 15.3923)"/>
</clipPath>
</defs>
</svg>
