<svg width="115" height="26" fill="none" xmlns="http://www.w3.org/2000/svg"><path d="M17.597.015h7.138l-8.03 12.493L24.914 25h-7.139l-4.996-7.852L7.781 25H.643l8.21-12.492L.821.015h7.102l4.854 7.853L17.598.015zm19.058 19.81c6.52.357 10.934.535 13.242.535.547 0 .976-.155 1.285-.464.333-.333.5-.773.5-1.32v-3.213h-8.21c-2.498 0-4.318-.56-5.46-1.678-1.119-1.142-1.678-2.962-1.678-5.46V7.154c0-2.499.56-4.307 1.677-5.425C39.154.586 40.974.015 43.472.015H56v4.997H44.9c-1.428 0-2.141.714-2.141 2.142v.714c0 1.427.713 2.141 2.141 2.141h6.425c2.332 0 4.045.547 5.14 1.642 1.094 1.095 1.641 2.808 1.641 5.14v1.784c0 2.332-.547 4.046-1.642 5.14-1.094 1.095-2.807 1.642-5.14 1.642-1.213 0-2.498-.024-3.854-.072l-3.284-.142a226.365 226.365 0 01-7.53-.5v-4.818zM61.316.015h14.99c2.499 0 4.307.571 5.426 1.714 1.142 1.118 1.713 2.926 1.713 5.425v3.212c0 1.975-.333 3.51-1 4.604-.642 1.095-1.677 1.82-3.105 2.178L83.802 25h-6.96l-4.105-7.495H67.74V25h-6.424V.015zM77.02 7.154c0-1.428-.713-2.142-2.141-2.142H67.74v7.496h7.139c1.428 0 2.141-.714 2.141-2.142V7.154zm31.4 3.926l-4.997 8.923h-4.997l-4.997-8.923V25h-6.425V.015h6.782l7.139 13.207L108.063.014h6.782V25h-6.425V11.08z" fill="#FDFEFE"/><circle cx="28.5" cy="12.5" r="3.5" fill="#EB5757"/></svg>