<svg width="115" height="51" fill="none" xmlns="http://www.w3.org/2000/svg"><path d="M49.644 39.239l.847-.922a1.591 1.591 0 001.33.616c.516 0 .99-.275.99-.766 0-.572-.54-.739-1.172-.739h-.474v-1.026h.507c.583 0 1.006-.174 1.006-.69 0-.41-.442-.63-.84-.63a1.54 1.54 0 00-1.189.515l-.82-.874c.474-.48 1.139-.821 2.136-.821 1.29 0 2.137.589 2.137 1.587a1.344 1.344 0 01-.973 1.346v.045c.649.175 1.148.64 1.148 1.437 0 1.213-1.164 1.813-2.238 1.813s-1.856-.341-2.395-.891zm7.732-5.163h1.38l2.447 5.883h-1.581l-.458-1.155h-2.272l-.44 1.155h-1.545l2.47-5.883zm1.396 3.593l-.73-2.02-.74 2.02h1.47zm3.334-3.593h1.398v2.394h.024l2.102-2.396h1.78l-2.535 2.712 2.691 3.173h-1.847l-2.187-2.71h-.016v2.71h-1.41v-5.883zm6.17 5.883l.175-1.172c.172.053.351.083.531.09.524 0 .698-.3.938-.78l.027-.05-2.246-3.975h1.643l1.38 2.687 1.296-2.687h1.597l-2.204 4.192c-.54 1.026-.981 1.794-2.195 1.794a3.653 3.653 0 01-.942-.099zm6.234-5.887h5.105v5.887h-1.422v-4.68h-2.258v4.68h-1.423l-.002-5.887zm6.46 2.92c0-1.887 1.365-3.08 3.203-3.08 1.837 0 3.208 1.189 3.208 3.08 0 1.89-1.363 3.126-3.208 3.126-1.846 0-3.203-1.26-3.203-3.123v-.004zm4.89 0c0-1.027-.69-1.797-1.687-1.797-.998 0-1.682.766-1.682 1.796 0 1.063.692 1.83 1.682 1.83.989 0 1.687-.762 1.687-1.826v-.004zm5.912.79a5.24 5.24 0 01-1.314.182c-1.33 0-1.962-.515-1.962-1.722v-2.166H89.9v1.813c0 .673.283.915.948.915.314.006.627-.045.924-.15v-2.578h1.42v5.883h-1.42v-2.178zm3.05-3.71h1.423v2.234h2.295v-2.23h1.42v5.883h-1.42v-2.463h-2.295v2.463h-1.423v-5.887zm6.774 0h1.423v2.162h.747c1.232 0 2.295.498 2.295 1.847 0 1.32-1.063 1.87-2.287 1.87h-2.178v-5.879zm2.053 4.756c.573 0 .989-.205.989-.749s-.392-.739-.989-.739h-.641v1.488h.641zm3.091-4.756h1.415v5.887h-1.415v-5.887zm3.044 0h1.405v3.876h.032l2.258-3.876h1.505v5.887h-1.404V36.18h-.033l-2.237 3.78h-1.521l-.005-5.888zm1.088-1.628l.709-.141c.049.349.332.556.747.556.414 0 .69-.205.741-.556l.714.141c-.133.807-.698 1.164-1.455 1.164-.758 0-1.326-.353-1.449-1.16l-.007-.004z" fill="#FDFEFE"/><path d="M40.82 28.5H26.603v1.506h14.215V28.5zm0-4.582H26.603v1.32h14.215v-1.32zm0-9.16H26.603v.945h14.215v-.945zm0 4.58H26.603v1.133h14.215v-1.133zm0-9.159H26.603v.837h14.215v-.837zm0-4.578H26.603v.727h14.215V5.6zm0-4.58H26.603v.663h14.215v-.663zM14.682 30.584L.66 34.1l.88 3.239 13.774-4.023a5.954 5.954 0 01-.632-2.669v-.062zm-5.873 16.39l2.432 1.608L18.81 36.33a5.924 5.924 0 01-1.811-.96l-8.19 11.603zm14.656 3.694l2.43-.49-2.937-14.037a5.94 5.94 0 01-1.888.452l2.395 14.075zM.442 27.023l.002 3.564 14.238-.263v-3.301H.442zm18.474 9.334L15.85 50.254l2.64.514 2.463-14.164c-.105 0-.206.014-.319.014a5.915 5.915 0 01-1.726-.254M32.479 47.05l-7.7-12.111a6.078 6.078 0 01-1.735 1.161l7.54 12.152 1.895-1.202zM15.353 33.391l-11.89 7.86 1.776 2.582 11.662-8.543a6.003 6.003 0 01-1.548-1.899zm9.477 1.503l11.662 8.31 1.172-1.643-11.655-8.32A5.974 5.974 0 0124.83 34.9m1.374-2.113l13.915 3.254.41-1.755-13.946-3.242a5.846 5.846 0 01-.38 1.743zM14.682.414H.442v4.23h14.24V.414zm0 5.302H.442v4.097h14.24V5.716zm0 5.3H.442v3.963h14.24v-3.963zm0 9.072v-3.71H.442l.002 3.71h14.238zm0 5.373v-3.79H.442l.002 3.79h14.238z" fill="#EB5757"/><path d="M114.984 22.785V1.25h-5.513l-5.857 9.276-5.863-9.276h-5.505v21.535h5.432v-12h.06L103.613 19l5.894-8.24h.059v12.025h5.417zm-45.833-8.074V1.25H63.74v13.646c0 2.094-1.39 3.41-3.695 3.41-2.305 0-3.695-1.316-3.695-3.41V1.25h-5.446v13.46c0 5.389 3.888 8.675 9.125 8.675 5.236 0 9.122-3.284 9.122-8.675zm18.532 2.091c0-7.523-9.049-7.164-9.049-9.972 0-1.176.955-1.83 2.279-1.83a6.945 6.945 0 014.45 1.609l1.716-3.983C85.402 1.25 83.161.654 80.8.654c-3.9 0-7.184 2.375-7.184 6.363 0 6.702 9.18 6.121 9.18 9.925 0 .987-.78 1.718-2.287 1.718-1.946 0-4.011-1.094-4.94-1.909-.447.706-2.553 4.237-2.553 4.237 2.391 1.796 5.21 2.393 7.778 2.393 5.52 0 6.883-4.142 6.883-6.579M53.493 43.755h-1.38l-2.463 5.887h1.548l.433-1.156h2.276l.458 1.156h1.579l-2.451-5.887zm-1.462 3.594l.747-2.02.733 2.02h-1.48zm4.364 2.258l.115-1.18c.112.04.23.06.349.06.632 0 1.026-.516 1.026-2.653v-2.08h4.488v5.888h-1.42v-4.68h-1.705v.821c0 2.874-.615 3.925-2.038 3.925a3.52 3.52 0 01-.815-.1zm9.445-3.695h-.737v-2.157h-1.437v5.887h2.18c1.232 0 2.287-.55 2.287-1.872.002-1.355-1.055-1.858-2.293-1.858zm-.107 2.595h-.63v-1.488h.64c.598 0 .988.226.988.739s-.427.753-.998.753v-.004zm5.686-4.752c-1.256 0-2.32.466-2.32 1.812a1.665 1.665 0 001.164 1.671l-1.48 2.404h1.642l1.232-2.188h.499v2.188h1.42v-5.887H71.42zm.739 2.62h-.616c-.575 0-1.047-.206-1.047-.756s.45-.733.998-.733h.665v1.488zm3.052-2.62h1.42v2.23h2.296v-2.23h1.42v5.887h-1.42v-2.461H76.63v2.461h-1.42v-5.887zm6.493 2.935c0-1.886 1.396-3.093 3.192-3.093.821 0 1.712.3 2.203.866l-.965.963a1.466 1.466 0 00-1.189-.54c-.989 0-1.695.766-1.695 1.805 0 1.071.69 1.804 1.67 1.804a1.507 1.507 0 001.249-.6l.987.932a2.923 2.923 0 01-2.284.974c-1.813 0-3.168-1.265-3.168-3.11z" fill="#FDFEFE"/></svg>