<svg width="64" height="79" fill="none" xmlns="http://www.w3.org/2000/svg"><path d="M52 27.888H37.917v1.496H52v-1.496zm0-4.55H37.917v1.311H52v-1.31zm0-9.094H37.917v.938H52v-.938zm0 4.547H37.917v1.126H52V18.79zm0-9.095H37.917v.832H52v-.832zm0-4.546H37.917v.722H52v-.721zm0-4.547H37.917v.658H52V.603zM26.107 29.959l-13.891 3.49.872 3.215 13.645-3.995a5.922 5.922 0 01-.626-2.65v-.06zm-5.818 16.274l2.41 1.596 7.497-12.164a5.864 5.864 0 01-1.794-.954L20.29 46.233zm14.519 3.668l2.408-.487-2.91-13.938a5.862 5.862 0 01-1.87.449L34.807 49.9zM12 26.422l.002 3.539 14.105-.261v-3.278H12zm18.302 9.269l-3.038 13.8 2.615.51 2.44-14.065c-.104 0-.203.014-.315.014a5.847 5.847 0 01-1.71-.253m13.444 10.611L36.11 34.282a6.02 6.02 0 01-1.718 1.154l7.469 12.067 1.877-1.195zM26.771 32.746L14.993 40.55l1.76 2.565 11.552-8.484a5.96 5.96 0 01-1.534-1.885zm9.389 1.491l11.553 8.252 1.161-1.631-11.546-8.261a5.932 5.932 0 01-1.167 1.647m1.36-2.098l13.785 3.23.407-1.742-13.816-3.218a5.816 5.816 0 01-.376 1.73zM26.107 0H12v4.2h14.107V0zm0 5.265H12v4.069h14.107V5.265zm0 5.262H12v3.936h14.107v-3.936zm0 9.009v-3.683H12l.002 3.683h14.105zm0 5.336v-3.763H12l.002 3.763h14.105z" fill="#EB5757"/><path d="M64 78.391V56.603h-5.507l-5.849 9.385-5.855-9.385h-5.498v21.788h5.424V66.25h.06l5.87 8.312 5.885-8.337h.06v12.166H64zm-45.776-8.168v-13.62H12.82V70.41c0 2.118-1.388 3.45-3.69 3.45-2.303 0-3.69-1.332-3.69-3.45V56.603H0v13.62C0 75.675 3.883 79 9.113 79c5.23 0 9.11-3.323 9.11-8.777zm18.509 2.116c0-7.612-9.038-7.249-9.038-10.09 0-1.19.954-1.852 2.276-1.852a6.89 6.89 0 014.445 1.628l1.714-4.03C34.455 56.603 32.216 56 29.858 56c-3.895 0-7.175 2.403-7.175 6.438 0 6.781 9.168 6.193 9.168 10.042 0 .999-.779 1.738-2.284 1.738-1.943 0-4.006-1.107-4.933-1.931-.447.714-2.55 4.286-2.55 4.286 2.389 1.818 5.203 2.422 7.768 2.422 5.513 0 6.874-4.191 6.874-6.656" fill="#FDFEFE"/></svg>