<svg width="61" height="53" fill="none" xmlns="http://www.w3.org/2000/svg"><path d="M28.477 26.933a9.9 9.9 0 01-7.524 4.573l-3.25-6.938h2.366a2.996 2.996 0 002.707-4.258 2.996 2.996 0 00-2.707-1.72h-5.172l-3.268-6.973h8.44a9.964 9.964 0 018.408 15.316zm8.113 4.618h-2.242l-3.27-6.97h2.241l3.27 6.97zm5.256 0h-2.95l-3.27-6.97h2.95l3.27 6.97zm5.118 0H43.31l-3.27-6.97h3.655l3.27 6.97zm-37.388.001H7.334l-3.27-6.973h2.242l3.27 6.973zm5.256 0h-2.949l-3.27-6.973h2.949l3.27 6.973zm5.118 0h-3.653l-3.272-6.973h3.655l3.27 6.973z" fill="#EB5757"/><path d="M24.92 12.899a9.304 9.304 0 01-8.574 5.697H14.89l-3.267-6.973h4.73a2.326 2.326 0 000-4.652H9.448L6.172.006h10.174a9.333 9.333 0 018.417 5.35 9.235 9.235 0 01.158 7.543zm1.382-.099a10.755 10.755 0 014.573 9.24l6.352-13.545L42.084.006h-9.777L26.302 12.8z" fill="#EB5757"/><path d="M42.084 0h-9.832l4.917 8.495 10.81 23.057h8.899L42.084 0z" fill="#EB5757"/><path d="M0 43.282l.779-.849a1.468 1.468 0 001.224.573c.473 0 .911-.252.911-.703 0-.527-.498-.68-1.079-.68H1.4v-.946h.473c.536 0 .925-.158.925-.631 0-.382-.405-.58-.772-.58a1.42 1.42 0 00-1.093.473l-.759-.804c.437-.444 1.05-.75 1.967-.75 1.186 0 1.965.543 1.965 1.46a1.235 1.235 0 01-.894 1.24v.024c.596.157 1.054.588 1.054 1.315 0 1.116-1.07 1.667-2.05 1.667-1.018.001-1.718-.305-2.215-.81zm7.113-4.75h1.27l2.247 5.415H9.177l-.42-1.063H6.66l-.398 1.063H4.844l2.27-5.415zm1.284 3.304l-.673-1.858-.693 1.858h1.366zm3.067-3.304h1.285v2.208h.024l1.934-2.208h1.637l-2.334 2.493 2.472 2.922h-1.707l-2.01-2.493h-.016v2.493h-1.285v-5.415zm5.677 5.415l.157-1.078c.16.048.324.076.49.083.474 0 .642-.274.865-.717l.022-.046-2.064-3.657h1.506l1.27 2.473 1.194-2.471h1.468l-2.026 3.855c-.498.946-.903 1.651-2.02 1.651a3.361 3.361 0 01-.864-.093h.002zm5.736-5.415h4.696v5.415H26.27v-4.306h-2.081v4.306H22.88l-.003-5.415zm5.944 2.68c0-1.734 1.261-2.838 2.944-2.838 1.682 0 2.952 1.095 2.952 2.839s-1.254 2.875-2.952 2.875c-1.699 0-2.946-1.158-2.946-2.87l.002-.005zm4.497 0c0-.945-.631-1.652-1.553-1.652-.923 0-1.546.704-1.546 1.653 0 .978.631 1.68 1.546 1.68.914 0 1.551-.698 1.551-1.675l.002-.005zm5.437.726c-.394.109-.8.165-1.208.169-1.224 0-1.806-.473-1.806-1.577v-1.998h1.294v1.669c0 .618.26.84.872.84.288.005.575-.042.848-.137v-2.366h1.309v5.416h-1.31v-2.016zm2.81-3.406h1.307v2.05h2.11v-2.05h1.309v5.415h-1.31v-2.264h-2.109v2.264h-1.307v-5.415zm6.225 0h1.308v1.989h.687c1.14 0 2.112.459 2.112 1.706 0 1.216-.98 1.72-2.104 1.72H47.79v-5.415zm1.893 4.375c.528 0 .911-.2.911-.688 0-.489-.36-.681-.911-.681h-.589v1.369h.589zm2.838-4.375h1.3v5.415h-1.3v-5.415zm2.799 0h1.293v3.564h.03l2.08-3.564h1.376v5.415h-1.291v-3.48h-.024l-2.064 3.48h-1.4v-5.415zm1.001-1.498l.651-.13c.046.315.306.512.688.512.382 0 .63-.191.681-.513l.658.131c-.123.741-.644 1.07-1.339 1.07s-1.216-.329-1.33-1.07h-.009zM15.234 47.442h1.262l2.248 5.415h-1.452l-.421-1.063h-2.08l-.397 1.063h-1.42l2.26-5.415zm1.285 3.311l-.657-1.864-.688 1.86 1.345.004zm2.654 2.08l.107-1.087a.957.957 0 00.316.054c.582 0 .946-.473.946-2.44v-1.925h4.128v5.415h-1.307v-4.305h-1.567v.75c0 2.637-.574 3.609-1.874 3.609a3.28 3.28 0 01-.74-.084l-.009.013zm6.694-5.385h1.307v1.988h.688c1.14 0 2.111.46 2.111 1.706 0 1.216-.979 1.72-2.103 1.72h-1.995l-.008-5.414zm1.892 4.376c.529 0 .91-.2.91-.69 0-.488-.36-.68-.91-.68h-.588v1.37h.588zm4.187-1.184a1.53 1.53 0 01-1.07-1.536c0-1.24.978-1.669 2.133-1.669h1.988v5.415h-1.316v-2.01h-.458l-1.14 2.01h-1.507l1.37-2.21zm1.735-.789v-1.369h-.612c-.505 0-.916.158-.916.674 0 .515.435.695.963.695h.565zm2.808-2.41h1.307v2.05h2.111v-2.05h1.308v5.416h-1.308v-2.27h-2.11v2.263h-1.308v-5.408zm5.973 2.7c0-1.734 1.285-2.838 2.936-2.838.757 0 1.577.276 2.026.788l-.886.886a1.354 1.354 0 00-1.094-.496c-.91 0-1.56.703-1.56 1.659 0 .987.631 1.66 1.538 1.66a1.381 1.381 0 001.146-.55l.91.856c-.473.55-1.192.894-2.102.894-1.667-.011-2.912-1.167-2.912-2.865l-.002.006z" fill="#FDFEFE"/></svg>